<svg width="70" height="70" viewBox="0 0 70 70" fill="none" xmlns="http://www.w3.org/2000/svg">
<path d="M46.2 0C44.6688 0 43.4 1.26875 43.4 2.8V7C43.4 8.32344 44.3406 9.47734 45.5875 9.75625C44.8383 10.9594 44.1109 12.4633 43.4 14.175C41.8414 17.9211 40.4086 22.5094 39.6812 26.25C39.5336 27.0102 40.0367 27.743 40.7969 27.8906C41.557 28.0383 42.2898 27.5352 42.4375 26.775C43.1156 23.2859 44.5102 18.7687 45.9813 15.225C46.7195 13.4531 47.4633 11.9383 48.125 10.9375C48.4531 10.4344 48.7594 10.0625 48.9562 9.8875C49.0328 9.82187 49.0273 9.80547 49.0438 9.8H59.9813C60.0195 9.82187 60.1344 9.89297 60.2875 10.0625C60.5938 10.4016 60.993 11.0359 61.425 11.8125C62.2891 13.3656 63.2297 15.5477 64.0938 17.9375C65.8219 22.7172 67.2 28.3773 67.2 30.5375V61.6C67.2 63.9352 65.3352 65.8 63 65.8H46.2C45.1445 65.8 44.182 65.4281 43.4437 64.7937C43.0883 64.3672 42.5086 64.1922 41.9781 64.3508C41.4422 64.5039 41.0539 64.9633 40.9828 65.5156C40.9117 66.068 41.1742 66.6094 41.65 66.8937C42.875 67.9492 44.4609 68.6 46.2 68.6H63C66.85 68.6 70 65.45 70 61.6V30.5375C70 27.382 68.518 21.9844 66.7188 17.0187C65.8219 14.5359 64.8594 12.1844 63.875 10.4125C63.7437 10.1773 63.6125 9.975 63.4813 9.75625C64.7883 9.52656 65.8 8.36719 65.8 7V2.8C65.8 1.26875 64.5312 0 63 0H46.2ZM46.2 2.8H63V7H46.2V2.8ZM26.9062 20.9562C26.157 20.9398 25.5063 21.0437 25.5063 21.0437C25.5063 21.0437 23.532 24.2594 23.3188 28C19.7422 22.5531 15.2414 27.2508 13.5625 22.925C13.5625 29.8266 19.0312 28.5305 21.0437 29.4C14.9023 29.4 17.068 34.6828 12.1625 34.825C16.5266 36.7555 20.4367 36.3617 23.3188 30.7563C21.9844 34.6555 21.0164 37.8055 26.4688 41.0812C27.907 38.5109 27.2125 33.8406 25.7687 30.1C28.3828 34.4258 31.9977 37.3953 36.75 34.3875C32.9383 33.3922 34.6445 30.5977 27.9125 29.5312C32.2383 30.1219 35.1914 30.7344 36.4 26.1625C32.9164 27.4859 31.5273 22.2469 25.8125 28.175C25.7906 28.1859 25.8453 24.4234 29.0063 21.6125C28.525 21.1422 27.6555 20.9727 26.9062 20.9562ZM11.725 28.7875C11.6047 28.8148 11.4844 28.8586 11.375 28.9187C3.2375 31.9539 0 39.3477 0 47.3812C0 59.3141 10.6586 70 23.8 70C29.5914 70 35.5086 68.0367 40.0312 63.9188C44.5539 59.8008 47.6 53.5117 47.6 45.15C47.6 41.918 47.0477 38.6422 45.5875 35.8312C44.1273 33.0203 41.6992 30.6852 38.1937 29.4875C37.4555 29.2359 36.6516 29.6242 36.4 30.3625C36.1484 31.1008 36.5367 31.9047 37.275 32.1562C40.1242 33.1297 41.9125 34.8687 43.0938 37.1437C44.275 39.4188 44.8 42.2352 44.8 45.15C44.8 52.8445 42.0875 58.2695 38.15 61.8625C34.2125 65.4555 28.9625 67.2 23.8 67.2C12.1898 67.2 2.8 57.6297 2.8 47.3812C2.8 40.0531 5.3375 34.1086 12.3375 31.5C13.0047 31.2648 13.393 30.5648 13.2344 29.8703C13.0813 29.1812 12.4305 28.7164 11.725 28.7875Z" fill="black"/>
</svg>
