<svg width="34" height="38" viewBox="0 0 34 38" fill="none" xmlns="http://www.w3.org/2000/svg">
<path d="M15.9502 0.825012C15.4158 0.809387 14.9002 1.00939 14.4752 1.32501C14.0502 1.64064 13.6689 2.05626 13.3002 2.57501C13.0189 2.97189 12.7408 3.14064 12.2502 3.25001C11.7596 3.35939 11.0752 3.35001 10.2752 3.35001C9.38144 3.35001 8.73457 3.42814 8.20019 3.62501C7.77207 3.78126 7.38145 4.08751 7.17519 4.47501C7.16582 4.50001 7.15645 4.52501 7.1502 4.55001C7.14082 4.56876 7.13145 4.58126 7.1252 4.60001C7.11582 4.61564 7.10645 4.63439 7.10019 4.65001C7.08457 4.69376 7.05957 4.73126 7.05019 4.77501C6.92207 5.31251 7.10332 5.76564 7.32519 6.12501C7.54395 6.47814 7.83457 6.78126 8.1252 7.05001C8.45957 7.38439 9.16895 7.99064 9.85019 9.07501C10.4658 10.0531 10.9127 11.3844 10.8752 12.975C8.22519 13.7844 5.69395 15.7125 3.7502 18.175C1.64082 20.8469 0.200195 24.1063 0.200195 27.275C0.200195 31.1844 1.4252 33.9688 4.2002 35.55C6.97519 37.1313 11.0752 37.6 17.0002 37.6C22.9252 37.6 27.0252 37.1313 29.8002 35.55C32.5752 33.9688 33.8002 31.1844 33.8002 27.275C33.8002 21.225 29.0596 15.6875 23.6002 13.275C23.9846 13.225 24.3814 13.1875 24.8002 13.2C26.1471 13.2344 27.5846 13.6406 28.8252 14.95C29.0127 15.1906 29.3221 15.3063 29.6221 15.2438C29.9189 15.1813 30.1596 14.9531 30.2346 14.6563C30.3096 14.3625 30.2096 14.0469 29.9752 13.85C28.5252 12.3156 26.7689 11.7344 25.2002 11.625C26.5127 11.075 28.0221 10.9094 29.8252 11.9C30.0783 12.0781 30.4096 12.0938 30.6814 11.9438C30.9502 11.7906 31.1064 11.4969 31.0846 11.1875C31.0627 10.8781 30.8627 10.6125 30.5752 10.5C29.4502 9.88126 28.3814 9.63126 27.3752 9.62501C25.1096 9.61251 23.2033 10.8188 21.9502 11.675C21.7689 8.75939 23.4189 6.43439 23.6252 6.17501L23.6502 6.15001L23.6752 6.10001C23.9533 5.66251 24.3877 5.04064 24.5752 4.30001C24.6689 3.93126 24.7221 3.44376 24.4002 3.00001C24.0783 2.55626 23.5346 2.40001 23.0002 2.40001C22.0002 2.40001 21.0971 2.74064 20.3752 2.87501C19.6533 3.00939 19.2877 2.98751 18.9252 2.62501V2.65001C18.9189 2.64376 18.9064 2.65626 18.9002 2.65001C17.8596 1.56876 17.0158 0.856262 15.9502 0.825012ZM15.9002 2.42501C16.1908 2.43439 16.8221 2.75939 17.7752 3.75001H17.8002V3.77501C18.6377 4.61251 19.7783 4.59064 20.6752 4.42501C21.3533 4.30001 21.9971 4.13126 22.5252 4.05001C22.5346 4.10939 22.5471 4.11251 22.4752 4.22501C22.4033 4.33751 22.2377 4.52814 21.9752 4.75001C21.4502 5.19376 20.5752 5.75939 19.6502 6.60001C19.2721 6.94689 18.8221 7.18126 18.4752 7.22501C18.1283 7.26876 17.9283 7.20001 17.7002 6.92501H17.6752C17.2689 6.41876 16.9033 6.03439 16.4752 5.77501C16.0377 5.50939 15.5221 5.37501 15.0502 5.45001C14.1158 5.59689 13.5221 6.26876 12.8002 6.95001H12.7752V6.92501C12.3627 7.31251 11.8721 7.44064 11.1252 7.12501C10.4939 6.85939 9.71582 6.19376 8.97519 5.10001C9.25019 5.02501 9.6502 4.95001 10.2752 4.95001C11.0752 4.95001 11.8502 4.96876 12.6002 4.80001C13.3502 4.63126 14.0814 4.22501 14.6002 3.50001H14.6252C14.9377 3.05939 15.2096 2.75939 15.4252 2.60001C15.6408 2.44064 15.7564 2.42189 15.9002 2.42501ZM15.3002 7.05001C15.4002 7.03439 15.4627 7.01251 15.6502 7.12501C15.8377 7.23751 16.1033 7.48751 16.4502 7.92501V7.95001H16.4752C17.0471 8.63439 17.9033 8.89689 18.6752 8.80001C19.4471 8.70314 20.1658 8.33439 20.7502 7.80001C20.8346 7.72189 20.9158 7.67501 21.0002 7.60001C20.4627 8.90001 20.0377 10.6375 20.3752 12.625C16.6752 14.4219 13.7127 13.4719 12.5752 12.95C12.6064 11.3188 12.1346 9.91876 11.5502 8.82501C12.4127 8.90939 13.2596 8.67814 13.8752 8.10001C14.5877 7.42814 15.1002 7.08126 15.3002 7.05001ZM21.2002 14C26.7314 15.6188 32.2002 21.475 32.2002 27.275C32.2002 30.8844 31.3096 32.875 29.0252 34.175C26.7408 35.475 22.8346 36 17.0002 36C11.1658 36 7.25957 35.475 4.97519 34.175C2.69082 32.875 1.8002 30.8844 1.8002 27.275C1.8002 24.6031 3.06895 21.5969 5.0002 19.15C6.90645 16.7375 9.44394 14.8938 11.8002 14.325C13.1408 14.9281 16.8408 16.1625 21.2002 14Z" fill="black"/>
</svg>
