<svg width="37" height="36" viewBox="0 0 37 36" fill="none" xmlns="http://www.w3.org/2000/svg">
<path d="M26.3471 0.399994C23.4315 0.399994 21.1627 1.47187 19.4658 2.95312C17.769 4.43437 16.6158 6.30937 15.7596 7.96874L9.31583 20.4625V20.4656C8.85958 21.2781 8.78146 22.2344 9.07521 23.0906L7.03146 25.1375C5.26271 23.9969 2.80958 24.3125 1.54708 26.2125C0.747082 27.4156 0.687707 28.9719 1.35021 30.2406C1.81583 31.1344 2.54708 31.7406 3.34396 32.0719C3.47833 33.2375 4.13458 34.375 5.28771 35.0625C6.56583 35.8219 8.18146 35.7937 9.42833 34.9906C11.1971 33.8562 11.6377 31.7031 10.8596 29.975L13.2877 27.5437C14.1565 27.6875 15.0846 27.4906 15.8283 26.9062L15.744 26.9625C15.744 26.9625 16.9002 26.2719 18.3002 25.5031C19.7002 24.7344 21.3815 23.8781 22.2127 23.6031L22.2221 23.6L25.9565 22.2469C27.8377 21.5625 29.7033 20.5875 31.3221 19.2937C35.1846 16.2031 36.1002 12.4094 36.1002 10.0875C36.1002 4.74374 31.7221 0.399994 26.3471 0.399994ZM26.3471 1.99999C30.8627 1.99999 34.5002 5.61562 34.5002 10.0875C34.5002 12 33.7877 15.275 30.3221 18.0437C28.869 19.2062 27.1502 20.1125 25.4127 20.7406L21.7096 22.0844C20.5877 22.4562 18.9533 23.3156 17.5283 24.1C16.1033 24.8875 14.9252 25.5875 14.9252 25.5875L14.8783 25.6156L14.8377 25.6469C14.094 26.2312 13.0315 26.0812 12.4815 25.3156L10.8033 22.9875C10.4346 22.4719 10.3971 21.8031 10.7096 21.2531L10.7158 21.2375L17.1815 8.70312C17.994 7.13124 19.0565 5.43437 20.5158 4.15624C21.9783 2.88124 23.8158 1.99999 26.3471 1.99999ZM9.92521 24.5031L11.1846 26.25C11.344 26.475 11.5346 26.6625 11.7377 26.8312L8.88458 29.6875L9.26583 30.2344C10.0158 31.3125 9.81896 32.8375 8.56271 33.6437C7.84083 34.1062 6.84396 34.125 6.10646 33.6875C5.36583 33.2469 5.00021 32.5844 4.92208 31.8687C4.85958 31.3 4.49083 30.8156 3.96583 30.6C3.47833 30.4 3.06271 30.0656 2.76896 29.5C2.37833 28.7531 2.41896 27.7906 2.88146 27.1C3.77521 25.75 5.53458 25.6437 6.59708 26.7031L7.16271 27.2687L9.92521 24.5031Z" fill="black"/>
</svg>
