<svg width="41" height="24" viewBox="0 0 41 24" fill="none" xmlns="http://www.w3.org/2000/svg">
<path d="M1.1501 0C0.768855 0.0718752 0.493854 0.409375 0.500104 0.8V23.2C0.500104 23.6406 0.85948 24 1.3001 24H39.7001C40.1407 24 40.5001 23.6406 40.5001 23.2V0.8C40.5001 0.359375 40.1407 0 39.7001 0H1.3001C1.2751 0 1.2501 0 1.2251 0C1.2001 0 1.1751 0 1.1501 0ZM2.1001 1.6H38.9001V22.4H2.1001V1.6ZM6.67511 5.6C6.23448 5.6625 5.92511 6.07188 5.98761 6.5125C6.05011 6.95312 6.45948 7.2625 6.9001 7.2H23.7001C23.9876 7.20312 24.2564 7.05312 24.4032 6.80312C24.547 6.55312 24.547 6.24688 24.4032 5.99688C24.2564 5.74688 23.9876 5.59688 23.7001 5.6H6.9001C6.8751 5.6 6.85011 5.6 6.82511 5.6C6.80011 5.6 6.7751 5.6 6.7501 5.6C6.72511 5.6 6.70011 5.6 6.67511 5.6ZM31.7001 6.4V7.35C30.7751 7.68438 30.1001 8.56563 30.1001 9.6V10.85C30.097 11.1063 30.2189 11.3469 30.4251 11.5L33.3001 13.65V14.4C33.3001 14.8531 32.9532 15.2 32.5001 15.2C32.047 15.2 31.7001 14.8531 31.7001 14.4V13.6H30.1001V14.4C30.1001 15.4344 30.7751 16.3156 31.7001 16.65V17.6H33.3001V16.65C34.2251 16.3156 34.9001 15.4344 34.9001 14.4V13.25C34.8939 13.0031 34.7751 12.7719 34.5751 12.625L31.7001 10.475V9.6C31.7001 9.14688 32.047 8.8 32.5001 8.8C32.9532 8.8 33.3001 9.14688 33.3001 9.6V10.4H34.9001V9.6C34.9001 8.56563 34.2251 7.68438 33.3001 7.35V6.4H31.7001ZM6.67511 8.8C6.23448 8.8625 5.92511 9.27188 5.98761 9.7125C6.05011 10.1531 6.45948 10.4625 6.9001 10.4H20.5001C20.7876 10.4031 21.0564 10.2531 21.2032 10.0031C21.347 9.75313 21.347 9.44688 21.2032 9.19688C21.0564 8.94688 20.7876 8.79688 20.5001 8.8H6.9001C6.8751 8.8 6.85011 8.8 6.82511 8.8C6.80011 8.8 6.7751 8.8 6.7501 8.8C6.72511 8.8 6.70011 8.8 6.67511 8.8ZM9.55011 13.45C8.30011 13.45 7.47198 14.3438 6.95011 15.075C6.42823 15.8063 6.1501 16.525 6.1501 16.525C6.03136 16.7969 6.07511 17.1125 6.26261 17.3438C6.44698 17.575 6.74386 17.6844 7.03761 17.6281C7.32823 17.5719 7.56261 17.3594 7.6501 17.075C7.6501 17.075 7.86573 16.5406 8.25011 16C8.63448 15.4594 9.10011 15.05 9.55011 15.05C9.69386 15.05 9.99698 15.1906 10.3251 15.625C10.5939 15.9781 10.8282 16.525 11.0251 17.05C10.9845 17.1375 10.9126 17.2094 10.8751 17.3C10.597 17.9656 10.4064 18.625 10.4001 19.25C10.397 19.5625 10.4251 19.8688 10.6251 20.2C10.8251 20.5312 11.297 20.8 11.7001 20.8C12.147 20.8 12.6095 20.4844 12.8001 20.15C12.9907 19.8156 13.0345 19.4938 13.0501 19.15C13.0782 18.5656 12.9314 17.8875 12.7501 17.225C12.9032 16.9625 13.0376 16.6656 13.2001 16.475C13.5095 16.1125 13.797 16 13.8001 16C13.8282 16 13.997 16.05 14.2251 16.325C14.4157 16.5531 14.6032 16.925 14.7501 17.275C14.5032 17.7156 14.2907 18.1375 14.2501 18.625C14.2282 18.8813 14.2407 19.1875 14.4501 19.5C14.6595 19.8125 15.097 20 15.4251 20C15.8032 20 16.2126 19.7406 16.4001 19.45C16.5876 19.1594 16.6376 18.8969 16.6501 18.625C16.6657 18.2969 16.5532 17.9406 16.4751 17.6C16.6095 17.4188 16.7376 17.2031 16.8751 17.075C17.122 16.8469 17.3407 16.8 17.3001 16.8C17.2751 16.8 17.2814 16.7688 17.4001 16.9C17.5189 17.0312 17.672 17.2906 17.8251 17.575C17.9782 17.8594 18.147 18.1781 18.3501 18.475C18.4501 18.625 18.5501 18.7812 18.7251 18.925C18.9001 19.0688 19.1595 19.2 19.4751 19.2C19.9564 19.2 20.272 18.9688 20.5251 18.775C20.7782 18.5813 20.9939 18.3906 21.2001 18.2C21.6157 17.8188 21.9845 17.6 22.1001 17.6C22.3876 17.6031 22.6564 17.4531 22.8032 17.2031C22.947 16.9531 22.947 16.6469 22.8032 16.3969C22.6564 16.1469 22.3876 15.9969 22.1001 16C21.1689 16 20.5782 16.5813 20.1251 17C19.9251 17.1844 19.7595 17.3656 19.6251 17.475C19.5251 17.3125 19.397 17.1 19.2501 16.825C19.0814 16.5094 18.8845 16.1688 18.6001 15.85C18.3157 15.5313 17.8657 15.2 17.3001 15.2C16.6595 15.2 16.1939 15.5375 15.8001 15.9C15.6845 15.7063 15.6189 15.4969 15.4751 15.325C15.0814 14.85 14.5314 14.4 13.8001 14.4C13.0001 14.4 12.4314 14.8875 11.9751 15.425C11.8376 15.1781 11.7657 14.8938 11.6001 14.675C11.1126 14.0313 10.4376 13.45 9.55011 13.45Z" fill="black"/>
</svg>
