<svg width="600" height="93" viewBox="0 0 600 93" fill="none" xmlns="http://www.w3.org/2000/svg">
<path d="M53.5525 11.728C50.1525 14.728 46.6525 17.828 44.8525 22.128C48.4525 22.128 52.1525 22.328 55.7525 22.128C59.1525 20.028 61.7525 16.828 65.2525 14.928C78.1525 6.72797 95.6525 6.92797 108.453 15.328C111.753 17.128 114.153 20.228 117.353 22.128C120.853 22.428 124.453 22.128 127.953 22.228L127.353 20.328C121.153 11.428 111.653 5.12797 101.353 1.82797C94.3525 -0.572031 86.8525 0.127962 79.5525 0.227962C70.1525 1.02796 61.0525 5.62796 53.5525 11.728Z" fill="white"/>
<path d="M80.0526 19.9281C80.0526 23.3281 80.0526 26.8281 80.1526 30.2281C77.3526 30.7281 74.5526 30.5281 71.7526 30.1281C70.8526 33.4281 71.2526 36.8281 71.2526 40.1281C74.2526 40.1281 77.2526 40.1281 80.2526 40.2281C80.1526 49.8281 80.1526 59.5281 80.1526 69.2281C80.0526 73.9281 82.0526 79.1281 86.4526 81.4281C91.1526 83.9281 96.8526 82.8281 101.353 80.5281C102.153 77.2281 102.953 73.8281 103.753 70.5281C100.553 72.5281 96.5526 74.0281 92.7526 72.8281C90.7526 71.6281 90.5526 69.1281 90.5526 67.0281C90.5526 58.0281 90.5526 49.1281 90.5526 40.1281H101.153C101.153 36.9281 101.153 33.7281 101.253 30.5281C97.6526 30.5281 94.1526 30.5281 90.5526 30.4281C90.4526 25.0281 90.5526 19.6281 90.5526 14.3281C86.9526 16.1281 83.4526 18.0281 80.0526 19.9281Z" fill="white"/>
<path d="M3.45211 42.328C-1.44789 51.428 -1.14789 63.228 4.55211 71.928C9.85211 79.928 19.8521 83.628 29.1521 83.028C35.5521 82.528 41.2521 79.028 45.3521 74.228C43.5521 71.728 41.5521 69.328 39.5521 66.928C34.5521 71.628 27.1521 74.728 20.5521 71.628C11.5521 68.228 8.35211 56.428 12.5521 48.228C15.6521 41.528 24.1521 37.828 31.1521 40.328C34.3521 41.228 37.0521 43.428 39.4521 45.628C41.2521 43.128 44.2521 41.028 45.0521 38.028C34.6521 24.528 11.1521 27.828 3.45211 42.328Z" fill="white"/>
<path d="M252.152 34.7279C252.152 33.7279 252.152 31.6279 252.252 30.6279C248.752 30.4279 245.252 30.3279 241.752 30.6279C241.852 47.8279 241.752 64.9279 241.752 82.1279C245.152 82.1279 248.652 82.1279 252.152 82.1279C252.252 71.9279 252.152 61.6279 252.152 51.4279C252.052 47.0279 253.852 42.1279 257.952 39.9279C261.552 38.3279 266.252 38.3279 269.552 40.7279C273.252 43.8279 273.452 49.1279 273.752 53.5279C273.852 63.0279 273.752 72.6279 273.752 82.1279C277.152 82.1279 280.452 82.1279 283.852 82.0279C283.752 71.1279 283.852 60.2279 283.752 49.2279C283.652 42.8279 281.752 35.6279 276.152 31.9279C268.652 27.6279 258.352 28.6279 252.152 34.7279Z" fill="white"/>
<path d="M352.852 34.828C352.852 33.428 352.852 32.028 352.852 30.628C349.352 30.628 345.952 30.628 342.452 30.728C342.452 47.828 342.452 65.028 342.452 82.128C345.952 82.128 349.352 82.128 352.852 82.128C352.852 72.628 352.852 63.028 352.852 53.528C352.852 49.928 353.152 46.128 355.052 43.028C357.952 38.128 365.652 37.428 369.752 41.128C372.552 44.228 372.752 48.628 372.852 52.528C372.852 62.428 372.852 72.328 372.852 82.228C376.352 82.228 379.752 82.228 383.252 82.228C383.252 72.328 383.252 62.528 383.252 52.628C383.252 48.628 383.652 44.128 386.652 41.128C389.652 38.428 394.252 38.428 397.852 39.928C401.952 42.228 402.552 47.328 402.752 51.528C402.852 61.828 402.752 72.028 402.852 82.328C406.252 82.328 409.752 82.328 413.152 82.328C413.152 71.728 413.252 61.228 413.152 50.628C412.952 44.628 412.252 38.028 407.852 33.528C403.652 29.428 397.352 29.428 391.852 29.828C386.952 30.128 382.752 33.228 379.652 36.828C374.152 27.328 359.852 27.128 352.852 34.828Z" fill="white"/>
<path d="M51.1523 30.5279V82.0279C54.7523 82.0279 58.3523 82.0279 61.9523 82.0279C61.7523 78.7279 61.5523 75.5279 61.7523 72.2279C62.4523 61.0279 61.4523 49.8279 61.9523 38.7279C62.0523 35.9279 61.9523 33.0279 61.5523 30.2279C58.1523 30.1279 54.6523 30.1279 51.1523 30.5279Z" fill="white"/>
<path d="M111.752 30.228C111.652 47.528 111.752 64.728 111.752 82.028C115.252 82.028 118.752 82.0281 122.252 82.1281C122.452 64.8281 122.252 47.628 122.352 30.328C118.852 30.228 115.352 30.228 111.752 30.228Z" fill="white"/>
<path d="M481.553 55.428C476.253 64.228 471.053 73.128 465.853 82.028C469.653 82.028 473.353 82.0281 477.153 82.1281C480.853 75.8281 484.453 69.428 487.653 62.928C491.053 69.328 494.553 75.628 497.853 82.028C501.853 82.128 505.953 82.128 510.053 82.028C504.853 73.128 499.553 64.228 494.253 55.328C498.753 46.928 504.653 39.128 508.353 30.328C504.753 30.728 501.253 30.3281 497.653 30.6281C493.453 35.5281 491.853 42.428 487.653 47.428C484.953 41.728 481.653 36.3281 478.853 30.6281C474.953 30.6281 471.153 30.528 467.353 30.228C471.153 39.028 477.053 46.928 481.553 55.428Z" fill="white"/>
<path d="M53.5527 11.728C61.0527 5.62798 70.0527 1.02801 79.7527 0.128009C87.0527 0.128009 94.5527 -0.672016 101.553 1.72798C111.853 5.02798 121.353 11.328 127.553 20.228L128.153 22.128C124.653 22.028 121.053 22.228 117.553 22.028C114.253 20.228 111.953 17.128 108.653 15.228C95.8527 6.82798 78.3527 6.62799 65.4527 14.828C61.9527 16.728 59.3527 19.928 55.9527 22.028C52.3527 22.328 48.6527 22.128 45.0527 22.028C46.6527 17.828 50.2527 14.728 53.5527 11.728Z" fill="#EC2024"/>
<path d="M538.152 12.0279C542.652 9.82795 548.052 7.72794 552.952 9.42794C557.552 11.9279 559.952 17.0279 562.852 21.2279C566.152 17.8279 567.752 12.0279 573.052 11.3279C580.052 11.5279 585.752 16.6279 590.152 21.7279C592.852 25.3279 596.252 29.7279 594.552 34.4279C592.652 38.7279 589.152 42.0279 586.552 45.9279C590.652 47.2279 595.552 47.4279 598.652 50.8279C601.552 55.9279 599.152 62.0279 597.052 66.9279C594.852 71.5279 592.052 76.2279 587.552 78.8279C581.752 80.8279 575.952 77.2279 570.552 75.4279C570.152 80.3279 572.552 87.3279 567.352 90.4279C561.352 93.3279 554.352 92.528 548.052 91.128C543.652 90.028 538.452 87.9279 537.352 83.0279C536.452 78.5279 536.952 73.9279 537.152 69.4279C532.252 70.7279 526.452 75.0279 521.852 71.0279C518.052 67.1279 516.652 61.5279 515.652 56.3279C515.152 51.3279 514.452 45.3279 518.152 41.4279C522.252 38.2279 527.652 37.628 532.452 36.128C530.052 31.928 524.552 28.4279 525.952 22.9279C528.052 17.7279 533.352 14.6279 538.152 12.0279ZM542.852 27.3279C541.152 28.3279 541.452 31.528 543.652 31.628C548.352 31.028 553.852 27.0279 557.952 31.2279C559.052 28.2279 560.452 25.3279 562.152 22.5279C555.452 21.9279 548.352 23.2279 542.852 27.3279ZM571.952 32.5279C574.252 35.9279 578.052 39.7279 575.652 44.0279C578.852 44.2279 581.952 44.7279 585.052 45.4279C583.652 38.3279 579.752 31.1279 573.152 27.7279C570.652 27.8279 570.752 31.1279 571.952 32.5279ZM543.352 45.0279C547.252 49.6279 549.452 55.8279 548.852 61.8279C554.652 59.7279 561.552 59.1279 567.052 62.2279C566.552 56.1279 568.152 49.528 572.552 45.128C566.652 43.728 560.952 40.0279 558.052 34.5279C554.552 39.5279 549.452 43.8279 543.352 45.0279ZM533.252 37.5279C531.752 41.6279 530.352 45.9279 530.652 50.3279C530.852 53.6279 531.152 57.5279 534.152 59.4279C539.352 55.8279 533.452 46.7279 540.352 44.0279C537.852 42.1279 535.652 39.7279 533.252 37.5279ZM569.052 64.628C569.752 67.728 570.152 70.9279 570.552 74.0279C575.952 70.7279 580.752 66.2279 582.952 60.2279C583.552 58.8279 583.152 57.2279 583.052 55.8279C576.552 55.4279 576.152 66.128 569.052 64.628ZM538.552 69.128C544.152 74.028 551.752 77.8279 559.352 76.128C559.252 74.628 559.552 72.6279 557.652 72.2279C553.752 70.4279 547.452 70.028 546.952 64.628C544.352 66.228 541.452 67.728 538.552 69.128Z" fill="#EC2024"/>
<path d="M80.0521 19.9281C83.4521 18.0281 86.9521 16.1281 90.4521 14.3281C90.4521 19.7281 90.4521 25.1281 90.4521 30.4281C94.0521 30.5281 97.5521 30.5281 101.152 30.5281C101.152 33.7281 101.152 36.9281 101.052 40.1281H90.4521C90.4521 49.1281 90.4521 58.0281 90.4521 67.0281C90.4521 69.1281 90.6521 71.6281 92.6521 72.8281C96.4521 74.0281 100.352 72.4281 103.652 70.5281C102.852 73.8281 102.052 77.2281 101.252 80.5281C96.7521 82.9281 91.0521 84.0281 86.3521 81.4281C81.9521 79.1281 79.9521 73.9281 80.0521 69.2281C80.0521 59.5281 79.9521 49.9281 80.1521 40.2281C77.1521 40.1281 74.1521 40.1281 71.1521 40.1281C71.1521 36.8281 70.7521 33.4281 71.6521 30.1281C74.4521 30.5281 77.2521 30.7281 80.0521 30.2281C80.0521 26.8281 80.0521 23.3281 80.0521 19.9281Z" fill="#104B84"/>
<path d="M139.152 19.928C142.552 18.028 145.952 16.128 149.552 14.428C149.652 21.328 149.552 28.228 149.552 35.128C153.752 31.628 158.952 28.928 164.552 29.428C171.852 29.328 178.552 34.128 181.452 40.728C184.952 48.528 185.352 57.528 183.652 65.828C181.852 73.728 175.852 80.928 167.752 82.628C161.252 84.428 154.552 81.728 149.552 77.528C149.552 79.028 149.552 80.528 149.552 82.028C146.052 82.028 142.552 82.028 139.152 82.028C139.152 61.328 139.152 40.628 139.152 19.928ZM149.552 45.128C149.552 52.528 149.552 59.828 149.552 67.228C152.252 69.928 155.452 72.528 159.352 73.428C164.152 74.828 169.852 72.828 172.152 68.328C175.252 62.628 174.952 55.828 173.852 49.628C172.852 44.628 169.252 39.328 163.752 39.128C158.152 38.028 153.152 41.228 149.552 45.128Z" fill="#104B84"/>
<path d="M3.45259 42.328C11.1526 27.828 34.6526 24.528 44.9526 38.028C44.1526 41.128 41.2526 43.128 39.3526 45.628C36.9526 43.428 34.3526 41.228 31.0526 40.328C24.0526 37.828 15.6526 41.528 12.4526 48.228C8.25259 56.428 11.4526 68.228 20.4526 71.628C27.1526 74.628 34.4526 71.628 39.4526 66.928C41.4526 69.328 43.3526 71.728 45.2526 74.228C41.1526 79.028 35.4526 82.528 29.0526 83.028C19.7526 83.728 9.65259 79.928 4.45259 71.928C-1.14741 63.328 -1.44741 51.428 3.45259 42.328Z" fill="#104B84"/>
<path d="M194.252 34.028C200.952 29.728 209.352 28.5279 217.152 29.7279C222.652 30.5279 228.252 33.5279 230.652 38.7279C232.252 41.6279 232.352 45.0279 232.452 48.2279C232.452 59.5279 232.452 70.828 232.452 82.028C228.952 82.028 225.552 82.028 222.052 82.028C222.052 80.328 221.952 78.728 221.952 77.028C214.852 84.128 202.552 85.3279 194.752 78.7279C189.352 74.2279 187.952 66.228 190.152 59.828C191.752 54.928 196.352 51.528 201.252 50.128C208.052 48.328 215.352 48.528 221.952 50.828C222.252 46.828 221.952 41.928 217.852 39.828C211.552 36.928 204.052 38.728 197.952 41.528C196.852 39.028 195.552 36.528 194.252 34.028ZM201.052 60.628C197.452 63.828 198.752 70.428 202.952 72.528C209.352 75.728 217.352 73.028 221.652 67.628C222.252 65.128 221.852 62.428 221.852 59.828C218.852 58.728 215.852 57.928 212.652 57.928C208.752 57.728 204.152 57.628 201.052 60.628Z" fill="#104B84"/>
<path d="M252.152 34.728C258.352 28.628 268.652 27.728 276.152 31.928C281.852 35.628 283.652 42.828 283.752 49.228C283.852 60.128 283.752 71.028 283.852 82.028C280.452 82.128 277.152 82.128 273.752 82.128C273.752 72.628 273.752 63.028 273.752 53.528C273.452 49.128 273.252 43.828 269.552 40.728C266.252 38.328 261.652 38.228 257.952 39.928C253.852 42.128 252.052 47.028 252.152 51.428C252.052 61.628 252.252 71.928 252.152 82.128C248.652 82.128 245.252 82.128 241.752 82.128C241.752 64.928 241.852 47.828 241.752 30.628C245.252 30.328 248.752 30.428 252.252 30.628C252.152 31.628 252.152 33.628 252.152 34.728Z" fill="#104B84"/>
<path d="M295.253 33.6279C303.753 29.2279 314.053 27.7279 323.053 31.1279C329.153 33.4279 333.353 39.5279 333.153 46.0279C333.253 58.0279 333.153 70.0279 333.153 82.0279H322.753C322.753 80.4279 322.753 78.8279 322.753 77.2279C318.653 80.6279 313.553 83.3279 308.053 83.2279C302.053 83.1279 295.753 80.5279 292.553 75.3279C289.353 69.7279 289.053 62.3279 292.553 56.8279C295.253 52.7279 300.053 50.4279 304.753 49.6279C310.753 48.4279 317.053 49.0279 322.853 50.8279C323.053 46.8279 322.753 41.8279 318.553 39.8279C312.153 37.0279 304.853 38.9279 298.753 41.5279C297.553 38.9279 296.253 36.3279 295.253 33.6279ZM306.453 58.2279C304.053 58.8279 301.653 60.2279 300.453 62.5279C298.853 66.2279 300.453 71.1279 304.253 72.7279C309.853 75.3279 316.553 73.4279 320.953 69.4279C323.953 67.2279 322.753 63.0279 322.553 59.9279C317.553 57.5279 311.753 57.5279 306.453 58.2279Z" fill="#104B84"/>
<path d="M352.852 34.8279C359.852 27.2279 374.152 27.3279 379.652 36.6279C382.752 33.0279 386.952 29.9279 391.852 29.6279C397.352 29.2279 403.652 29.2279 407.852 33.3279C412.252 37.8279 412.952 44.4279 413.152 50.4279C413.252 61.0279 413.152 71.5279 413.152 82.1279C409.752 82.1279 406.252 82.1279 402.852 82.1279C402.752 71.8279 402.952 61.6279 402.752 51.3279C402.552 47.1279 401.952 42.0279 397.852 39.7279C394.252 38.2279 389.652 38.2279 386.652 40.9279C383.652 43.9279 383.252 48.4279 383.252 52.4279C383.252 62.3279 383.252 72.1279 383.252 82.0279C379.752 82.0279 376.352 82.0279 372.852 82.0279C372.852 72.1279 372.852 62.2279 372.852 52.3279C372.752 48.4279 372.452 43.9279 369.752 40.9279C365.552 37.2279 357.952 37.9279 355.052 42.8279C353.152 45.9279 352.852 49.7279 352.852 53.3279C352.852 62.9279 352.852 72.4279 352.852 81.9279C349.352 81.9279 345.952 81.9279 342.452 81.9279C342.452 64.8279 342.452 47.6279 342.452 30.5279C345.952 30.4279 349.352 30.4279 352.852 30.4279C352.852 31.9279 352.852 33.3279 352.852 34.8279Z" fill="#104B84"/>
<path d="M424.552 39.0279C431.552 27.9279 449.052 25.8279 458.452 35.1279C464.852 41.5279 466.552 51.2279 465.652 59.9279C453.852 59.9279 441.952 60.0279 430.152 59.9279C430.752 64.7279 432.852 69.6279 437.152 72.1279C443.152 75.5279 450.652 73.5279 456.052 69.8279C457.952 72.0279 459.852 74.3279 461.752 76.5279C454.452 83.0279 443.252 85.3279 434.252 81.2279C427.252 78.2279 422.452 71.3279 420.952 64.0279C418.952 55.6279 419.952 46.3279 424.552 39.0279ZM434.152 42.2279C431.852 44.6279 431.152 47.9279 430.052 50.9279C432.952 51.9279 435.952 51.6279 438.952 51.6279C444.552 51.5279 450.152 51.7279 455.752 51.5279C455.252 48.8279 454.852 46.0279 453.152 43.7279C449.052 37.4279 438.952 36.6279 434.152 42.2279Z" fill="#104B84"/>
<path d="M51.1523 30.5279C54.6523 30.1279 58.0523 30.1279 61.5523 30.2279C61.9523 33.0279 62.0523 35.9279 61.9523 38.7279C61.3523 49.9279 62.3523 61.1279 61.7523 72.2279C61.5523 75.5279 61.7523 78.7279 61.9523 82.0279C58.3523 82.0279 54.7523 82.0279 51.1523 82.0279V30.5279Z" fill="#104B84"/>
<path d="M111.752 30.228C115.252 30.228 118.752 30.228 122.352 30.328C122.252 47.628 122.452 64.8281 122.252 82.1281C118.752 82.0281 115.252 82.028 111.752 82.028C111.752 64.728 111.752 47.528 111.752 30.228Z" fill="#104B84"/>
<path d="M481.553 55.428C477.053 46.928 471.253 39.028 467.353 30.228C471.153 30.528 475.053 30.6281 478.853 30.6281C481.753 36.3281 484.953 41.728 487.653 47.428C491.853 42.328 493.453 35.5281 497.653 30.6281C501.253 30.3281 504.753 30.728 508.353 30.328C504.653 39.128 498.753 46.928 494.253 55.328C499.553 64.228 504.853 73.128 510.053 82.028C505.953 82.128 501.953 82.128 497.853 82.028C494.553 75.628 491.053 69.228 487.653 62.928C484.453 69.528 480.853 75.8281 477.153 82.1281C473.353 82.0281 469.553 82.128 465.853 82.028C471.053 73.128 476.153 64.228 481.553 55.428Z" fill="#104B84"/>
</svg>
