<svg width="26" height="38" viewBox="0 0 26 38" fill="none" xmlns="http://www.w3.org/2000/svg">
<path d="M12.7784 0.600006C8.74224 0.600006 5.55472 1.79064 3.40648 3.99219C1.25824 6.19375 0.200234 9.34355 0.200234 13.0766C0.200234 14.622 0.892503 17.6009 1.45336 19.3656C1.21664 19.566 0.990619 19.6937 0.759609 20.0453C0.374592 20.6313 0.0886431 21.4669 0.204921 22.4563C0.205442 22.4563 0.205963 22.4563 0.206484 22.4563C0.395555 24.0606 0.900051 25.1462 1.39086 25.8313C1.74171 26.321 1.94695 26.4196 2.13617 26.5547C2.38591 27.9732 3.28396 29.6419 4.62211 31.3484C6.03658 33.1523 7.88734 34.8816 9.92211 35.8484C10.6552 36.7654 11.7398 37.4 13.0002 37.4C14.26 37.4 15.3435 36.7659 16.0768 35.85C18.1066 34.8819 19.9466 33.1486 21.3518 31.3438C22.6787 29.6394 23.5675 27.9734 23.8174 26.5594C24.0122 26.4249 24.2133 26.3336 24.5659 25.8531C25.0646 25.1734 25.5777 24.0906 25.7674 22.4844C25.8841 21.4917 25.5918 20.6522 25.2034 20.0609C24.9696 19.705 24.741 19.5723 24.5018 19.3688C25.0632 17.5845 25.8002 14.8288 25.8002 11.8C25.8002 10.4079 25.5118 8.50653 24.5705 6.85001C23.6885 5.29757 22.0956 4.02085 19.8362 3.86094C18.8122 2.29761 16.5899 0.600006 12.7784 0.600006ZM12.7784 2.20001C16.3748 2.20001 18.0918 3.87266 18.6971 4.98282C18.766 5.10916 18.8676 5.21459 18.9914 5.288C19.1151 5.36142 19.2564 5.40012 19.4002 5.40001C21.3547 5.40001 22.4358 6.33375 23.1784 7.64063C23.9209 8.94751 24.2002 10.6457 24.2002 11.8C24.2002 14.7658 23.3983 17.6777 22.8549 19.3422C22.7926 19.5345 22.8055 19.7433 22.8909 19.9266C22.0227 20.6939 21.0788 21.3711 20.1221 21.9734L20.0768 21.9422C20.0539 21.975 20.0366 22.0093 20.0143 22.0422C19.3407 22.4611 18.6634 22.8506 18.0002 23.1734C16.0812 24.1076 14.2623 24.6 13.2487 24.6C12.1507 24.6 10.2505 24.1273 8.24242 23.2297C6.48655 22.4449 4.62573 21.3459 3.01586 20.0141C3.07903 19.913 3.11883 19.7991 3.13234 19.6807C3.14586 19.5623 3.13275 19.4424 3.09398 19.3297C2.60986 17.9337 1.80023 14.1009 1.80023 13.0766C1.80023 9.64239 2.75144 6.95442 4.5518 5.10938C6.35216 3.26434 9.05208 2.20001 12.7784 2.20001ZM18.958 8.29063C18.9471 8.29145 18.9361 8.29249 18.9252 8.29376C18.9127 8.29502 18.9002 8.29659 18.8877 8.29844C18.8846 8.29895 18.8815 8.29947 18.8784 8.30001C18.7388 8.32022 18.607 8.37696 18.4964 8.4645C18.3859 8.55203 18.3004 8.66724 18.2487 8.79844C18.2113 8.87274 17.8877 9.49957 16.9971 10.2313C16.0526 11.0072 14.5565 11.8 12.2002 11.8C10.7003 11.8 8.83265 11.8109 7.21273 12.3969C6.40277 12.6899 5.63918 13.1423 5.07992 13.8453C4.52067 14.5484 4.20023 15.4876 4.20023 16.6C4.19873 16.706 4.21832 16.8113 4.25785 16.9096C4.29738 17.008 4.35607 17.0976 4.43051 17.173C4.50494 17.2485 4.59364 17.3085 4.69144 17.3494C4.78925 17.3903 4.89421 17.4114 5.00023 17.4114C5.10625 17.4114 5.21122 17.3903 5.30902 17.3494C5.40683 17.3085 5.49553 17.2485 5.56996 17.173C5.6444 17.0976 5.70309 17.008 5.74262 16.9096C5.78215 16.8113 5.80173 16.706 5.80023 16.6C5.80023 15.7788 6.0073 15.2517 6.33305 14.8422C6.65879 14.4327 7.13845 14.1252 7.75648 13.9016C8.99257 13.4544 10.7241 13.4 12.2002 13.4C14.924 13.4 16.8272 12.4428 18.0127 11.4688C18.42 11.1342 18.7222 10.8056 18.9784 10.5C19.753 11.7427 21.0002 14.1171 21.0002 16.6C20.9987 16.706 21.0183 16.8113 21.0579 16.9096C21.0974 17.008 21.1561 17.0976 21.2305 17.173C21.3049 17.2485 21.3936 17.3085 21.4914 17.3494C21.5893 17.3903 21.6942 17.4114 21.8002 17.4114C21.9063 17.4114 22.0112 17.3903 22.109 17.3494C22.2068 17.3085 22.2955 17.2485 22.37 17.173C22.4444 17.0976 22.5031 17.008 22.5426 16.9096C22.5821 16.8113 22.6017 16.706 22.6002 16.6C22.6002 12.4865 20.0018 9.08915 19.7237 8.73594C19.6541 8.59457 19.5443 8.4769 19.4081 8.39768C19.2719 8.31846 19.1153 8.28122 18.958 8.29063ZM8.60023 19.8C8.28197 19.8 7.97675 19.9264 7.75171 20.1515C7.52666 20.3765 7.40023 20.6817 7.40023 21C7.40023 21.3183 7.52666 21.6235 7.75171 21.8485C7.97675 22.0736 8.28197 22.2 8.60023 22.2C8.91849 22.2 9.22372 22.0736 9.44876 21.8485C9.67381 21.6235 9.80023 21.3183 9.80023 21C9.80023 20.6817 9.67381 20.3765 9.44876 20.1515C9.22372 19.9264 8.91849 19.8 8.60023 19.8ZM17.4002 19.8C17.082 19.8 16.7768 19.9264 16.5517 20.1515C16.3267 20.3765 16.2002 20.6817 16.2002 21C16.2002 21.3183 16.3267 21.6235 16.5517 21.8485C16.7768 22.0736 17.082 22.2 17.4002 22.2C17.7185 22.2 18.0237 22.0736 18.2488 21.8485C18.4738 21.6235 18.6002 21.3183 18.6002 21C18.6002 20.6817 18.4738 20.3765 18.2488 20.1515C18.0237 19.9264 17.7185 19.8 17.4002 19.8ZM23.9643 21.1125C24.1313 21.4218 24.2376 21.7949 24.1784 22.2984C24.0175 23.6575 23.6103 24.4518 23.2768 24.9063C22.9431 25.361 22.7596 25.4359 22.7596 25.4359C22.6435 25.4973 22.5443 25.5862 22.4708 25.695C22.3972 25.8037 22.3515 25.9288 22.3377 26.0594C22.2616 26.7848 21.5164 28.3811 20.3862 29.9391C20.0534 27.7042 19.9504 25.2265 21.1737 23.2C22.1346 22.5825 23.0814 21.8953 23.9643 21.1125ZM1.94398 21.2C2.71063 21.8394 3.52167 22.4248 4.3518 22.9516C5.67346 24.9202 5.65517 27.3736 5.3518 29.6125C4.34666 28.1615 3.68765 26.731 3.61742 26.0594C3.60373 25.9314 3.55937 25.8086 3.48811 25.7015C3.41684 25.5943 3.32077 25.5059 3.20805 25.4438C3.20805 25.4438 3.02461 25.3637 2.69242 24.9C2.36023 24.4363 1.95451 23.6309 1.79398 22.2688H1.79555C1.743 21.8217 1.81499 21.481 1.94398 21.2ZM6.71742 24.2625C7.00859 24.4062 7.30139 24.5619 7.5893 24.6906C9.73759 25.6509 11.7331 26.2 13.2487 26.2C14.7238 26.2 16.6386 25.6152 18.7018 24.6109C18.7633 24.581 18.826 24.5417 18.8877 24.5109C18.2133 27.0114 18.668 29.6045 19.0362 31.5938C17.9094 32.7973 16.6018 33.8564 15.3221 34.4516C15.1896 34.5137 15.0766 34.611 14.9955 34.7328C14.5639 35.3772 13.8384 35.8 13.0002 35.8C12.1627 35.8 11.4381 35.3782 11.0065 34.7344C10.925 34.6123 10.8115 34.515 10.6784 34.4531C9.29321 33.8123 7.88524 32.626 6.69398 31.3063C7.06303 29.2857 7.45889 26.7246 6.71742 24.2625Z" fill="black"/>
</svg>
