<svg width="33" height="40" viewBox="0 0 33 40" fill="none" xmlns="http://www.w3.org/2000/svg">
<path d="M16.5 0.800003C12.223 0.800003 8.34952 1.43003 5.475 2.48907C4.03774 3.01858 2.84676 3.65241 1.96875 4.41719C1.09074 5.18197 0.5 6.13342 0.5 7.2C0.5 7.96317 0.806274 8.6653 1.3 9.28438V30.7891C0.836464 31.385 0.5 32.0543 0.5 32.8C0.5 33.8666 1.09072 34.818 1.96875 35.5828C2.84678 36.3476 4.03772 36.9814 5.475 37.5109C8.34956 38.57 12.2232 39.2 16.5 39.2C20.7768 39.2 24.6504 38.57 27.525 37.5109C28.9623 36.9814 30.1532 36.3476 31.0312 35.5828C31.9093 34.818 32.5 33.8666 32.5 32.8C32.5 32.0543 32.1635 31.385 31.7 30.7891V9.28438C32.1937 8.6653 32.5 7.96317 32.5 7.2C32.5 6.13342 31.9093 5.18197 31.0312 4.41719C30.1532 3.65241 28.9623 3.01858 27.525 2.48907C24.6505 1.43003 20.777 0.800003 16.5 0.800003ZM16.5 2.4C20.6177 2.4 24.3451 3.02286 26.9719 3.99063C28.2853 4.47451 29.3194 5.04827 29.9797 5.62344C30.64 6.19861 30.9 6.72019 30.9 7.2C30.9 7.67982 30.64 8.2014 29.9797 8.77657C29.3194 9.35173 28.2853 9.92549 26.9719 10.4094C24.3451 11.3771 20.6177 12 16.5 12C12.3823 12 8.65492 11.3771 6.02813 10.4094C4.71473 9.92549 3.68063 9.35173 3.02031 8.77657C2.36 8.2014 2.1 7.67982 2.1 7.2C2.1 6.72019 2.36 6.19861 3.02031 5.62344C3.68063 5.04827 4.71473 4.47451 6.02813 3.99063C8.65492 3.02286 12.3823 2.4 16.5 2.4ZM14.8984 4C13.9246 4 12.3472 4.20412 10.9484 4.40313C9.54966 4.60213 8.36562 4.8 8.36562 4.8L8.40313 4.79532C7.14244 4.94726 6.1 5.93823 6.1 7.19844V7.20157C6.1 8.46178 7.14199 9.45379 8.40313 9.60469C8.4342 9.60981 9.59399 9.80061 10.9859 9.99688C12.3964 10.1957 13.9668 10.4 14.8984 10.4H15.2984C16.8354 10.4 18.0984 9.13695 18.0984 7.6V6.8C18.0984 5.26305 16.8354 4 15.2984 4H14.8984ZM14.8984 5.6H15.2984C15.9711 5.6 16.4984 6.12735 16.4984 6.8V7.6C16.4984 8.27265 15.9711 8.8 15.2984 8.8H14.8984C14.3922 8.8 13.3235 8.68064 12.2359 8.54219C12.3852 8.16593 12.4984 7.72051 12.4984 7.2C12.4984 6.67715 12.3831 6.23038 12.2328 5.85313C13.3016 5.71699 14.3549 5.6 14.8984 5.6ZM10.5938 6.07657C10.7388 6.29987 10.8984 6.65727 10.8984 7.2C10.8984 7.73835 10.741 8.09486 10.5969 8.31875C9.65142 8.17765 8.62813 8.02032 8.62813 8.02032C8.6167 8.0185 8.60524 8.01694 8.59375 8.01563C8.02289 7.94736 7.7 7.56536 7.7 7.20157V7.19844C7.7 6.83465 8.02244 6.45323 8.59375 6.38438C8.6063 6.38259 8.6188 6.38051 8.63125 6.37813C8.63125 6.37813 9.64373 6.21959 10.5938 6.07657ZM2.9 10.6641C3.63184 11.1331 4.49074 11.5483 5.475 11.9109C8.34952 12.97 12.223 13.6 16.5 13.6C20.777 13.6 24.6505 12.97 27.525 11.9109C28.5093 11.5483 29.3682 11.1331 30.1 10.6641V31.0172C30.1001 31.2167 30.1748 31.409 30.3094 31.5563C30.7304 32.0175 30.9 32.4228 30.9 32.8C30.9 33.2798 30.64 33.8014 29.9797 34.3766C29.3193 34.9517 28.2853 35.5255 26.9719 36.0094C24.345 36.9771 20.6176 37.6 16.5 37.6C12.3824 37.6 8.65497 36.9771 6.02813 36.0094C4.7147 35.5255 3.68066 34.9517 3.02031 34.3766C2.35997 33.8014 2.1 33.2798 2.1 32.8C2.1 32.4228 2.26959 32.0175 2.69062 31.5563C2.82519 31.409 2.89986 31.2167 2.9 31.0172V10.6641ZM16.5 16.8C14.8394 16.8 13.1925 17.0143 11.9109 17.3391C11.2701 17.5015 10.7245 17.6853 10.2797 17.9203C10.0573 18.0378 9.85601 18.1658 9.67344 18.3516C9.49087 18.5373 9.3 18.8232 9.3 19.2V21.85C9.05667 21.9369 8.78667 22.0066 8.58125 22.1188C8.39276 22.2217 8.22008 22.3333 8.05625 22.4984C7.89242 22.6636 7.7 22.918 7.7 23.3C7.70029 23.3424 7.70394 23.3847 7.71094 23.4266L9.11094 32.1266C9.11415 32.1491 9.11832 32.1715 9.12344 32.1938C9.2883 32.8532 9.7513 33.0761 10.2141 33.3047C10.6768 33.5333 11.2404 33.7173 11.8922 33.8766C13.1957 34.1952 14.8425 34.4 16.5 34.4C18.1575 34.4 19.8043 34.1952 21.1078 33.8766C21.7596 33.7173 22.3232 33.5333 22.7859 33.3047C23.2487 33.0761 23.7117 32.8532 23.8766 32.1938C23.8817 32.1715 23.8859 32.1491 23.8891 32.1266L25.2891 23.4266C25.2961 23.3847 25.2997 23.3424 25.3 23.3C25.3 22.918 25.1076 22.6636 24.9438 22.4984C24.7799 22.3333 24.6072 22.2217 24.4188 22.1188C24.2133 22.0066 23.9433 21.9369 23.7 21.85V19.2C23.7 18.8232 23.5091 18.5373 23.3266 18.3516C23.144 18.1658 22.9427 18.0378 22.7203 17.9203C22.2755 17.6853 21.7299 17.5015 21.0891 17.3391C19.8075 17.0143 18.1606 16.8 16.5 16.8ZM16.5 18.4C18.0202 18.4 19.5737 18.6044 20.6969 18.8891C21.2585 19.0314 21.7153 19.1995 21.9734 19.3359C22.051 19.3769 22.0643 19.3927 22.1 19.4188V22.4C22.0999 22.5774 22.1588 22.7498 22.2674 22.8901C22.3761 23.0304 22.5282 23.1306 22.7 23.175C23.0983 23.2778 23.4517 23.4127 23.6516 23.5219C23.6534 23.5229 23.6528 23.5224 23.6547 23.5234L22.3406 31.6891C22.321 31.7002 22.2523 31.7843 22.0781 31.8703C21.7816 32.0168 21.3038 32.1827 20.7281 32.3234C19.5768 32.6048 18.0233 32.8 16.5 32.8C14.9767 32.8 13.4232 32.6048 12.2719 32.3234C11.6962 32.1827 11.2184 32.0168 10.9219 31.8703C10.7477 31.7843 10.679 31.7002 10.6594 31.6891L9.34531 23.5234C9.34715 23.5224 9.3466 23.5229 9.34844 23.5219C9.54827 23.4128 9.90173 23.2778 10.3 23.175C10.4718 23.1306 10.6239 23.0304 10.7326 22.8901C10.8412 22.7498 10.9001 22.5774 10.9 22.4V19.4188C10.9357 19.3927 10.949 19.3769 11.0266 19.3359C11.2847 19.1995 11.7415 19.0314 12.3031 18.8891C13.4263 18.6044 14.9798 18.4 16.5 18.4ZM12.5 24.8C12.394 24.7985 12.2887 24.8181 12.1904 24.8576C12.092 24.8972 12.0025 24.9558 11.927 25.0303C11.8515 25.1047 11.7915 25.1934 11.7506 25.2912C11.7097 25.389 11.6886 25.494 11.6886 25.6C11.6886 25.706 11.7097 25.811 11.7506 25.9088C11.7915 26.0066 11.8515 26.0953 11.927 26.1697C12.0025 26.2442 12.092 26.3029 12.1904 26.3424C12.2887 26.3819 12.394 26.4015 12.5 26.4H20.5C20.606 26.4015 20.7113 26.3819 20.8096 26.3424C20.908 26.3029 20.9975 26.2442 21.073 26.1697C21.1485 26.0953 21.2085 26.0066 21.2494 25.9088C21.2903 25.811 21.3114 25.706 21.3114 25.6C21.3114 25.494 21.2903 25.389 21.2494 25.2912C21.2085 25.1934 21.1485 25.1047 21.073 25.0303C20.9975 24.9558 20.908 24.8972 20.8096 24.8576C20.7113 24.8181 20.606 24.7985 20.5 24.8H12.5ZM14.1 28C13.994 27.9985 13.8887 28.0181 13.7904 28.0576C13.692 28.0972 13.6025 28.1558 13.527 28.2303C13.4515 28.3047 13.3915 28.3934 13.3506 28.4912C13.3097 28.589 13.2886 28.694 13.2886 28.8C13.2886 28.906 13.3097 29.011 13.3506 29.1088C13.3915 29.2066 13.4515 29.2953 13.527 29.3697C13.6025 29.4442 13.692 29.5029 13.7904 29.5424C13.8887 29.5819 13.994 29.6015 14.1 29.6H18.9C19.006 29.6015 19.1113 29.5819 19.2096 29.5424C19.308 29.5029 19.3975 29.4442 19.473 29.3697C19.5485 29.2953 19.6085 29.2066 19.6494 29.1088C19.6903 29.011 19.7114 28.906 19.7114 28.8C19.7114 28.694 19.6903 28.589 19.6494 28.4912C19.6085 28.3934 19.5485 28.3047 19.473 28.2303C19.3975 28.1558 19.308 28.0972 19.2096 28.0576C19.1113 28.0181 19.006 27.9985 18.9 28H14.1Z" fill="black"/>
</svg>
