<svg width="25" height="38" viewBox="0 0 25 38" fill="none" xmlns="http://www.w3.org/2000/svg">
<path d="M11.3998 0.600006C10.1623 0.600006 9.1436 1.56563 9.02485 2.77501C8.93422 2.73751 8.8811 2.71251 8.77485 2.67501C8.0936 2.43438 7.0936 2.20001 5.79985 2.20001C3.5811 2.20001 1.49985 3.05001 1.49985 3.05001C1.08422 3.21563 0.884221 3.68438 1.04985 4.10001C1.21547 4.51563 1.68422 4.71563 2.09985 4.55001C2.09985 4.55001 4.00297 3.80001 5.79985 3.80001C6.9061 3.80001 7.72485 3.99063 8.24985 4.17501C8.77485 4.35938 8.94985 4.50001 8.94985 4.50001C8.96547 4.50938 8.98422 4.51876 8.99985 4.52501V6.20001C8.99985 6.64063 9.35922 7.00001 9.79985 7.00001H10.5998V7.80001H9.79985C8.48422 7.80001 7.39985 8.88438 7.39985 10.2V11.8C4.31547 11.8 1.79985 14.3156 1.79985 17.4V35.8C1.79985 36.675 2.52485 37.4 3.39985 37.4H22.5998C23.4748 37.4 24.1998 36.675 24.1998 35.8V17.4C24.1998 14.3156 21.6842 11.8 18.5998 11.8V10.2C18.5998 8.88438 17.5155 7.80001 16.1998 7.80001H15.3998V7.00001H16.1998C16.6405 7.00001 16.9998 6.64063 16.9998 6.20001V3.00001C16.9998 1.68438 15.9155 0.600006 14.5998 0.600006H11.3998ZM11.3998 2.20001H14.5998C15.053 2.20001 15.3998 2.54688 15.3998 3.00001V5.40001H14.7498C14.6436 5.37813 14.5311 5.37813 14.4248 5.40001H11.5498C11.4436 5.37813 11.3311 5.37813 11.2248 5.40001H10.5998V3.00001C10.5998 2.54688 10.9467 2.20001 11.3998 2.20001ZM12.1998 7.00001H13.7998V7.80001H12.1998V7.00001ZM9.79985 9.40001H16.1998C16.653 9.40001 16.9998 9.74688 16.9998 10.2V11.8H8.99985V10.2C8.99985 9.74688 9.34672 9.40001 9.79985 9.40001ZM7.39985 13.4H18.5998C20.8186 13.4 22.5998 15.1813 22.5998 17.4V35.8H3.39985V17.4C3.39985 15.1813 5.1811 13.4 7.39985 13.4Z" fill="black"/>
</svg>
