<svg width="66" height="66" viewBox="0 0 33 66" fill="none" xmlns="http://www.w3.org/2000/svg">
<path d="M35.49 44.8C35.49 47.0867 34.8833 49.1867 33.67 51.1C32.5033 52.9667 30.7067 54.5067 28.28 55.72C25.8533 56.9333 22.8433 57.61 19.25 57.75V65.8H16.66V57.75C13.2533 57.61 10.0333 56.9333 7 55.72C4.01333 54.5067 1.68 52.9667 0 51.1L1.61 48.44C3.24333 50.12 5.41333 51.5433 8.12 52.71C10.8267 53.83 13.6733 54.46 16.66 54.6V34.3C13.44 33.5067 10.78 32.6667 8.68 31.78C6.58 30.8933 4.83 29.5867 3.43 27.86C2.03 26.1333 1.33 23.87 1.33 21.07C1.33 17.57 2.61333 14.6067 5.18 12.18C7.79333 9.75333 11.62 8.4 16.66 8.12V0H19.25V8.05C21.91 8.14334 24.4767 8.58667 26.95 9.38C29.47 10.1267 31.64 11.1533 33.46 12.46L32.13 15.33C30.2167 14.0233 28.14 13.0433 25.9 12.39C23.66 11.69 21.4433 11.2933 19.25 11.2V31.5C22.7967 32.3867 25.6433 33.25 27.79 34.09C29.9367 34.93 31.7567 36.2133 33.25 37.94C34.7433 39.62 35.49 41.9067 35.49 44.8ZM4.9 21C4.9 23.8467 5.90333 25.97 7.91 27.37C9.91667 28.7233 12.8333 29.89 16.66 30.87V11.27C12.7867 11.55 9.84667 12.6 7.84 14.42C5.88 16.1933 4.9 18.3867 4.9 21ZM19.25 54.6C23.45 54.4133 26.6 53.4333 28.7 51.66C30.8467 49.8867 31.92 47.67 31.92 45.01C31.92 42.9567 31.36 41.3 30.24 40.04C29.12 38.7333 27.6967 37.73 25.97 37.03C24.2433 36.33 22.0033 35.63 19.25 34.93V54.6Z" fill="black"/>
</svg>
