<svg width="40" height="40" viewBox="0 0 40 40" fill="none" xmlns="http://www.w3.org/2000/svg">
<path d="M37.15 -0.024955C37.0156 -0.031205 36.8781 -0.018705 36.75 4.49996e-05C36.2125 0.075045 35.75 0.337545 35.425 0.825045L35.4 0.875045L35.375 0.900045L28.525 13.775C27.7531 13.4875 26.9875 13.3188 26.275 13.3C25.5063 13.2813 24.7812 13.4 24.125 13.675C22.8594 14.2032 21.9031 15.2375 21.275 16.55C21.2469 16.5907 21.2219 16.6313 21.2 16.675C21.1969 16.6813 21.2031 16.6938 21.2 16.7C21.1906 16.7157 21.1813 16.7344 21.175 16.75C21.1656 16.7813 21.1562 16.8157 21.15 16.85C20.7156 17.9344 20.2156 18.9094 19.65 19.775C19.6438 19.7844 19.6313 19.7907 19.625 19.8C19.5531 19.8625 19.4938 19.9407 19.45 20.025C19.4469 20.0313 19.4531 20.0438 19.45 20.05C19.4219 20.0907 19.3969 20.1313 19.375 20.175C17.4656 22.9094 14.9781 24.5563 12.625 25.575C9.41875 26.9625 6.35 27.1094 5.675 27.05C5.35313 27.0188 5.04375 27.1813 4.89062 27.4657C4.74062 27.75 4.77188 28.1 4.975 28.35C14.0906 39.6 27.5 40 27.5 40C27.6594 40.0032 27.8156 39.9594 27.95 39.875C27.95 39.875 29.6063 38.825 31.6 36.325C33.0969 34.4469 34.8031 31.7313 36.275 27.975C36.2844 27.9657 36.2906 27.9594 36.3 27.95C36.4844 27.7782 36.5781 27.5282 36.55 27.275C36.55 27.2657 36.55 27.2594 36.55 27.25C36.9375 26.2032 37.3125 25.1032 37.65 23.9C37.6625 23.85 37.6719 23.8 37.675 23.75C37.675 23.7407 37.675 23.7344 37.675 23.725C38.7406 20.975 37.5531 17.9469 35 16.625L39.95 2.90005V2.87505L39.975 2.85004C40.1375 2.2813 39.95 1.73442 39.65 1.30005C39.3656 0.89067 38.95 0.568795 38.45 0.350045V0.325045C38.4344 0.318795 38.4156 0.331295 38.4 0.325045C38.3906 0.32192 38.3844 0.30317 38.375 0.300045C37.9844 0.11567 37.5563 -0.00933004 37.15 -0.024955ZM37.05 1.65005C37.2313 1.62192 37.4688 1.62192 37.725 1.75005L37.75 1.77505H37.775C38.0344 1.87817 38.25 2.05317 38.35 2.20005C38.45 2.34692 38.4219 2.43442 38.425 2.42505L33.55 15.95C32.9625 15.6844 32.5563 15.4969 31.725 15.125C31.1063 14.8469 30.5188 14.5782 30 14.35L36.75 1.72505C36.7438 1.7313 36.8688 1.67817 37.05 1.65005ZM3.2 6.40004C1.44062 6.40004 0 7.84067 0 9.60005C0 11.3594 1.44062 12.8 3.2 12.8C4.95938 12.8 6.4 11.3594 6.4 9.60005C6.4 7.84067 4.95938 6.40004 3.2 6.40004ZM3.2 8.00004C4.09375 8.00004 4.8 8.7063 4.8 9.60005C4.8 10.4938 4.09375 11.2 3.2 11.2C2.30625 11.2 1.6 10.4938 1.6 9.60005C1.6 8.7063 2.30625 8.00004 3.2 8.00004ZM10.4 8.80005C9.51562 8.80005 8.8 9.51567 8.8 10.4C8.8 11.2844 9.51562 12 10.4 12C11.2844 12 12 11.2844 12 10.4C12 9.51567 11.2844 8.80005 10.4 8.80005ZM9.2 14.4C6.77812 14.4 4.8 16.3782 4.8 18.8C4.8 21.2219 6.77812 23.2 9.2 23.2C11.6219 23.2 13.6 21.2219 13.6 18.8C13.6 16.3782 11.6219 14.4 9.2 14.4ZM26.25 14.9C26.8063 14.9157 27.4156 15.0282 28.1 15.3C28.1156 15.3094 28.1344 15.3188 28.15 15.325C28.3313 15.6094 28.6719 15.75 29 15.675C29.0906 15.7125 29.0813 15.7094 29.175 15.75C29.7156 15.9844 30.3969 16.2719 31.075 16.575C32.0688 17.0188 32.6969 17.2907 33.275 17.55C33.2906 17.5688 33.3063 17.5844 33.325 17.6C33.4969 17.8375 33.7844 17.9625 34.075 17.925C34.0844 17.925 34.0906 17.925 34.1 17.925C36.0125 18.8 36.8563 20.8844 36.2 22.9C35.8844 22.8907 35.6437 22.9063 35.05 22.775C34.6063 22.6782 34.175 22.5219 33.85 22.325C33.525 22.1282 33.3375 21.9344 33.25 21.675C33.1813 21.45 33.0156 21.2688 32.7969 21.1782C32.5812 21.0844 32.3344 21.0938 32.125 21.2C31.8563 21.3344 31.1781 21.2844 30.575 20.975C30.275 20.8219 30.0063 20.6063 29.825 20.425C29.6438 20.2438 29.5938 20.0719 29.6 20.1C29.5563 19.8657 29.4125 19.6625 29.2031 19.5469C28.9969 19.4313 28.7469 19.4157 28.525 19.5C28.5031 19.5094 28.2375 19.5344 27.925 19.475C27.6125 19.4157 27.25 19.2875 26.9 19.125C26.55 18.9625 26.2281 18.7657 26.025 18.6C25.8219 18.4344 25.8031 18.2625 25.825 18.475C25.7719 18.0532 25.4 17.7438 24.975 17.775C24.1719 17.85 23.4188 17.2594 22.975 16.875C23.4438 16.0844 24.025 15.4532 24.75 15.15C25.1938 14.9657 25.6938 14.8844 26.25 14.9ZM9.2 16C10.7563 16 12 17.2438 12 18.8C12 20.3563 10.7563 21.6 9.2 21.6C7.64375 21.6 6.4 20.3563 6.4 18.8C6.4 17.2438 7.64375 16 9.2 16ZM22.25 18.375C22.8063 18.775 23.5781 19.1907 24.5 19.275C24.6469 19.4907 24.8063 19.6657 25 19.825C25.3469 20.1125 25.775 20.3657 26.225 20.575C26.675 20.7844 27.1469 20.9594 27.625 21.05C27.8719 21.0969 28.125 21.0032 28.375 21C28.4938 21.1813 28.5469 21.4219 28.7 21.575C29.025 21.9 29.4125 22.175 29.85 22.4C30.5 22.7344 31.2812 22.85 32.05 22.75C32.3125 23.1438 32.6281 23.475 33 23.7C33.5469 24.0282 34.1437 24.2282 34.7 24.35C35.0906 24.4344 35.4469 24.4719 35.775 24.5C35.5531 25.2188 35.3125 25.8938 35.075 26.55C34.7875 26.5407 34.4344 26.525 34.05 26.45C33.175 26.2813 32.3469 25.8938 32 25.225C31.8125 24.875 31.3969 24.7157 31.025 24.85C30.6281 24.9907 29.9094 24.9313 29.3 24.65C28.6906 24.3688 28.2281 23.8813 28.125 23.525C28.0594 23.3094 27.9031 23.1313 27.6969 23.0375C27.4938 22.9407 27.2594 22.9375 27.05 23.025C26.8563 23.1063 26.1 23.0844 25.475 22.8C24.85 22.5157 24.4469 22.0375 24.4 21.775C24.3594 21.5532 24.2281 21.3625 24.0375 21.2438C23.8469 21.125 23.6156 21.0907 23.4 21.15C22.6438 21.3532 22.0531 21.0844 21.575 20.725C21.4094 20.6032 21.2875 20.4688 21.175 20.35C21.5625 19.7344 21.9219 19.0813 22.25 18.375ZM20.25 21.675C20.3688 21.7844 20.4813 21.8907 20.625 22C21.2156 22.4438 22.125 22.7594 23.15 22.7C23.5219 23.3969 24.125 23.9313 24.825 24.25C25.5156 24.5657 26.2531 24.6657 26.975 24.575C27.375 25.2282 27.9313 25.7813 28.625 26.1C29.3656 26.4407 30.1969 26.5282 31 26.4C31.7469 27.3344 32.8094 27.8438 33.75 28.025C34 28.0719 34.2469 28.1032 34.475 28.125C33.1437 31.3407 31.6531 33.6938 30.35 35.325C28.6813 37.4157 27.5531 38.2063 27.3 38.375C27.0156 38.3625 24.9313 38.2157 22 37.4C22.2406 37.2438 22.5 37.0813 22.775 36.875C24.1094 35.875 25.8563 34.2438 27.55 31.725C27.7281 31.4657 27.7406 31.1282 27.5781 30.8594C27.4156 30.5875 27.1125 30.4375 26.8 30.475C26.5656 30.5 26.3563 30.6282 26.225 30.825C24.6375 33.1875 23.0031 34.7 21.8 35.6C20.6562 36.4563 19.9938 36.7219 19.925 36.75C18.125 36.1157 16.1313 35.2469 14.1 34.025C14.3938 33.9282 14.7063 33.8 15.05 33.65C16.5688 32.9875 18.6 31.75 20.675 29.425C20.925 29.175 20.9813 28.7907 20.8156 28.4813C20.6469 28.1688 20.2969 28.0032 19.95 28.075C19.7656 28.1063 19.5969 28.2063 19.475 28.35C17.55 30.5032 15.7469 31.5969 14.425 32.175C13.1031 32.7532 12.35 32.8 12.35 32.8C12.3156 32.8063 12.2813 32.8157 12.25 32.825C10.5906 31.6563 8.93438 30.2344 7.375 28.525C8.89688 28.4063 10.8563 28.0969 13.275 27.05C15.6625 26.0157 18.2094 24.3282 20.25 21.675Z" fill="black"/>
</svg>
