<svg width="66" height="62" viewBox="0 0 66 62" fill="none" xmlns="http://www.w3.org/2000/svg">
<path d="M16.2 0.200012C7.7088 0.203087 0.801535 7.14011 0.799999 15.6602V15.6629C0.802701 16.9122 0.802617 45.3611 0.799999 46.3344V46.3371C0.801539 50.5957 2.52486 54.47 5.30898 57.2664C8.09293 60.0625 11.9546 61.7985 16.2 61.8C21.4551 61.8 26.1052 59.155 28.8848 55.1227C32.7193 59.2206 38.1569 61.8 44.2 61.8C55.7814 61.8 65.2 52.3814 65.2 40.8C65.2 29.2186 55.7814 19.8 44.2 19.8C39.4695 19.8 35.1144 21.39 31.6 24.0383C31.5989 21.0674 31.5979 16.6245 31.6 15.6629V15.6602C31.5985 7.14 24.6899 0.203087 16.2 0.200012ZM16.2 3.00001C23.1707 3.00253 28.7972 8.64456 28.8 15.6574C28.7973 16.9362 28.7974 25.2211 28.8 26.5703C27.9184 27.5238 27.1256 28.5604 26.4293 29.6629C26.2903 29.6198 26.1455 29.5985 26 29.6H3.6C3.59987 22.9536 3.60131 16.2654 3.6 15.6574C3.60276 8.64439 9.22773 3.00254 16.2 3.00001ZM44.2 22.6C54.2682 22.6 62.4 30.7318 62.4 40.8C62.4 50.8682 54.2682 59 44.2 59C34.1318 59 26 50.8682 26 40.8C26 30.7318 34.1318 22.6 44.2 22.6ZM54.0711 29.4879C53.7074 29.4987 53.3622 29.6508 53.1086 29.9117L33.3117 49.7086C33.1774 49.8376 33.0701 49.9921 32.9962 50.1631C32.9223 50.3341 32.8833 50.5181 32.8814 50.7043C32.8795 50.8906 32.9148 51.0754 32.9852 51.2478C33.0556 51.4202 33.1597 51.5769 33.2914 51.7086C33.4231 51.8403 33.5798 51.9444 33.7522 52.0148C33.9247 52.0852 34.1094 52.1205 34.2957 52.1186C34.4819 52.1167 34.6659 52.0777 34.8369 52.0038C35.0079 51.9299 35.1624 51.8227 35.2914 51.6883L55.0883 31.8914C55.2906 31.6948 55.4288 31.4416 55.4847 31.1651C55.5406 30.8885 55.5117 30.6016 55.4018 30.3417C55.2918 30.0819 55.1059 29.8614 54.8685 29.709C54.631 29.5567 54.3531 29.4796 54.0711 29.4879ZM3.6 32.4H24.9883C23.8513 34.974 23.2 37.8079 23.2 40.8C23.2 42.7886 23.4962 44.7069 24.0148 46.5313C23.7721 46.6429 23.5664 46.8217 23.422 47.0466C23.2776 47.2714 23.2006 47.5328 23.2 47.8C23.2 48.1713 23.3475 48.5274 23.61 48.79C23.8726 49.0525 24.2287 49.2 24.6 49.2C24.7153 49.1996 24.8301 49.1849 24.9418 49.1563C25.5072 50.4544 26.2045 51.6793 27.009 52.8258C26.5373 53.618 25.9675 54.3419 25.341 55.0106C25.1186 54.8725 24.8618 54.7995 24.6 54.8C24.2287 54.8 23.8726 54.9475 23.61 55.2101C23.3475 55.4726 23.2 55.8287 23.2 56.2C23.2 56.3909 23.2391 56.5798 23.3148 56.7551C21.2938 58.1568 18.856 59 16.2 59C13.5488 58.9991 11.1003 58.1747 9.07422 56.7742C9.15631 56.5939 9.19918 56.3982 9.2 56.2C9.2 55.8287 9.0525 55.4726 8.78995 55.2101C8.5274 54.9475 8.1713 54.8 7.8 54.8C7.53337 54.8007 7.27249 54.8776 7.04805 55.0215C4.91691 52.755 3.60194 49.713 3.6 46.3399V46.3371C3.60013 46.2886 3.59988 45.1471 3.6 45C3.9713 45 4.3274 44.8525 4.58995 44.59C4.8525 44.3274 5 43.9713 5 43.6C5 43.2287 4.8525 42.8726 4.58995 42.6101C4.3274 42.3475 3.9713 42.2 3.6 42.2C3.60039 40.8411 3.59981 38.9519 3.6 36.6C3.9713 36.6 4.3274 36.4525 4.58995 36.19C4.8525 35.9274 5 35.5713 5 35.2C5 34.8287 4.8525 34.4726 4.58995 34.2101C4.3274 33.9475 3.9713 33.8 3.6 33.8C3.60002 33.1495 3.59999 33.0664 3.6 32.4ZM12 33.8C11.6287 33.8 11.2726 33.9475 11.01 34.2101C10.7475 34.4726 10.6 34.8287 10.6 35.2C10.6 35.5713 10.7475 35.9274 11.01 36.19C11.2726 36.4525 11.6287 36.6 12 36.6C12.3713 36.6 12.7274 36.4525 12.9899 36.19C13.2525 35.9274 13.4 35.5713 13.4 35.2C13.4 34.8287 13.2525 34.4726 12.9899 34.2101C12.7274 33.9475 12.3713 33.8 12 33.8ZM20.4 33.8C20.0287 33.8 19.6726 33.9475 19.41 34.2101C19.1475 34.4726 19 34.8287 19 35.2C19 35.5713 19.1475 35.9274 19.41 36.19C19.6726 36.4525 20.0287 36.6 20.4 36.6C20.7713 36.6 21.1274 36.4525 21.3899 36.19C21.6525 35.9274 21.8 35.5713 21.8 35.2C21.8 34.8287 21.6525 34.4726 21.3899 34.2101C21.1274 33.9475 20.7713 33.8 20.4 33.8ZM7.8 38C7.4287 38 7.0726 38.1475 6.81005 38.4101C6.5475 38.6726 6.4 39.0287 6.4 39.4C6.4 39.7713 6.5475 40.1274 6.81005 40.39C7.0726 40.6525 7.4287 40.8 7.8 40.8C8.1713 40.8 8.5274 40.6525 8.78995 40.39C9.0525 40.1274 9.2 39.7713 9.2 39.4C9.2 39.0287 9.0525 38.6726 8.78995 38.4101C8.5274 38.1475 8.1713 38 7.8 38ZM16.2 38C15.8287 38 15.4726 38.1475 15.21 38.4101C14.9475 38.6726 14.8 39.0287 14.8 39.4C14.8 39.7713 14.9475 40.1274 15.21 40.39C15.4726 40.6525 15.8287 40.8 16.2 40.8C16.5713 40.8 16.9274 40.6525 17.1899 40.39C17.4525 40.1274 17.6 39.7713 17.6 39.4C17.6 39.0287 17.4525 38.6726 17.1899 38.4101C16.9274 38.1475 16.5713 38 16.2 38ZM12 42.2C11.6287 42.2 11.2726 42.3475 11.01 42.6101C10.7475 42.8726 10.6 43.2287 10.6 43.6C10.6 43.9713 10.7475 44.3274 11.01 44.59C11.2726 44.8525 11.6287 45 12 45C12.3713 45 12.7274 44.8525 12.9899 44.59C13.2525 44.3274 13.4 43.9713 13.4 43.6C13.4 43.2287 13.2525 42.8726 12.9899 42.6101C12.7274 42.3475 12.3713 42.2 12 42.2ZM20.4 42.2C20.0287 42.2 19.6726 42.3475 19.41 42.6101C19.1475 42.8726 19 43.2287 19 43.6C19 43.9713 19.1475 44.3274 19.41 44.59C19.6726 44.8525 20.0287 45 20.4 45C20.7713 45 21.1274 44.8525 21.3899 44.59C21.6525 44.3274 21.8 43.9713 21.8 43.6C21.8 43.2287 21.6525 42.8726 21.3899 42.6101C21.1274 42.3475 20.7713 42.2 20.4 42.2ZM7.8 46.4C7.4287 46.4 7.0726 46.5475 6.81005 46.8101C6.5475 47.0726 6.4 47.4287 6.4 47.8C6.4 48.1713 6.5475 48.5274 6.81005 48.79C7.0726 49.0525 7.4287 49.2 7.8 49.2C8.1713 49.2 8.5274 49.0525 8.78995 48.79C9.0525 48.5274 9.2 48.1713 9.2 47.8C9.2 47.4287 9.0525 47.0726 8.78995 46.8101C8.5274 46.5475 8.1713 46.4 7.8 46.4ZM16.2 46.4C15.8287 46.4 15.4726 46.5475 15.21 46.8101C14.9475 47.0726 14.8 47.4287 14.8 47.8C14.8 48.1713 14.9475 48.5274 15.21 48.79C15.4726 49.0525 15.8287 49.2 16.2 49.2C16.5713 49.2 16.9274 49.0525 17.1899 48.79C17.4525 48.5274 17.6 48.1713 17.6 47.8C17.6 47.4287 17.4525 47.0726 17.1899 46.8101C16.9274 46.5475 16.5713 46.4 16.2 46.4ZM12 50.6C11.6287 50.6 11.2726 50.7475 11.01 51.0101C10.7475 51.2726 10.6 51.6287 10.6 52C10.6 52.3713 10.7475 52.7274 11.01 52.99C11.2726 53.2525 11.6287 53.4 12 53.4C12.3713 53.4 12.7274 53.2525 12.9899 52.99C13.2525 52.7274 13.4 52.3713 13.4 52C13.4 51.6287 13.2525 51.2726 12.9899 51.0101C12.7274 50.7475 12.3713 50.6 12 50.6ZM20.4 50.6C20.0287 50.6 19.6726 50.7475 19.41 51.0101C19.1475 51.2726 19 51.6287 19 52C19 52.3713 19.1475 52.7274 19.41 52.99C19.6726 53.2525 20.0287 53.4 20.4 53.4C20.7713 53.4 21.1274 53.2525 21.3899 52.99C21.6525 52.7274 21.8 52.3713 21.8 52C21.8 51.6287 21.6525 51.2726 21.3899 51.0101C21.1274 50.7475 20.7713 50.6 20.4 50.6ZM16.2 54.8C15.8287 54.8 15.4726 54.9475 15.21 55.2101C14.9475 55.4726 14.8 55.8287 14.8 56.2C14.8 56.5713 14.9475 56.9274 15.21 57.19C15.4726 57.4525 15.8287 57.6 16.2 57.6C16.5713 57.6 16.9274 57.4525 17.1899 57.19C17.4525 56.9274 17.6 56.5713 17.6 56.2C17.6 55.8287 17.4525 55.4726 17.1899 55.2101C16.9274 54.9475 16.5713 54.8 16.2 54.8Z" fill="black"/>
</svg>
