<svg width="41" height="40" viewBox="0 0 41 40" fill="none" xmlns="http://www.w3.org/2000/svg">
<path d="M23.425 0.0499962C22.8219 0.0749962 22.35 0.224996 22.35 0.224996C22.2156 0.268747 22.0938 0.346871 22 0.449996C22 0.449996 20.3844 2.27812 19.4 5.075C17.95 3.76875 16.3438 3.53437 15.15 3.5C14.4156 3.47812 13.8406 3.45625 13.45 3.3C13.0594 3.14375 12.7781 2.93125 12.475 2.15C12.3406 1.7875 11.9656 1.575 11.5844 1.64062C11.2063 1.70937 10.9281 2.0375 10.925 2.425C10.925 3.52187 11.0344 4.41562 11.25 5.15C7.50312 6.24062 4.8 8.30625 3.075 11C1.25312 13.8437 0.5 17.3344 0.5 21.025C0.5 31.0125 9.45625 40 20.5 40C25.375 40 30.3594 38.3563 34.15 34.9C37.9406 31.4438 40.5 26.1688 40.5 19.1C40.5 16.1375 39.9625 13.1812 38.5 10.725C37.1469 8.45312 34.9625 6.6625 31.875 5.825C31.9219 5.70937 31.9781 5.62187 32.025 5.5C32.1438 5.20625 32.0781 4.86562 31.8563 4.6375C31.6344 4.4125 31.2969 4.3375 31 4.45C30.425 4.66875 30.0438 4.64687 29.55 4.5C29.0563 4.35312 28.4813 4.04687 27.775 3.825C27.0688 3.60312 26.1813 3.48125 25.2 3.75C24.7156 3.88437 24.2344 4.125 23.7 4.45C24.0031 3.68437 24.4656 2.79687 25.475 1.9C25.6406 1.75312 25.7406 1.54062 25.7437 1.31875C25.75 1.09375 25.6594 0.881247 25.5 0.724996C24.85 0.0906211 24.0281 0.0249962 23.425 0.0499962ZM23.5 1.65C23.5406 1.64687 23.5594 1.675 23.6 1.675C22.7531 2.68437 22.1688 3.70312 21.925 4.525C21.7656 5.06875 21.7 5.5375 21.675 5.875C21.6625 6.04375 21.6469 6.16875 21.65 6.275C21.65 6.32812 21.6719 6.38125 21.675 6.425C21.6781 6.44687 21.6688 6.45937 21.675 6.5C21.6781 6.52187 21.6781 6.55625 21.7 6.625C21.7063 6.64375 21.725 6.675 21.725 6.675L21.8 6.825L22.075 7.075H22.875C22.9188 7.04687 22.9625 7.0125 23 6.975C24.125 5.94687 24.9719 5.47812 25.625 5.3C26.2781 5.12187 26.7688 5.18125 27.3 5.35C27.8313 5.51875 28.4031 5.81875 29.1 6.025C29.3594 6.1 29.6531 6.125 29.95 6.15C29.5656 6.86875 29.2094 7.35625 28.85 7.525C28.3125 7.77812 27.4125 7.74062 25.875 7.675C25.4344 7.625 25.0344 7.94687 24.9875 8.3875C24.9375 8.82812 25.2594 9.22812 25.7 9.275C27.5719 9.6 27.875 10.0656 28.375 10.775C28.6781 11.2062 29.1625 11.7406 29.825 12.225C28.7031 12.7031 27.7781 12.8687 27.05 12.625C26.0375 12.2875 25.0438 11.3094 23.925 9.875C23.6625 9.56875 23.2125 9.50625 22.875 9.72812C22.5406 9.95 22.4219 10.3875 22.6 10.75C23.3938 12.2719 23.4844 12.975 23.325 13.85C23.2094 14.4781 22.7875 15.5844 22.4 16.675C20.9563 15.6031 20.1969 14.6031 19.975 13.75C19.7094 12.7219 19.9531 11.8312 20.075 11.025C20.1844 10.5969 19.9281 10.1594 19.5 10.05C19.0719 9.94062 18.6344 10.1969 18.525 10.625C17.9281 12.2312 17.0125 12.8187 15.7 12.975C14.8094 13.0812 13.6906 12.8375 12.525 12.475C12.7281 12.2906 12.9594 12.1312 13.1 11.925C13.5625 11.2406 13.7469 10.5281 13.95 9.975C14.1531 9.42187 14.325 9.04375 14.675 8.8C15.025 8.55625 15.6469 8.37187 16.9 8.475C17.2875 8.50937 17.6438 8.25625 17.7406 7.88125C17.8406 7.50312 17.6531 7.1125 17.3 6.95C17.2063 6.90937 17.1156 6.93125 17.025 6.9V6.875C16.9969 6.87187 16.9781 6.87812 16.95 6.875C16.4625 6.725 15.9531 6.625 15.5 6.575C14.9344 6.5125 14.4344 6.42812 14.025 6.25C13.6156 6.07187 13.2781 5.82812 13 5.275C12.9531 5.18125 12.9656 4.9125 12.925 4.8C13.675 5.07812 14.4125 5.07812 15.1 5.1C16.525 5.14375 17.725 5.12812 19.075 7.025C19.2563 7.27812 19.5688 7.4 19.875 7.34375C20.1813 7.28437 20.425 7.05312 20.5 6.75C21.1656 3.85625 22.7875 1.99062 23.025 1.725C23.1344 1.69687 23.2375 1.6625 23.5 1.65ZM11.95 6.6C12.3563 7.1375 12.8594 7.5 13.375 7.725C13.4281 7.74687 13.4719 7.73125 13.525 7.75C12.9719 8.25 12.6531 8.87187 12.45 9.425C12.2156 10.0687 12.0406 10.6344 11.775 11.025C11.5094 11.4156 11.1938 11.6875 10.375 11.85C10.025 11.9094 9.75625 12.1937 9.71562 12.5469C9.67813 12.9 9.87188 13.2375 10.2 13.375C12.1438 14.2344 14.0906 14.7625 15.875 14.55C16.7906 14.4406 17.6469 14.0875 18.375 13.5C18.4031 13.725 18.3625 13.9125 18.425 14.15C18.8063 15.6187 19.9156 17.2219 22.375 18.7C22.5844 18.825 22.8438 18.8469 23.0719 18.7594C23.3 18.6719 23.4781 18.4844 23.55 18.25C24.1156 16.4344 24.6781 15.3562 24.9 14.15C24.9594 13.8312 24.8844 13.4812 24.875 13.15C25.3875 13.5562 25.9094 13.9437 26.525 14.15C28.0781 14.6687 29.9031 14.3094 32.05 12.95C32.3188 12.7781 32.4625 12.4656 32.4125 12.15C32.3625 11.8375 32.1344 11.5812 31.825 11.5C30.3875 11.125 30.2344 10.6469 29.675 9.85C29.5063 9.60937 29.1906 9.35312 28.925 9.1C29.1219 9.04687 29.3344 9.06562 29.525 8.975C30.2063 8.65625 30.725 8.12187 31.2 7.3C34.0656 8.00312 35.925 9.53437 37.125 11.55C38.3844 13.6656 38.9 16.3375 38.9 19.1C38.9 25.7906 36.5344 30.5719 33.075 33.725C29.6156 36.8781 25.0156 38.4 20.5 38.4C10.3281 38.4 2.1 30.05 2.1 21.025C2.1 17.5531 2.81562 14.3875 4.425 11.875C5.98438 9.4375 8.3875 7.575 11.95 6.6Z" fill="black"/>
</svg>
