<svg width="40" height="40" viewBox="0 0 40 40" fill="none" xmlns="http://www.w3.org/2000/svg">
<path d="M23.1006 2.22789C21.8276 1.8263 20.4637 1.60657 19.0544 1.60657C14.94 1.60657 11.2575 3.46297 8.79492 6.38774L15.1218 11.7069L23.1006 2.22789Z" fill="#1A73E8"/>
<path d="M8.79514 6.38782C6.7667 8.79706 5.65556 11.846 5.65821 14.9954C5.65821 17.5111 6.1583 19.5569 6.98421 21.383L15.1221 11.707L8.79514 6.38782Z" fill="#EA4335"/>
<path d="M19.0539 9.88093C20.0306 9.88182 20.9867 10.1618 21.8097 10.6879C22.6326 11.214 23.2881 11.9643 23.6989 12.8504C24.1098 13.7365 24.2588 14.7216 24.1285 15.6896C23.9983 16.6576 23.5941 17.5683 22.9637 18.3143L30.9348 8.83528C29.2987 5.68299 26.4779 3.30922 23.0925 2.2356L15.1289 11.7146C15.6087 11.14 16.2091 10.6778 16.8873 10.361C17.5656 10.0441 18.3052 9.88021 19.0539 9.88093" fill="#4285F4"/>
<path d="M19.0548 20.1252C16.2285 20.1252 13.9326 17.8294 13.9326 15.0031C13.9293 13.7997 14.3536 12.6342 15.1298 11.7146L6.98438 21.3906C8.37857 24.4745 10.6896 26.9522 13.0688 30.074L22.9646 18.3143C22.4838 18.8823 21.8849 19.3387 21.2096 19.6514C20.5343 19.9642 19.799 20.1259 19.0548 20.1252Z" fill="#FBBC04"/>
<path d="M22.7673 33.2791C27.2378 26.2929 32.4433 23.1181 32.4433 14.9954C32.4433 12.7678 31.8978 10.6689 30.9355 8.82007L13.0762 30.0739C13.8339 31.0665 14.5992 32.1198 15.3417 33.2866C18.0544 37.4844 17.3042 40 19.0545 40C20.8049 40 20.0547 37.4768 22.7673 33.2791Z" fill="#34A853"/>
</svg>
