<svg width="29" height="39" viewBox="0 0 29 39" fill="none" xmlns="http://www.w3.org/2000/svg">
<path d="M15.5 0.800003C14.5021 0.800003 13.6583 1.23427 13.1157 1.85C12.6432 2.3861 12.4145 3.04509 12.3532 3.70782C11.8335 3.40011 11.2703 3.2 10.7 3.2C9.94929 3.2 9.1801 3.45625 8.56096 3.98438C7.94183 4.51251 7.50003 5.34813 7.50003 6.33907V18.4234L6.13284 16.625L6.16721 16.675C5.13624 15.0844 3.04891 14.5091 1.48596 15.475C1.48335 15.4766 1.48075 15.4781 1.47815 15.4797C-0.0710588 16.4608 -0.444164 18.5821 0.575025 20.1703C0.57708 20.174 0.579163 20.1776 0.581275 20.1813C0.581275 20.1813 4.18989 25.6101 6.25628 28.4094C6.72855 29.0493 7.69384 30.0759 8.26565 30.6859L7.50471 37.5109C7.49219 37.6228 7.50343 37.7361 7.53769 37.8434C7.57194 37.9506 7.62846 38.0494 7.70352 38.1334C7.77859 38.2173 7.87052 38.2844 7.97331 38.3303C8.0761 38.3763 8.18743 38.4 8.30003 38.4C9.6362 38.4 10.4825 37.8563 11.0578 37.4562C11.6332 37.0562 11.9382 36.8 12.9032 36.8C13.8681 36.8 14.1715 37.0563 14.7469 37.4562C15.3223 37.8563 16.1689 38.4 17.5047 38.4C18.8402 38.4 19.686 37.8563 20.261 37.4562C20.8359 37.0562 21.1407 36.8 22.1047 36.8C23.0678 36.8 23.3694 37.0563 23.9438 37.4562C24.5182 37.8563 25.364 38.4 26.6985 38.4C26.8109 38.4 26.9221 38.3763 27.0248 38.3304C27.1274 38.2846 27.2193 38.2176 27.2943 38.1339C27.3694 38.0501 27.4259 37.9515 27.4603 37.8444C27.4947 37.7374 27.5061 37.6243 27.4938 37.5125L26.7172 30.5078C28.1103 27.9947 28.3 25.1506 28.3 24V10.4C28.3 9.79926 28.2766 8.89356 27.8563 8.02969C27.436 7.16582 26.4643 6.4 25.1 6.4C24.4701 6.4 23.9469 6.59243 23.5 6.85313V6.4V5.6H23.4625C23.3832 4.76062 23.1654 4.05196 22.736 3.48907C22.176 2.75503 21.2655 2.4 20.3 2.4C19.5795 2.4 19.0025 2.62931 18.5078 2.93907C18.3723 2.54927 18.1722 2.17661 17.8844 1.85C17.3418 1.23427 16.498 0.800003 15.5 0.800003ZM15.5 2.4C16.0605 2.4 16.4166 2.60395 16.6844 2.90782C16.9522 3.21168 17.1 3.6393 17.1 4V5.6V16H18.7V5.6C18.7 5.17653 18.8174 4.75673 19.0391 4.48282C19.2608 4.2089 19.5759 4 20.3 4C20.9329 4 21.2237 4.14421 21.4641 4.45938C21.7045 4.77454 21.9 5.39543 21.9 6.4V10.4V16.8H23.5V10.4109C23.5001 10.4073 23.5001 10.4036 23.5 10.4C23.5 9.87915 23.5611 9.18542 23.7828 8.72969C24.0046 8.27396 24.2323 8 25.1 8C25.9677 8 26.1955 8.27396 26.4172 8.72969C26.6389 9.18542 26.7 9.87915 26.7 10.4V24C26.7 25.0078 26.4885 27.8415 25.2125 29.9734C25.1226 30.1232 25.0842 30.2982 25.1032 30.4719L25.7891 36.6484C25.4626 36.5347 25.1887 36.3731 24.8594 36.1437C24.285 35.7438 23.4392 35.2 22.1047 35.2C20.7695 35.2 19.9233 35.7438 19.3485 36.1437C18.7736 36.5437 18.4692 36.8 17.5047 36.8C16.5398 36.8 16.2364 36.5438 15.661 36.1437C15.0856 35.7438 14.239 35.2 12.9032 35.2C11.5673 35.2 10.7206 35.7438 10.1453 36.1437C9.81522 36.3733 9.53871 36.5347 9.21096 36.6484L9.89534 30.5125C9.90827 30.3972 9.89596 30.2804 9.85926 30.1704C9.82257 30.0603 9.76237 29.9595 9.68284 29.875C9.2013 29.3636 7.90027 27.9424 7.54378 27.4594C5.53928 24.7439 1.93169 19.321 1.9219 19.3063C1.33756 18.3957 1.56769 17.3235 2.33128 16.8359C3.09313 16.3685 4.23304 16.632 4.82503 17.5453C4.83588 17.5619 4.84735 17.578 4.8594 17.5938L7.66253 21.2844C7.76383 21.4179 7.90452 21.5163 8.06473 21.5655C8.22494 21.6148 8.39658 21.6125 8.55542 21.559C8.71427 21.5055 8.85229 21.4034 8.95001 21.2672C9.04772 21.1311 9.1002 20.9676 9.10003 20.8V6.33907C9.10003 5.7916 9.2978 5.45803 9.59846 5.20157C9.89913 4.9451 10.33 4.8 10.7 4.8C11.0701 4.8 11.4958 4.94258 11.7953 5.20313C12.0949 5.46368 12.3 5.8132 12.3 6.4V16H13.9V6.41094C13.9001 6.40729 13.9001 6.40365 13.9 6.4V4C13.9 3.6393 14.0479 3.21168 14.3157 2.90782C14.5834 2.60395 14.9396 2.4 15.5 2.4Z" fill="black"/>
</svg>
