<svg width="66" height="66" viewBox="0 0 66 66" fill="none" xmlns="http://www.w3.org/2000/svg">
<path d="M0.799988 52.5999C0.799988 56.4007 3.64921 59.578 7.71249 61.7436C11.7758 63.9093 17.2008 65.1999 23.2 65.1999H63.8C64.3742 65.2108 64.9047 64.8718 65.1234 64.3413C65.3476 63.8108 65.2219 63.1928 64.8062 62.7936C64.8062 62.7936 64.5492 62.5366 64.2812 62.1374C64.0133 61.7382 63.8 61.246 63.8 60.9999C63.8 60.7538 64.0133 60.2616 64.2812 59.8624C64.5492 59.4632 64.8062 59.2061 64.8062 59.2061C65.3476 58.6593 65.3476 57.7843 64.8062 57.2374C64.8062 57.2374 64.5547 56.9475 64.2812 56.5374C64.0078 56.1272 63.8 55.6132 63.8 55.3999C63.8 55.1866 64.0078 54.6725 64.2812 54.2624C64.5547 53.8522 64.8062 53.5624 64.8062 53.5624C65.3476 53.0155 65.3476 52.1405 64.8062 51.5936C64.8062 51.5936 64.5547 51.3475 64.2812 50.9374C64.0078 50.5272 63.8 50.0241 63.8 49.7999C63.8 49.5757 64.0078 49.0725 64.2812 48.6624C64.5547 48.2522 64.8062 48.0061 64.8062 48.0061C65.0742 47.7382 65.2219 47.3718 65.2109 46.9889C65.2055 46.6116 65.0414 46.2507 64.7625 45.9936C64.7625 45.9936 63.8 44.7085 63.8 44.1999C63.8 43.6913 64.7625 42.4061 64.7625 42.4061C65.0414 42.1491 65.2055 41.7882 65.2109 41.4108C65.2219 41.028 65.0742 40.6616 64.8062 40.3936C64.8062 40.3936 64.5492 40.1421 64.2812 39.7374C64.0133 39.3327 63.8 38.846 63.8 38.5999C63.8 38.3538 64.0133 37.8671 64.2812 37.4624C64.5492 37.0577 64.8062 36.8061 64.8062 36.8061C65.0797 36.5436 65.2328 36.1772 65.2328 35.7999C65.2328 35.4225 65.0797 35.0561 64.8062 34.7936C64.8062 34.7936 64.5492 34.5421 64.2812 34.1374C64.0133 33.7327 63.8 33.2296 63.8 32.9999C63.8 32.7702 64.0133 32.2671 64.2812 31.8624C64.5492 31.4577 64.8062 31.2061 64.8062 31.2061C65.0797 30.9436 65.2328 30.5772 65.2328 30.1999C65.2328 29.8225 65.0797 29.4561 64.8062 29.1936C64.8062 29.1936 64.5492 28.9421 64.2812 28.5374C64.0133 28.1327 63.8 27.6405 63.8 27.3999C63.8 27.1593 64.0133 26.6671 64.2812 26.2624C64.5492 25.8577 64.8062 25.6061 64.8062 25.6061C65.2219 25.2069 65.3476 24.5889 65.1234 24.0585C64.9047 23.528 64.3742 23.1889 63.8 23.1999L45.6 23.1999V13.3999C45.6 13.3561 45.6 13.3124 45.6 13.2686C45.6 13.2522 45.6 13.2413 45.6 13.2249C45.5125 9.50066 42.6851 6.38894 38.6875 4.25613C34.6242 2.0905 29.1992 0.799881 23.2 0.799881C17.2008 0.799881 11.7758 2.0905 7.71249 4.25613C3.79686 6.34519 1.03514 9.38035 0.843738 13.0061C0.838269 13.11 0.799988 13.2085 0.799988 13.3124C0.799988 13.3397 0.799988 13.3725 0.799988 13.3999L0.799988 52.5999ZM3.59999 52.5999L3.59999 19.5686C4.72108 20.7007 6.12655 21.696 7.71249 22.5436C11.7266 24.6819 17.0695 25.9671 22.9812 25.9999C23.0523 26.0053 23.1289 26.0053 23.2 25.9999H43.5437C43.932 26.1858 44.3805 26.1858 44.7687 25.9999L61.4812 25.9999C61.2898 26.4593 61 26.7983 61 27.3999C61 28.5702 61.4867 29.4671 61.9187 30.1124C61.957 30.1671 61.968 30.1452 62.0062 30.1999C61.968 30.2546 61.957 30.2327 61.9187 30.2874C61.4867 30.9327 61 31.835 61 32.9999C61 34.1647 61.4867 35.0671 61.9187 35.7124C61.957 35.7671 61.968 35.7452 62.0062 35.7999C61.968 35.8546 61.957 35.8327 61.9187 35.8874C61.4867 36.5327 61 37.4296 61 38.5999C61 39.7702 61.4867 40.6671 61.9187 41.3124C61.9351 41.3397 61.9461 41.3288 61.9625 41.3561C61.4867 42.0124 61 42.9749 61 44.1999C61 45.4249 61.4867 46.3874 61.9625 47.0436C61.9461 47.071 61.9351 47.06 61.9187 47.0874C61.4922 47.7327 61 48.635 61 49.7999C61 50.9647 61.4922 51.8671 61.9187 52.5124C61.957 52.5671 61.968 52.5452 62.0062 52.5999C61.957 52.6655 61.968 52.66 61.9187 52.7311C61.4922 53.3764 61 54.235 61 55.3999C61 56.5647 61.4922 57.4233 61.9187 58.0686C61.968 58.1397 61.957 58.1343 62.0062 58.1999C61.968 58.2546 61.957 58.2327 61.9187 58.2874C61.4867 58.9327 61 59.8296 61 60.9999C61 61.6069 61.2898 61.9405 61.4812 62.3999H23.2C17.6055 62.3999 12.5633 61.1803 9.02499 59.2936C5.48671 57.4069 3.59999 54.9843 3.59999 52.5999ZM3.59999 13.3999C3.59999 13.3561 3.59999 13.3124 3.59999 13.2686C3.67108 10.928 5.55233 8.56004 9.02499 6.70613C12.5633 4.81941 17.6055 3.59988 23.2 3.59988C28.7945 3.59988 33.8367 4.81941 37.375 6.70613C40.9133 8.59285 42.8 11.0155 42.8 13.3999C42.8 15.7843 40.9133 18.2069 37.375 20.0936C33.8367 21.9803 28.7945 23.1999 23.2 23.1999C23.1562 23.1999 23.1125 23.1999 23.0687 23.1999C17.5234 23.178 12.5359 21.9639 9.02499 20.0936C5.48671 18.2069 3.59999 15.7843 3.59999 13.3999ZM16.55 13.3999C16.55 14.8819 17.6164 15.9483 18.825 16.5936C20.0336 17.2389 21.5484 17.5999 23.2 17.5999C24.8516 17.5999 26.3664 17.2389 27.575 16.5936C28.7836 15.9483 29.85 14.8819 29.85 13.3999C29.85 11.9178 28.7836 10.8514 27.575 10.2061C26.3664 9.56081 24.8516 9.19988 23.2 9.19988C21.5484 9.19988 20.0336 9.56081 18.825 10.2061C17.6164 10.8514 16.55 11.9178 16.55 13.3999ZM19.35 13.3999C19.35 13.3343 19.4484 13.0225 20.1375 12.6561C20.8266 12.2897 21.9531 11.9999 23.2 11.9999C24.4469 11.9999 25.5734 12.2897 26.2625 12.6561C26.9516 13.0225 27.05 13.3343 27.05 13.3999C27.05 13.4655 26.9516 13.7772 26.2625 14.1436C25.5734 14.51 24.4469 14.7999 23.2 14.7999C21.9531 14.7999 20.8266 14.51 20.1375 14.1436C19.4484 13.7772 19.35 13.4655 19.35 13.3999ZM27.4 58.1999C27.4 58.971 28.0289 59.5999 28.8 59.5999C29.5711 59.5999 30.2 58.971 30.2 58.1999C30.2 57.4288 29.5711 56.7999 28.8 56.7999C28.0289 56.7999 27.4 57.4288 27.4 58.1999ZM27.4 52.5999C27.4 53.371 28.0289 53.9999 28.8 53.9999C29.5711 53.9999 30.2 53.371 30.2 52.5999C30.2 51.8288 29.5711 51.1999 28.8 51.1999C28.0289 51.1999 27.4 51.8288 27.4 52.5999ZM27.4 46.9999C27.4 47.771 28.0289 48.3999 28.8 48.3999C29.5711 48.3999 30.2 47.771 30.2 46.9999C30.2 46.2288 29.5711 45.5999 28.8 45.5999C28.0289 45.5999 27.4 46.2288 27.4 46.9999ZM27.4 41.3999C27.4 42.171 28.0289 42.7999 28.8 42.7999C29.5711 42.7999 30.2 42.171 30.2 41.3999C30.2 40.6288 29.5711 39.9999 28.8 39.9999C28.0289 39.9999 27.4 40.6288 27.4 41.3999ZM27.4 35.7999C27.4 36.571 28.0289 37.1999 28.8 37.1999C29.5711 37.1999 30.2 36.571 30.2 35.7999C30.2 35.0288 29.5711 34.3999 28.8 34.3999C28.0289 34.3999 27.4 35.0288 27.4 35.7999ZM27.4 30.1999C27.4 30.971 28.0289 31.5999 28.8 31.5999C29.5711 31.5999 30.2 30.971 30.2 30.1999C30.2 29.4288 29.5711 28.7999 28.8 28.7999C28.0289 28.7999 27.4 29.4288 27.4 30.1999ZM37.375 23.1999C37.8289 22.9921 38.2664 22.7678 38.6875 22.5436C40.2734 21.696 41.6789 20.7007 42.8 19.5686V23.1999H37.375Z" fill="black"/>
</svg>
