<svg width="32" height="32" viewBox="0 0 32 32" fill="none" xmlns="http://www.w3.org/2000/svg">
<path d="M9.33122 -0.00012207C4.18588 -0.00012207 0.000488281 4.18915 0.000488281 9.33582V22.6691C0.000488281 27.8145 4.18976 31.9999 9.33643 31.9999H22.6698C27.8151 31.9999 32.0005 27.8106 32.0005 22.6639V9.33061C32.0005 4.18527 27.8112 -0.00012207 22.6646 -0.00012207H9.33122ZM25.3338 5.33321C26.0698 5.33321 26.6672 5.93054 26.6672 6.66654C26.6672 7.40254 26.0698 7.99988 25.3338 7.99988C24.5978 7.99988 24.0005 7.40254 24.0005 6.66654C24.0005 5.93054 24.5978 5.33321 25.3338 5.33321ZM16.0005 7.99988C20.4125 7.99988 24.0005 11.5879 24.0005 15.9999C24.0005 20.4119 20.4125 23.9999 16.0005 23.9999C11.5885 23.9999 8.00049 20.4119 8.00049 15.9999C8.00049 11.5879 11.5885 7.99988 16.0005 7.99988ZM16.0005 10.6665C14.586 10.6665 13.2294 11.2284 12.2293 12.2286C11.2291 13.2288 10.6672 14.5854 10.6672 15.9999C10.6672 17.4144 11.2291 18.7709 12.2293 19.7711C13.2294 20.7713 14.586 21.3332 16.0005 21.3332C17.415 21.3332 18.7715 20.7713 19.7717 19.7711C20.7719 18.7709 21.3338 17.4144 21.3338 15.9999C21.3338 14.5854 20.7719 13.2288 19.7717 12.2286C18.7715 11.2284 17.415 10.6665 16.0005 10.6665Z" fill="#FFB701"/>
</svg>
