<svg width="70" height="70" viewBox="0 0 70 70" fill="none" xmlns="http://www.w3.org/2000/svg">
<path d="M65.0125 -0.0436941C64.7774 -0.0546316 64.5367 -0.0327566 64.3125 5.5857e-05C63.3719 0.131306 62.5625 0.590681 61.9938 1.44381L61.95 1.53131L61.9063 1.57506L49.9188 24.1063C48.568 23.6032 47.2281 23.3079 45.9813 23.2751C44.6359 23.2422 43.3672 23.4501 42.2188 23.9313C40.0039 24.8555 38.3305 26.6657 37.2313 28.9626C37.182 29.0336 37.1383 29.1047 37.1 29.1813C37.0945 29.1922 37.1055 29.2141 37.1 29.2251C37.0836 29.2524 37.0672 29.2852 37.0563 29.3126C37.0398 29.3672 37.0234 29.4274 37.0125 29.4876C36.2523 31.3852 35.3773 33.0915 34.3875 34.6063C34.3766 34.6227 34.3547 34.6336 34.3438 34.6501C34.218 34.7594 34.1141 34.8961 34.0375 35.0438C34.032 35.0547 34.043 35.0766 34.0375 35.0876C33.9883 35.1586 33.9445 35.2297 33.9063 35.3063C30.5648 40.0915 26.2117 42.9735 22.0938 44.7563C16.4828 47.1844 11.1125 47.4415 9.93125 47.3376C9.36797 47.2829 8.82656 47.5672 8.55859 48.0649C8.29609 48.5626 8.35078 49.1751 8.70625 49.6126C24.6586 69.3001 48.125 70.0001 48.125 70.0001C48.4039 70.0055 48.6773 69.929 48.9125 69.7813C48.9125 69.7813 51.8109 67.9438 55.3 63.5688C57.9195 60.2821 60.9055 55.5297 63.4813 48.9563C63.4977 48.9399 63.5086 48.929 63.525 48.9126C63.8477 48.6118 64.0117 48.1743 63.9625 47.7313C63.9625 47.7149 63.9625 47.704 63.9625 47.6876C64.6406 45.8555 65.2969 43.9305 65.8875 41.8251C65.9094 41.7376 65.9258 41.6501 65.9313 41.5626C65.9313 41.5461 65.9313 41.5352 65.9313 41.5188C67.7961 36.7063 65.718 31.4071 61.25 29.0938L69.9125 5.07506V5.03131L69.9563 4.98756C70.2406 3.99224 69.9125 3.03521 69.3875 2.27506C68.8898 1.55865 68.1625 0.995369 67.2875 0.612556V0.568806C67.2602 0.557869 67.2273 0.579744 67.2 0.568806C67.1836 0.563337 67.1727 0.530524 67.1563 0.525056C66.4727 0.202399 65.7234 -0.0163505 65.0125 -0.0436941ZM64.8375 2.88756C65.1547 2.83834 65.5703 2.83834 66.0188 3.06256L66.0625 3.10631H66.1063C66.5602 3.28677 66.9375 3.59302 67.1125 3.85006C67.2875 4.10709 67.2383 4.26021 67.2438 4.24381L58.7125 27.9126C57.6844 27.4477 56.9734 27.1196 55.5188 26.4688C54.4359 25.9821 53.4078 25.5118 52.5 25.1126L64.3125 3.01881C64.3016 3.02974 64.5203 2.93677 64.8375 2.88756ZM5.6 11.2001C2.52109 11.2001 0 13.7211 0 16.8001C0 19.879 2.52109 22.4001 5.6 22.4001C8.67891 22.4001 11.2 19.879 11.2 16.8001C11.2 13.7211 8.67891 11.2001 5.6 11.2001ZM5.6 14.0001C7.16406 14.0001 8.4 15.236 8.4 16.8001C8.4 18.3641 7.16406 19.6001 5.6 19.6001C4.03594 19.6001 2.8 18.3641 2.8 16.8001C2.8 15.236 4.03594 14.0001 5.6 14.0001ZM18.2 15.4001C16.6523 15.4001 15.4 16.6524 15.4 18.2001C15.4 19.7477 16.6523 21.0001 18.2 21.0001C19.7477 21.0001 21 19.7477 21 18.2001C21 16.6524 19.7477 15.4001 18.2 15.4001ZM16.1 25.2001C11.8617 25.2001 8.4 28.6618 8.4 32.9001C8.4 37.1383 11.8617 40.6001 16.1 40.6001C20.3383 40.6001 23.8 37.1383 23.8 32.9001C23.8 28.6618 20.3383 25.2001 16.1 25.2001ZM45.9375 26.0751C46.9109 26.1024 47.9773 26.2993 49.175 26.7751C49.2023 26.7915 49.2352 26.8079 49.2625 26.8188C49.5797 27.3165 50.1758 27.5626 50.75 27.4313C50.9086 27.4969 50.8922 27.4915 51.0563 27.5626C52.0023 27.9727 53.1945 28.4758 54.3813 29.0063C56.1203 29.7829 57.2195 30.2586 58.2313 30.7126C58.2586 30.7454 58.2859 30.7727 58.3188 30.8001C58.6195 31.2157 59.1227 31.4344 59.6313 31.3688C59.6477 31.3688 59.6586 31.3688 59.675 31.3688C63.0219 32.9001 64.4984 36.5477 63.35 40.0751C62.7977 40.0586 62.3766 40.086 61.3375 39.8563C60.5609 39.6868 59.8063 39.4133 59.2375 39.0688C58.6688 38.7243 58.3406 38.3852 58.1875 37.9313C58.0672 37.5376 57.7773 37.2204 57.3945 37.0618C57.0172 36.8977 56.5852 36.9141 56.2188 37.1001C55.7484 37.3352 54.5617 37.2477 53.5063 36.7063C52.9813 36.4383 52.5109 36.061 52.1938 35.7438C51.8766 35.4266 51.7891 35.1258 51.8 35.1751C51.7234 34.7649 51.4719 34.4094 51.1055 34.2071C50.7445 34.0047 50.307 33.9774 49.9188 34.1251C49.8805 34.1415 49.4156 34.1852 48.8688 34.0813C48.3219 33.9774 47.6875 33.7532 47.075 33.4688C46.4625 33.1844 45.8992 32.8399 45.5438 32.5501C45.1883 32.2602 45.1555 31.9594 45.1938 32.3313C45.1008 31.593 44.45 31.0516 43.7063 31.1063C42.3008 31.2376 40.9828 30.204 40.2063 29.5313C41.0266 28.1477 42.0438 27.043 43.3125 26.5126C44.0891 26.1899 44.9641 26.0477 45.9375 26.0751ZM16.1 28.0001C18.8234 28.0001 21 30.1766 21 32.9001C21 35.6235 18.8234 37.8001 16.1 37.8001C13.3766 37.8001 11.2 35.6235 11.2 32.9001C11.2 30.1766 13.3766 28.0001 16.1 28.0001ZM38.9375 32.1563C39.9109 32.8563 41.2617 33.5836 42.875 33.7313C43.132 34.1086 43.4109 34.4149 43.75 34.6938C44.357 35.1969 45.1063 35.6399 45.8938 36.0063C46.6813 36.3727 47.507 36.679 48.3438 36.8376C48.7758 36.9196 49.2188 36.7555 49.6563 36.7501C49.8641 37.0672 49.957 37.4883 50.225 37.7563C50.7938 38.3251 51.4719 38.8063 52.2375 39.2001C53.375 39.7852 54.7422 39.9876 56.0875 39.8126C56.5469 40.5016 57.0992 41.0813 57.75 41.4751C58.707 42.0493 59.7516 42.3993 60.725 42.6126C61.4086 42.7602 62.032 42.8258 62.6063 42.8751C62.218 44.1329 61.7969 45.3141 61.3813 46.4626C60.8781 46.4462 60.2602 46.4188 59.5875 46.2876C58.0563 45.9922 56.607 45.3141 56 44.1438C55.6719 43.5313 54.9445 43.2524 54.2938 43.4876C53.5992 43.7336 52.3414 43.6297 51.275 43.1376C50.2086 42.6454 49.3992 41.7922 49.2188 41.1688C49.1039 40.7915 48.8305 40.4797 48.4695 40.3157C48.1141 40.1461 47.7039 40.1407 47.3375 40.2938C46.9984 40.436 45.675 40.3977 44.5813 39.9001C43.4875 39.4024 42.782 38.5657 42.7 38.1063C42.6289 37.718 42.3992 37.3844 42.0656 37.1766C41.732 36.9688 41.3273 36.9086 40.95 37.0126C39.6266 37.368 38.593 36.8977 37.7563 36.2688C37.4664 36.0555 37.2531 35.8204 37.0563 35.6126C37.7344 34.5352 38.3633 33.3922 38.9375 32.1563ZM35.4375 37.9313C35.6453 38.1227 35.8422 38.3086 36.0938 38.5001C37.1273 39.2766 38.7188 39.829 40.5125 39.7251C41.1633 40.9446 42.2188 41.8797 43.4438 42.4376C44.6523 42.9899 45.943 43.1649 47.2063 43.0063C47.9063 44.1493 48.8797 45.1172 50.0938 45.6751C51.3898 46.2711 52.8445 46.4243 54.25 46.2001C55.557 47.8352 57.4164 48.7266 59.0625 49.0438C59.5 49.1258 59.932 49.1805 60.3313 49.2188C58.0016 54.8461 55.393 58.9641 53.1125 61.8188C50.1922 65.4774 48.218 66.861 47.775 67.1563C47.2773 67.1344 43.6297 66.8774 38.5 65.4501C38.9211 65.1766 39.375 64.8922 39.8563 64.5313C42.1914 62.7813 45.2484 59.9266 48.2125 55.5188C48.5242 55.0649 48.5461 54.4743 48.2617 54.004C47.9773 53.5282 47.4469 53.2657 46.9 53.3313C46.4898 53.3751 46.1234 53.5993 45.8938 53.9438C43.1156 58.0782 40.2555 60.7251 38.15 62.3001C36.1484 63.7985 34.9891 64.2633 34.8688 64.3126C31.7188 63.2024 28.2297 61.6821 24.675 59.5438C25.1891 59.3743 25.7359 59.1501 26.3375 58.8876C28.9953 57.7282 32.55 55.5626 36.1813 51.4938C36.6188 51.0563 36.7172 50.3836 36.4273 49.8422C36.132 49.2954 35.5195 49.0055 34.9125 49.1313C34.5898 49.186 34.2945 49.361 34.0813 49.6126C30.7125 53.3805 27.557 55.2946 25.2438 56.3063C22.9305 57.318 21.6125 57.4001 21.6125 57.4001C21.5523 57.411 21.4922 57.4274 21.4375 57.4438C18.5336 55.3985 15.6352 52.9102 12.9063 49.9188C15.5695 49.711 18.9984 49.1696 23.2313 47.3376C27.4094 45.5274 31.8664 42.5743 35.4375 37.9313Z" fill="black"/>
</svg>
