<svg width="201" height="53" viewBox="0 0 201 53" fill="none" xmlns="http://www.w3.org/2000/svg">
<path d="M9.768 9.408H4.168L3.064 12H0.92L5.96 0.799999H8.008L13.064 12H10.888L9.768 9.408ZM9.08 7.776L6.968 2.88L4.872 7.776H9.08ZM21.8589 3.456L17.8589 12.688C17.4855 13.616 17.0322 14.2667 16.4989 14.64C15.9655 15.024 15.3202 15.216 14.5629 15.216C14.1362 15.216 13.7149 15.1467 13.2989 15.008C12.8829 14.8693 12.5415 14.6773 12.2749 14.432L13.0749 12.96C13.2669 13.1413 13.4909 13.2853 13.7469 13.392C14.0135 13.4987 14.2802 13.552 14.5469 13.552C14.8989 13.552 15.1869 13.4613 15.4109 13.28C15.6455 13.0987 15.8589 12.7947 16.0509 12.368L16.1949 12.032L12.4669 3.456H14.5469L17.2349 9.776L19.9389 3.456H21.8589ZM31.3809 3.456V12H29.4769V10.912C29.1569 11.296 28.7569 11.5947 28.2769 11.808C27.7969 12.0107 27.2795 12.112 26.7249 12.112C25.5835 12.112 24.6822 11.7973 24.0209 11.168C23.3702 10.528 23.0449 9.584 23.0449 8.336V3.456H25.0449V8.064C25.0449 8.832 25.2155 9.408 25.5569 9.792C25.9089 10.1653 26.4049 10.352 27.0449 10.352C27.7595 10.352 28.3249 10.1333 28.7409 9.696C29.1675 9.248 29.3809 8.608 29.3809 7.776V3.456H31.3809ZM42.3675 0.127999V12H40.4475V10.896C40.1168 11.3013 39.7062 11.6053 39.2155 11.808C38.7355 12.0107 38.2022 12.112 37.6155 12.112C36.7942 12.112 36.0528 11.9307 35.3915 11.568C34.7408 11.2053 34.2288 10.6933 33.8555 10.032C33.4822 9.36 33.2955 8.592 33.2955 7.728C33.2955 6.864 33.4822 6.10133 33.8555 5.44C34.2288 4.77867 34.7408 4.26667 35.3915 3.904C36.0528 3.54133 36.7942 3.36 37.6155 3.36C38.1808 3.36 38.6982 3.456 39.1675 3.648C39.6368 3.84 40.0368 4.128 40.3675 4.512V0.127999H42.3675ZM37.8555 10.4C38.3355 10.4 38.7675 10.2933 39.1515 10.08C39.5355 9.856 39.8395 9.54133 40.0635 9.136C40.2875 8.73067 40.3995 8.26133 40.3995 7.728C40.3995 7.19467 40.2875 6.72533 40.0635 6.32C39.8395 5.91467 39.5355 5.60533 39.1515 5.392C38.7675 5.168 38.3355 5.056 37.8555 5.056C37.3755 5.056 36.9435 5.168 36.5595 5.392C36.1755 5.60533 35.8715 5.91467 35.6475 6.32C35.4235 6.72533 35.3115 7.19467 35.3115 7.728C35.3115 8.26133 35.4235 8.73067 35.6475 9.136C35.8715 9.54133 36.1755 9.856 36.5595 10.08C36.9435 10.2933 37.3755 10.4 37.8555 10.4ZM48.2479 3.36C49.5065 3.36 50.4665 3.664 51.1279 4.272C51.7999 4.86933 52.1359 5.776 52.1359 6.992V12H50.2479V10.96C50.0025 11.3333 49.6505 11.6213 49.1919 11.824C48.7439 12.016 48.1999 12.112 47.5599 12.112C46.9199 12.112 46.3599 12.0053 45.8799 11.792C45.3999 11.568 45.0265 11.264 44.7599 10.88C44.5039 10.4853 44.3759 10.0427 44.3759 9.552C44.3759 8.784 44.6585 8.17067 45.2239 7.712C45.7999 7.24267 46.7012 7.008 47.9279 7.008H50.1359V6.88C50.1359 6.28267 49.9545 5.824 49.5919 5.504C49.2399 5.184 48.7119 5.024 48.0079 5.024C47.5279 5.024 47.0532 5.09867 46.5839 5.248C46.1252 5.39733 45.7359 5.60533 45.4159 5.872L44.6319 4.416C45.0799 4.07467 45.6185 3.81333 46.2479 3.632C46.8772 3.45067 47.5439 3.36 48.2479 3.36ZM47.9759 10.656C48.4772 10.656 48.9199 10.544 49.3039 10.32C49.6985 10.0853 49.9759 9.75467 50.1359 9.328V8.336H48.0719C46.9199 8.336 46.3439 8.71467 46.3439 9.472C46.3439 9.83467 46.4879 10.1227 46.7759 10.336C47.0639 10.5493 47.4639 10.656 47.9759 10.656ZM62.3885 3.36C63.6472 3.36 64.6072 3.664 65.2685 4.272C65.9405 4.86933 66.2765 5.776 66.2765 6.992V12H64.3885V10.96C64.1432 11.3333 63.7912 11.6213 63.3325 11.824C62.8845 12.016 62.3405 12.112 61.7005 12.112C61.0605 12.112 60.5005 12.0053 60.0205 11.792C59.5405 11.568 59.1672 11.264 58.9005 10.88C58.6445 10.4853 58.5165 10.0427 58.5165 9.552C58.5165 8.784 58.7992 8.17067 59.3645 7.712C59.9405 7.24267 60.8418 7.008 62.0685 7.008H64.2765V6.88C64.2765 6.28267 64.0952 5.824 63.7325 5.504C63.3805 5.184 62.8525 5.024 62.1485 5.024C61.6685 5.024 61.1938 5.09867 60.7245 5.248C60.2658 5.39733 59.8765 5.60533 59.5565 5.872L58.7725 4.416C59.2205 4.07467 59.7592 3.81333 60.3885 3.632C61.0178 3.45067 61.6845 3.36 62.3885 3.36ZM62.1165 10.656C62.6178 10.656 63.0605 10.544 63.4445 10.32C63.8392 10.0853 64.1165 9.75467 64.2765 9.328V8.336H62.2125C61.0605 8.336 60.4845 8.71467 60.4845 9.472C60.4845 9.83467 60.6285 10.1227 60.9165 10.336C61.2045 10.5493 61.6045 10.656 62.1165 10.656ZM73.1051 0.127999H75.6011V12H73.1051V0.127999ZM81.3896 3.264C82.723 3.264 83.747 3.584 84.4616 4.224C85.1763 4.85333 85.5336 5.808 85.5336 7.088V12H83.1976V10.928C82.7283 11.728 81.8536 12.128 80.5736 12.128C79.9123 12.128 79.3363 12.016 78.8456 11.792C78.3656 11.568 77.9976 11.2587 77.7416 10.864C77.4856 10.4693 77.3576 10.0213 77.3576 9.52C77.3576 8.72 77.6563 8.09067 78.2536 7.632C78.8616 7.17333 79.795 6.944 81.0536 6.944H83.0376C83.0376 6.4 82.8723 5.984 82.5416 5.696C82.211 5.39733 81.715 5.248 81.0536 5.248C80.595 5.248 80.1416 5.32267 79.6936 5.472C79.2563 5.61067 78.883 5.80267 78.5736 6.048L77.6776 4.304C78.147 3.97333 78.707 3.71733 79.3576 3.536C80.019 3.35467 80.6963 3.264 81.3896 3.264ZM81.1976 10.448C81.6243 10.448 82.003 10.352 82.3336 10.16C82.6643 9.95733 82.899 9.664 83.0376 9.28V8.4H81.3256C80.3016 8.4 79.7896 8.736 79.7896 9.408C79.7896 9.728 79.9123 9.984 80.1576 10.176C80.4136 10.3573 80.7603 10.448 81.1976 10.448ZM7.688 32.192C6.54667 32.192 5.512 31.9467 4.584 31.456C3.66667 30.9547 2.94133 30.2667 2.408 29.392C1.88533 28.5067 1.624 27.5093 1.624 26.4C1.624 25.2907 1.88533 24.2987 2.408 23.424C2.94133 22.5387 3.66667 21.8507 4.584 21.36C5.512 20.8587 6.552 20.608 7.704 20.608C8.67467 20.608 9.54933 20.7787 10.328 21.12C11.1173 21.4613 11.7787 21.952 12.312 22.592L10.648 24.128C9.89067 23.2533 8.952 22.816 7.832 22.816C7.13867 22.816 6.52 22.9707 5.976 23.28C5.432 23.5787 5.00533 24 4.696 24.544C4.39733 25.088 4.248 25.7067 4.248 26.4C4.248 27.0933 4.39733 27.712 4.696 28.256C5.00533 28.8 5.432 29.2267 5.976 29.536C6.52 29.8347 7.13867 29.984 7.832 29.984C8.952 29.984 9.89067 29.5413 10.648 28.656L12.312 30.192C11.7787 30.8427 11.1173 31.3387 10.328 31.68C9.53867 32.0213 8.65867 32.192 7.688 32.192ZM17.2959 23.264C18.6292 23.264 19.6532 23.584 20.3679 24.224C21.0825 24.8533 21.4399 25.808 21.4399 27.088V32H19.1039V30.928C18.6345 31.728 17.7599 32.128 16.4799 32.128C15.8185 32.128 15.2425 32.016 14.7519 31.792C14.2719 31.568 13.9039 31.2587 13.6479 30.864C13.3919 30.4693 13.2639 30.0213 13.2639 29.52C13.2639 28.72 13.5625 28.0907 14.1599 27.632C14.7679 27.1733 15.7012 26.944 16.9599 26.944H18.9439C18.9439 26.4 18.7785 25.984 18.4479 25.696C18.1172 25.3973 17.6212 25.248 16.9599 25.248C16.5012 25.248 16.0479 25.3227 15.5999 25.472C15.1625 25.6107 14.7892 25.8027 14.4799 26.048L13.5839 24.304C14.0532 23.9733 14.6132 23.7173 15.2639 23.536C15.9252 23.3547 16.6025 23.264 17.2959 23.264ZM17.1039 30.448C17.5305 30.448 17.9092 30.352 18.2399 30.16C18.5705 29.9573 18.8052 29.664 18.9439 29.28V28.4H17.2319C16.2079 28.4 15.6959 28.736 15.6959 29.408C15.6959 29.728 15.8185 29.984 16.0639 30.176C16.3199 30.3573 16.6665 30.448 17.1039 30.448ZM26.5949 32.128C25.8802 32.128 25.1815 32.0427 24.4989 31.872C23.8162 31.6907 23.2722 31.4667 22.8669 31.2L23.6989 29.408C24.0829 29.6533 24.5469 29.856 25.0909 30.016C25.6349 30.1653 26.1682 30.24 26.6909 30.24C27.7469 30.24 28.2749 29.9787 28.2749 29.456C28.2749 29.2107 28.1309 29.0347 27.8429 28.928C27.5549 28.8213 27.1122 28.7307 26.5149 28.656C25.8109 28.5493 25.2295 28.4267 24.7709 28.288C24.3122 28.1493 23.9122 27.904 23.5709 27.552C23.2402 27.2 23.0749 26.6987 23.0749 26.048C23.0749 25.504 23.2295 25.024 23.5389 24.608C23.8589 24.1813 24.3175 23.8507 24.9149 23.616C25.5229 23.3813 26.2375 23.264 27.0589 23.264C27.6669 23.264 28.2695 23.3333 28.8669 23.472C29.4749 23.6 29.9762 23.7813 30.3709 24.016L29.5389 25.792C28.7815 25.3653 27.9549 25.152 27.0589 25.152C26.5255 25.152 26.1255 25.2267 25.8589 25.376C25.5922 25.5253 25.4589 25.7173 25.4589 25.952C25.4589 26.2187 25.6029 26.4053 25.8909 26.512C26.1789 26.6187 26.6375 26.72 27.2669 26.816C27.9709 26.9333 28.5469 27.0613 28.9949 27.2C29.4429 27.328 29.8322 27.568 30.1629 27.92C30.4935 28.272 30.6589 28.7627 30.6589 29.392C30.6589 29.9253 30.4989 30.4 30.1789 30.816C29.8589 31.232 29.3895 31.5573 28.7709 31.792C28.1629 32.016 27.4375 32.128 26.5949 32.128ZM35.6709 23.264C37.0042 23.264 38.0282 23.584 38.7429 24.224C39.4575 24.8533 39.8149 25.808 39.8149 27.088V32H37.4789V30.928C37.0095 31.728 36.1349 32.128 34.8549 32.128C34.1935 32.128 33.6175 32.016 33.1269 31.792C32.6469 31.568 32.2789 31.2587 32.0229 30.864C31.7669 30.4693 31.6389 30.0213 31.6389 29.52C31.6389 28.72 31.9375 28.0907 32.5349 27.632C33.1429 27.1733 34.0762 26.944 35.3349 26.944H37.3189C37.3189 26.4 37.1535 25.984 36.8229 25.696C36.4922 25.3973 35.9962 25.248 35.3349 25.248C34.8762 25.248 34.4229 25.3227 33.9749 25.472C33.5375 25.6107 33.1642 25.8027 32.8549 26.048L31.9589 24.304C32.4282 23.9733 32.9882 23.7173 33.6389 23.536C34.3002 23.3547 34.9775 23.264 35.6709 23.264ZM35.4789 30.448C35.9055 30.448 36.2842 30.352 36.6149 30.16C36.9455 29.9573 37.1802 29.664 37.3189 29.28V28.4H35.6069C34.5829 28.4 34.0709 28.736 34.0709 29.408C34.0709 29.728 34.1935 29.984 34.4389 30.176C34.6949 30.3573 35.0415 30.448 35.4789 30.448ZM57.0531 20.8V32H54.4611V27.408H49.3731V32H46.7811V20.8H49.3731V25.216H54.4611V20.8H57.0531ZM63.623 32.128C62.7163 32.128 61.9003 31.9413 61.175 31.568C60.4603 31.184 59.9003 30.656 59.495 29.984C59.0897 29.312 58.887 28.5493 58.887 27.696C58.887 26.8427 59.0897 26.08 59.495 25.408C59.9003 24.736 60.4603 24.2133 61.175 23.84C61.9003 23.456 62.7163 23.264 63.623 23.264C64.5297 23.264 65.3403 23.456 66.055 23.84C66.7697 24.2133 67.3297 24.736 67.735 25.408C68.1403 26.08 68.343 26.8427 68.343 27.696C68.343 28.5493 68.1403 29.312 67.735 29.984C67.3297 30.656 66.7697 31.184 66.055 31.568C65.3403 31.9413 64.5297 32.128 63.623 32.128ZM63.623 30.08C64.263 30.08 64.7857 29.8667 65.191 29.44C65.607 29.0027 65.815 28.4213 65.815 27.696C65.815 26.9707 65.607 26.3947 65.191 25.968C64.7857 25.5307 64.263 25.312 63.623 25.312C62.983 25.312 62.455 25.5307 62.039 25.968C61.623 26.3947 61.415 26.9707 61.415 27.696C61.415 28.4213 61.623 29.0027 62.039 29.44C62.455 29.8667 62.983 30.08 63.623 30.08ZM78.8914 23.392V30.56C78.8914 32.1387 78.4807 33.312 77.6594 34.08C76.838 34.848 75.638 35.232 74.0594 35.232C73.2274 35.232 72.438 35.1307 71.6914 34.928C70.9447 34.7253 70.326 34.432 69.8354 34.048L70.8274 32.256C71.19 32.5547 71.6487 32.7893 72.2034 32.96C72.758 33.1413 73.3127 33.232 73.8674 33.232C74.7314 33.232 75.366 33.0347 75.7714 32.64C76.1874 32.256 76.3954 31.6693 76.3954 30.88V30.512C75.7447 31.2267 74.838 31.584 73.6754 31.584C72.886 31.584 72.1607 31.4133 71.4994 31.072C70.8487 30.72 70.3314 30.2293 69.9474 29.6C69.5634 28.9707 69.3714 28.2453 69.3714 27.424C69.3714 26.6027 69.5634 25.8773 69.9474 25.248C70.3314 24.6187 70.8487 24.1333 71.4994 23.792C72.1607 23.44 72.886 23.264 73.6754 23.264C74.9234 23.264 75.8727 23.6747 76.5234 24.496V23.392H78.8914ZM74.1714 29.536C74.8327 29.536 75.3714 29.344 75.7874 28.96C76.214 28.5653 76.4274 28.0533 76.4274 27.424C76.4274 26.7947 76.214 26.288 75.7874 25.904C75.3714 25.5093 74.8327 25.312 74.1714 25.312C73.51 25.312 72.966 25.5093 72.5394 25.904C72.1127 26.288 71.8994 26.7947 71.8994 27.424C71.8994 28.0533 72.1127 28.5653 72.5394 28.96C72.966 29.344 73.51 29.536 74.1714 29.536ZM84.6865 23.264C86.0198 23.264 87.0438 23.584 87.7585 24.224C88.4732 24.8533 88.8305 25.808 88.8305 27.088V32H86.4945V30.928C86.0252 31.728 85.1505 32.128 83.8705 32.128C83.2092 32.128 82.6332 32.016 82.1425 31.792C81.6625 31.568 81.2945 31.2587 81.0385 30.864C80.7825 30.4693 80.6545 30.0213 80.6545 29.52C80.6545 28.72 80.9532 28.0907 81.5505 27.632C82.1585 27.1733 83.0918 26.944 84.3505 26.944H86.3345C86.3345 26.4 86.1692 25.984 85.8385 25.696C85.5078 25.3973 85.0118 25.248 84.3505 25.248C83.8918 25.248 83.4385 25.3227 82.9905 25.472C82.5532 25.6107 82.1798 25.8027 81.8705 26.048L80.9745 24.304C81.4438 23.9733 82.0038 23.7173 82.6545 23.536C83.3158 23.3547 83.9932 23.264 84.6865 23.264ZM84.4945 30.448C84.9212 30.448 85.2998 30.352 85.6305 30.16C85.9612 29.9573 86.1958 29.664 86.3345 29.28V28.4H84.6225C83.5985 28.4 83.0865 28.736 83.0865 29.408C83.0865 29.728 83.2092 29.984 83.4545 30.176C83.7105 30.3573 84.0572 30.448 84.4945 30.448ZM93.4735 24.528C93.7722 24.112 94.1722 23.7973 94.6735 23.584C95.1855 23.3707 95.7722 23.264 96.4335 23.264V25.568C96.1562 25.5467 95.9695 25.536 95.8735 25.536C95.1588 25.536 94.5988 25.7387 94.1935 26.144C93.7882 26.5387 93.5855 27.136 93.5855 27.936V32H91.0895V23.392H93.4735V24.528ZM111.279 20.128V32H108.895V31.008C108.277 31.7547 107.381 32.128 106.207 32.128C105.397 32.128 104.661 31.9467 103.999 31.584C103.349 31.2213 102.837 30.704 102.463 30.032C102.09 29.36 101.903 28.5813 101.903 27.696C101.903 26.8107 102.09 26.032 102.463 25.36C102.837 24.688 103.349 24.1707 103.999 23.808C104.661 23.4453 105.397 23.264 106.207 23.264C107.306 23.264 108.165 23.6107 108.783 24.304V20.128H111.279ZM106.639 30.08C107.269 30.08 107.791 29.8667 108.207 29.44C108.623 29.0027 108.831 28.4213 108.831 27.696C108.831 26.9707 108.623 26.3947 108.207 25.968C107.791 25.5307 107.269 25.312 106.639 25.312C105.999 25.312 105.471 25.5307 105.055 25.968C104.639 26.3947 104.431 26.9707 104.431 27.696C104.431 28.4213 104.639 29.0027 105.055 29.44C105.471 29.8667 105.999 30.08 106.639 30.08ZM122.022 27.728C122.022 27.76 122.006 27.984 121.974 28.4H115.462C115.579 28.9333 115.856 29.3547 116.294 29.664C116.731 29.9733 117.275 30.128 117.926 30.128C118.374 30.128 118.768 30.064 119.11 29.936C119.462 29.7973 119.787 29.584 120.086 29.296L121.414 30.736C120.603 31.664 119.419 32.128 117.862 32.128C116.891 32.128 116.032 31.9413 115.286 31.568C114.539 31.184 113.963 30.656 113.558 29.984C113.152 29.312 112.95 28.5493 112.95 27.696C112.95 26.8533 113.147 26.096 113.542 25.424C113.947 24.7413 114.496 24.2133 115.19 23.84C115.894 23.456 116.678 23.264 117.542 23.264C118.384 23.264 119.147 23.4453 119.83 23.808C120.512 24.1707 121.046 24.6933 121.43 25.376C121.824 26.048 122.022 26.832 122.022 27.728ZM117.558 25.152C116.992 25.152 116.518 25.312 116.134 25.632C115.75 25.952 115.515 26.3893 115.43 26.944H119.67C119.584 26.4 119.35 25.968 118.966 25.648C118.582 25.3173 118.112 25.152 117.558 25.152ZM123.683 20.128H126.179V32H123.683V20.128ZM140.579 29.6H135.379L134.387 32H131.731L136.723 20.8H139.283L144.291 32H141.571L140.579 29.6ZM139.763 27.632L137.987 23.344L136.211 27.632H139.763ZM150.509 23.264C151.576 23.264 152.434 23.584 153.085 24.224C153.746 24.864 154.077 25.8133 154.077 27.072V32H151.581V27.456C151.581 26.7733 151.432 26.2667 151.133 25.936C150.834 25.5947 150.402 25.424 149.837 25.424C149.208 25.424 148.706 25.6213 148.333 26.016C147.96 26.4 147.773 26.976 147.773 27.744V32H145.277V23.392H147.661V24.4C147.992 24.0373 148.402 23.76 148.893 23.568C149.384 23.3653 149.922 23.264 150.509 23.264ZM160.593 32.128C159.676 32.128 158.849 31.9413 158.113 31.568C157.388 31.184 156.817 30.656 156.401 29.984C155.996 29.312 155.793 28.5493 155.793 27.696C155.793 26.8427 155.996 26.08 156.401 25.408C156.817 24.736 157.388 24.2133 158.113 23.84C158.849 23.456 159.676 23.264 160.593 23.264C161.5 23.264 162.289 23.456 162.961 23.84C163.644 24.2133 164.14 24.752 164.449 25.456L162.513 26.496C162.065 25.7067 161.42 25.312 160.577 25.312C159.927 25.312 159.388 25.5253 158.961 25.952C158.535 26.3787 158.321 26.96 158.321 27.696C158.321 28.432 158.535 29.0133 158.961 29.44C159.388 29.8667 159.927 30.08 160.577 30.08C161.431 30.08 162.076 29.6853 162.513 28.896L164.449 29.952C164.14 30.6347 163.644 31.168 162.961 31.552C162.289 31.936 161.5 32.128 160.593 32.128ZM165.886 23.392H168.382V32H165.886V23.392ZM167.134 22.192C166.676 22.192 166.302 22.0587 166.014 21.792C165.726 21.5253 165.582 21.1947 165.582 20.8C165.582 20.4053 165.726 20.0747 166.014 19.808C166.302 19.5413 166.676 19.408 167.134 19.408C167.593 19.408 167.966 19.536 168.254 19.792C168.542 20.048 168.686 20.368 168.686 20.752C168.686 21.168 168.542 21.5147 168.254 21.792C167.966 22.0587 167.593 22.192 167.134 22.192ZM174.171 23.264C175.504 23.264 176.528 23.584 177.243 24.224C177.958 24.8533 178.315 25.808 178.315 27.088V32H175.979V30.928C175.51 31.728 174.635 32.128 173.355 32.128C172.694 32.128 172.118 32.016 171.627 31.792C171.147 31.568 170.779 31.2587 170.523 30.864C170.267 30.4693 170.139 30.0213 170.139 29.52C170.139 28.72 170.438 28.0907 171.035 27.632C171.643 27.1733 172.576 26.944 173.835 26.944H175.819C175.819 26.4 175.654 25.984 175.323 25.696C174.992 25.3973 174.496 25.248 173.835 25.248C173.376 25.248 172.923 25.3227 172.475 25.472C172.038 25.6107 171.664 25.8027 171.355 26.048L170.459 24.304C170.928 23.9733 171.488 23.7173 172.139 23.536C172.8 23.3547 173.478 23.264 174.171 23.264ZM173.979 30.448C174.406 30.448 174.784 30.352 175.115 30.16C175.446 29.9573 175.68 29.664 175.819 29.28V28.4H174.107C173.083 28.4 172.571 28.736 172.571 29.408C172.571 29.728 172.694 29.984 172.939 30.176C173.195 30.3573 173.542 30.448 173.979 30.448ZM185.806 23.264C186.873 23.264 187.731 23.584 188.382 24.224C189.043 24.864 189.374 25.8133 189.374 27.072V32H186.878V27.456C186.878 26.7733 186.729 26.2667 186.43 25.936C186.131 25.5947 185.699 25.424 185.134 25.424C184.505 25.424 184.003 25.6213 183.63 26.016C183.257 26.4 183.07 26.976 183.07 27.744V32H180.574V23.392H182.958V24.4C183.289 24.0373 183.699 23.76 184.19 23.568C184.681 23.3653 185.219 23.264 185.806 23.264ZM195.826 32.128C194.919 32.128 194.103 31.9413 193.378 31.568C192.663 31.184 192.103 30.656 191.698 29.984C191.293 29.312 191.09 28.5493 191.09 27.696C191.09 26.8427 191.293 26.08 191.698 25.408C192.103 24.736 192.663 24.2133 193.378 23.84C194.103 23.456 194.919 23.264 195.826 23.264C196.733 23.264 197.543 23.456 198.258 23.84C198.973 24.2133 199.533 24.736 199.938 25.408C200.343 26.08 200.546 26.8427 200.546 27.696C200.546 28.5493 200.343 29.312 199.938 29.984C199.533 30.656 198.973 31.184 198.258 31.568C197.543 31.9413 196.733 32.128 195.826 32.128ZM195.826 30.08C196.466 30.08 196.989 29.8667 197.394 29.44C197.81 29.0027 198.018 28.4213 198.018 27.696C198.018 26.9707 197.81 26.3947 197.394 25.968C196.989 25.5307 196.466 25.312 195.826 25.312C195.186 25.312 194.658 25.5307 194.242 25.968C193.826 26.3947 193.618 26.9707 193.618 27.696C193.618 28.4213 193.826 29.0027 194.242 29.44C194.658 29.8667 195.186 30.08 195.826 30.08ZM10.92 40.128V52H8.536V51.008C7.91733 51.7547 7.02133 52.128 5.848 52.128C5.03733 52.128 4.30133 51.9467 3.64 51.584C2.98933 51.2213 2.47733 50.704 2.104 50.032C1.73067 49.36 1.544 48.5813 1.544 47.696C1.544 46.8107 1.73067 46.032 2.104 45.36C2.47733 44.688 2.98933 44.1707 3.64 43.808C4.30133 43.4453 5.03733 43.264 5.848 43.264C6.94667 43.264 7.80533 43.6107 8.424 44.304V40.128H10.92ZM6.28 50.08C6.90933 50.08 7.432 49.8667 7.848 49.44C8.264 49.0027 8.472 48.4213 8.472 47.696C8.472 46.9707 8.264 46.3947 7.848 45.968C7.432 45.5307 6.90933 45.312 6.28 45.312C5.64 45.312 5.112 45.5307 4.696 45.968C4.28 46.3947 4.072 46.9707 4.072 47.696C4.072 48.4213 4.28 49.0027 4.696 49.44C5.112 49.8667 5.64 50.08 6.28 50.08ZM21.6621 47.728C21.6621 47.76 21.6461 47.984 21.6141 48.4H15.1021C15.2195 48.9333 15.4968 49.3547 15.9341 49.664C16.3715 49.9733 16.9155 50.128 17.5661 50.128C18.0141 50.128 18.4088 50.064 18.7501 49.936C19.1021 49.7973 19.4275 49.584 19.7261 49.296L21.0541 50.736C20.2435 51.664 19.0595 52.128 17.5021 52.128C16.5315 52.128 15.6728 51.9413 14.9261 51.568C14.1795 51.184 13.6035 50.656 13.1981 49.984C12.7928 49.312 12.5901 48.5493 12.5901 47.696C12.5901 46.8533 12.7875 46.096 13.1821 45.424C13.5875 44.7413 14.1368 44.2133 14.8301 43.84C15.5341 43.456 16.3181 43.264 17.1821 43.264C18.0248 43.264 18.7875 43.4453 19.4701 43.808C20.1528 44.1707 20.6861 44.6933 21.0701 45.376C21.4648 46.048 21.6621 46.832 21.6621 47.728ZM17.1981 45.152C16.6328 45.152 16.1581 45.312 15.7741 45.632C15.3901 45.952 15.1555 46.3893 15.0701 46.944H19.3101C19.2248 46.4 18.9901 45.968 18.6061 45.648C18.2221 45.3173 17.7528 45.152 17.1981 45.152ZM36.7031 49.92V52H28.0311V40.8H36.4951V42.88H30.6071V45.312H35.8071V47.328H30.6071V49.92H36.7031ZM43.8215 43.264C44.8882 43.264 45.7468 43.584 46.3975 44.224C47.0588 44.864 47.3895 45.8133 47.3895 47.072V52H44.8935V47.456C44.8935 46.7733 44.7442 46.2667 44.4455 45.936C44.1468 45.5947 43.7148 45.424 43.1495 45.424C42.5202 45.424 42.0188 45.6213 41.6455 46.016C41.2722 46.4 41.0855 46.976 41.0855 47.744V52H38.5895V43.392H40.9735V44.4C41.3042 44.0373 41.7148 43.76 42.2055 43.568C42.6962 43.3653 43.2348 43.264 43.8215 43.264ZM52.548 52.128C51.8333 52.128 51.1347 52.0427 50.452 51.872C49.7693 51.6907 49.2253 51.4667 48.82 51.2L49.652 49.408C50.036 49.6533 50.5 49.856 51.044 50.016C51.588 50.1653 52.1213 50.24 52.644 50.24C53.7 50.24 54.228 49.9787 54.228 49.456C54.228 49.2107 54.084 49.0347 53.796 48.928C53.508 48.8213 53.0653 48.7307 52.468 48.656C51.764 48.5493 51.1827 48.4267 50.724 48.288C50.2653 48.1493 49.8653 47.904 49.524 47.552C49.1933 47.2 49.028 46.6987 49.028 46.048C49.028 45.504 49.1827 45.024 49.492 44.608C49.812 44.1813 50.2707 43.8507 50.868 43.616C51.476 43.3813 52.1907 43.264 53.012 43.264C53.62 43.264 54.2227 43.3333 54.82 43.472C55.428 43.6 55.9293 43.7813 56.324 44.016L55.492 45.792C54.7347 45.3653 53.908 45.152 53.012 45.152C52.4787 45.152 52.0787 45.2267 51.812 45.376C51.5453 45.5253 51.412 45.7173 51.412 45.952C51.412 46.2187 51.556 46.4053 51.844 46.512C52.132 46.6187 52.5907 46.72 53.22 46.816C53.924 46.9333 54.5 47.0613 54.948 47.2C55.396 47.328 55.7853 47.568 56.116 47.92C56.4467 48.272 56.612 48.7627 56.612 49.392C56.612 49.9253 56.452 50.4 56.132 50.816C55.812 51.232 55.3427 51.5573 54.724 51.792C54.116 52.016 53.3907 52.128 52.548 52.128ZM66.584 47.728C66.584 47.76 66.568 47.984 66.536 48.4H60.024C60.1413 48.9333 60.4187 49.3547 60.856 49.664C61.2933 49.9733 61.8373 50.128 62.488 50.128C62.936 50.128 63.3307 50.064 63.672 49.936C64.024 49.7973 64.3493 49.584 64.648 49.296L65.976 50.736C65.1653 51.664 63.9813 52.128 62.424 52.128C61.4533 52.128 60.5947 51.9413 59.848 51.568C59.1013 51.184 58.5253 50.656 58.12 49.984C57.7147 49.312 57.512 48.5493 57.512 47.696C57.512 46.8533 57.7093 46.096 58.104 45.424C58.5093 44.7413 59.0587 44.2133 59.752 43.84C60.456 43.456 61.24 43.264 62.104 43.264C62.9467 43.264 63.7093 43.4453 64.392 43.808C65.0747 44.1707 65.608 44.6933 65.992 45.376C66.3867 46.048 66.584 46.832 66.584 47.728ZM62.12 45.152C61.5547 45.152 61.08 45.312 60.696 45.632C60.312 45.952 60.0773 46.3893 59.992 46.944H64.232C64.1467 46.4 63.912 45.968 63.528 45.648C63.144 45.3173 62.6747 45.152 62.12 45.152ZM73.4778 43.264C74.5444 43.264 75.4031 43.584 76.0538 44.224C76.7151 44.864 77.0458 45.8133 77.0458 47.072V52H74.5498V47.456C74.5498 46.7733 74.4004 46.2667 74.1018 45.936C73.8031 45.5947 73.3711 45.424 72.8058 45.424C72.1764 45.424 71.6751 45.6213 71.3018 46.016C70.9284 46.4 70.7418 46.976 70.7418 47.744V52H68.2458V43.392H70.6298V44.4C70.9604 44.0373 71.3711 43.76 71.8618 43.568C72.3524 43.3653 72.8911 43.264 73.4778 43.264ZM82.7803 43.264C84.1136 43.264 85.1376 43.584 85.8523 44.224C86.5669 44.8533 86.9243 45.808 86.9243 47.088V52H84.5883V50.928C84.1189 51.728 83.2443 52.128 81.9643 52.128C81.3029 52.128 80.7269 52.016 80.2363 51.792C79.7563 51.568 79.3883 51.2587 79.1323 50.864C78.8763 50.4693 78.7483 50.0213 78.7483 49.52C78.7483 48.72 79.0469 48.0907 79.6443 47.632C80.2523 47.1733 81.1856 46.944 82.4443 46.944H84.4283C84.4283 46.4 84.2629 45.984 83.9323 45.696C83.6016 45.3973 83.1056 45.248 82.4443 45.248C81.9856 45.248 81.5323 45.3227 81.0843 45.472C80.6469 45.6107 80.2736 45.8027 79.9643 46.048L79.0683 44.304C79.5376 43.9733 80.0976 43.7173 80.7483 43.536C81.4096 43.3547 82.0869 43.264 82.7803 43.264ZM82.5883 50.448C83.0149 50.448 83.3936 50.352 83.7243 50.16C84.0549 49.9573 84.2896 49.664 84.4283 49.28V48.4H82.7163C81.6923 48.4 81.1803 48.736 81.1803 49.408C81.1803 49.728 81.3029 49.984 81.5483 50.176C81.8043 50.3573 82.1509 50.448 82.5883 50.448ZM98.045 40.128V52H95.661V51.008C95.0423 51.7547 94.1463 52.128 92.973 52.128C92.1623 52.128 91.4263 51.9467 90.765 51.584C90.1143 51.2213 89.6023 50.704 89.229 50.032C88.8557 49.36 88.669 48.5813 88.669 47.696C88.669 46.8107 88.8557 46.032 89.229 45.36C89.6023 44.688 90.1143 44.1707 90.765 43.808C91.4263 43.4453 92.1623 43.264 92.973 43.264C94.0717 43.264 94.9303 43.6107 95.549 44.304V40.128H98.045ZM93.405 50.08C94.0343 50.08 94.557 49.8667 94.973 49.44C95.389 49.0027 95.597 48.4213 95.597 47.696C95.597 46.9707 95.389 46.3947 94.973 45.968C94.557 45.5307 94.0343 45.312 93.405 45.312C92.765 45.312 92.237 45.5307 91.821 45.968C91.405 46.3947 91.197 46.9707 91.197 47.696C91.197 48.4213 91.405 49.0027 91.821 49.44C92.237 49.8667 92.765 50.08 93.405 50.08ZM103.827 43.264C105.16 43.264 106.184 43.584 106.899 44.224C107.614 44.8533 107.971 45.808 107.971 47.088V52H105.635V50.928C105.166 51.728 104.291 52.128 103.011 52.128C102.35 52.128 101.774 52.016 101.283 51.792C100.803 51.568 100.435 51.2587 100.179 50.864C99.9231 50.4693 99.7951 50.0213 99.7951 49.52C99.7951 48.72 100.094 48.0907 100.691 47.632C101.299 47.1733 102.232 46.944 103.491 46.944H105.475C105.475 46.4 105.31 45.984 104.979 45.696C104.648 45.3973 104.152 45.248 103.491 45.248C103.032 45.248 102.579 45.3227 102.131 45.472C101.694 45.6107 101.32 45.8027 101.011 46.048L100.115 44.304C100.584 43.9733 101.144 43.7173 101.795 43.536C102.456 43.3547 103.134 43.264 103.827 43.264ZM103.635 50.448C104.062 50.448 104.44 50.352 104.771 50.16C105.102 49.9573 105.336 49.664 105.475 49.28V48.4H103.763C102.739 48.4 102.227 48.736 102.227 49.408C102.227 49.728 102.35 49.984 102.595 50.176C102.851 50.3573 103.198 50.448 103.635 50.448Z" fill="#FFB701"/>
</svg>
