<svg width="40" height="30" viewBox="0 0 40 30" fill="none" xmlns="http://www.w3.org/2000/svg">
<path d="M0 0.599976V1.39998V29.4H40V0.599976H0ZM1.6 2.19998H38.4V4.20466C38.0606 4.50051 23.851 16.8848 22.6688 17.914C21.631 18.8175 20.5739 19.0015 20 19.0015C19.4267 19.0015 18.3691 18.8176 17.3313 17.914C16.149 16.8848 1.93943 4.50051 1.6 4.20466V2.19998ZM1.6 6.32029C3.55038 8.02042 15.1741 18.1535 16.2828 19.1187C17.6433 20.3032 19.0837 20.5984 20 20.5984C20.9157 20.5984 22.3565 20.3033 23.7172 19.1187C24.8259 18.1535 36.4495 8.02185 38.4 6.32185V27.8H1.6V6.32029Z" fill="black"/>
</svg>
