<svg width="39" height="40" viewBox="0 0 39 40" fill="none" xmlns="http://www.w3.org/2000/svg">
<path d="M27.5002 0.800003C24.6502 0.800003 21.8002 1.9375 19.5752 4.075C19.5658 4.09063 19.5564 4.10938 19.5502 4.125C19.5533 4.11875 19.2096 4.4625 18.7502 4.925C18.2908 5.3875 17.6627 6.00938 16.9252 6.75C15.4502 8.23125 13.5252 10.15 11.6002 12.075C9.6752 14 7.7627 15.9344 6.2752 17.425C5.53145 18.1719 4.89395 18.8 4.4252 19.275C3.9752 19.7281 3.71895 19.9906 3.5752 20.15C3.56895 20.1563 3.55645 20.1938 3.5502 20.2C-0.793552 24.5875 -0.802927 31.6313 3.5752 35.925C5.7252 38.075 8.5752 39.2 11.5002 39.2C14.4252 39.2 17.2096 38.0563 19.4252 35.925L35.5002 19.85C39.8846 15.4656 39.8939 8.38125 35.5002 4.075C33.2752 1.9375 30.4252 0.800003 27.5002 0.800003ZM27.5002 2.4C30.0158 2.4 32.4377 3.3625 34.3752 5.225C38.1283 8.91875 38.1471 14.9531 34.3752 18.725L27.6752 25.425L14.0752 11.85C15.4877 10.4344 16.9502 8.97813 18.0502 7.875C18.7877 7.13438 19.4127 6.51563 19.8752 6.05C20.3096 5.60938 20.5533 5.39063 20.7002 5.225C20.7096 5.21563 20.7408 5.18438 20.7502 5.175C22.6783 3.34688 25.0908 2.4 27.5002 2.4ZM12.9502 12.975L26.5252 26.575L18.3002 34.775C17.4314 35.6094 16.4814 36.2594 15.4752 36.725C15.4346 36.3219 15.1127 36 14.7002 36C14.2596 36 13.9002 36.3594 13.9002 36.8C13.9002 36.9688 13.9596 37.1219 14.0502 37.25C13.2283 37.4781 12.3752 37.6 11.5002 37.6C11.0752 37.6 10.6439 37.5531 10.2252 37.5C10.4971 37.3719 10.7002 37.1188 10.7002 36.8C10.7002 36.3594 10.3408 36 9.9002 36C9.45957 36 9.1002 36.3594 9.1002 36.8C9.1002 37.0094 9.16895 37.2063 9.3002 37.35C7.59082 36.9563 6.00332 36.1031 4.7002 34.8C3.3627 33.4875 2.5127 31.875 2.1252 30.175C2.26895 30.3188 2.47832 30.4 2.7002 30.4C3.14082 30.4 3.5002 30.0406 3.5002 29.6C3.5002 29.1594 3.14082 28.8 2.7002 28.8C2.36895 28.8 2.09707 29.0125 1.9752 29.3C1.80645 28.0125 1.89082 26.7125 2.2502 25.45C2.37832 25.5406 2.53145 25.6 2.7002 25.6C3.14082 25.6 3.5002 25.2406 3.5002 24.8C3.5002 24.3875 3.17832 24.0656 2.7752 24.025C3.24082 23.0281 3.8752 22.1 4.7002 21.275C4.71582 21.2688 4.73457 21.2594 4.7502 21.25C4.77207 21.225 5.08457 20.8719 5.5502 20.4C6.01582 19.9281 6.65645 19.2938 7.4002 18.55C8.88457 17.0594 10.8002 15.15 12.7252 13.225C12.8096 13.1406 12.8658 13.0594 12.9502 12.975ZM12.3002 14.4C11.8596 14.4 11.5002 14.7594 11.5002 15.2C11.5002 15.6406 11.8596 16 12.3002 16C12.7408 16 13.1002 15.6406 13.1002 15.2C13.1002 14.7594 12.7408 14.4 12.3002 14.4ZM9.9002 16.8C9.45957 16.8 9.1002 17.1594 9.1002 17.6C9.1002 18.0406 9.45957 18.4 9.9002 18.4C10.3408 18.4 10.7002 18.0406 10.7002 17.6C10.7002 17.1594 10.3408 16.8 9.9002 16.8ZM14.7002 16.8C14.2596 16.8 13.9002 17.1594 13.9002 17.6C13.9002 18.0406 14.2596 18.4 14.7002 18.4C15.1408 18.4 15.5002 18.0406 15.5002 17.6C15.5002 17.1594 15.1408 16.8 14.7002 16.8ZM7.5002 19.2C7.05957 19.2 6.7002 19.5594 6.7002 20C6.7002 20.4406 7.05957 20.8 7.5002 20.8C7.94082 20.8 8.3002 20.4406 8.3002 20C8.3002 19.5594 7.94082 19.2 7.5002 19.2ZM12.3002 19.2C11.8596 19.2 11.5002 19.5594 11.5002 20C11.5002 20.4406 11.8596 20.8 12.3002 20.8C12.7408 20.8 13.1002 20.4406 13.1002 20C13.1002 19.5594 12.7408 19.2 12.3002 19.2ZM17.1002 19.2C16.6596 19.2 16.3002 19.5594 16.3002 20C16.3002 20.4406 16.6596 20.8 17.1002 20.8C17.5408 20.8 17.9002 20.4406 17.9002 20C17.9002 19.5594 17.5408 19.2 17.1002 19.2ZM5.1002 21.6C4.65957 21.6 4.3002 21.9594 4.3002 22.4C4.3002 22.8406 4.65957 23.2 5.1002 23.2C5.54082 23.2 5.9002 22.8406 5.9002 22.4C5.9002 21.9594 5.54082 21.6 5.1002 21.6ZM9.9002 21.6C9.45957 21.6 9.1002 21.9594 9.1002 22.4C9.1002 22.8406 9.45957 23.2 9.9002 23.2C10.3408 23.2 10.7002 22.8406 10.7002 22.4C10.7002 21.9594 10.3408 21.6 9.9002 21.6ZM14.7002 21.6C14.2596 21.6 13.9002 21.9594 13.9002 22.4C13.9002 22.8406 14.2596 23.2 14.7002 23.2C15.1408 23.2 15.5002 22.8406 15.5002 22.4C15.5002 21.9594 15.1408 21.6 14.7002 21.6ZM19.5002 21.6C19.0596 21.6 18.7002 21.9594 18.7002 22.4C18.7002 22.8406 19.0596 23.2 19.5002 23.2C19.9408 23.2 20.3002 22.8406 20.3002 22.4C20.3002 21.9594 19.9408 21.6 19.5002 21.6ZM7.5002 24C7.05957 24 6.7002 24.3594 6.7002 24.8C6.7002 25.2406 7.05957 25.6 7.5002 25.6C7.94082 25.6 8.3002 25.2406 8.3002 24.8C8.3002 24.3594 7.94082 24 7.5002 24ZM12.3002 24C11.8596 24 11.5002 24.3594 11.5002 24.8C11.5002 25.2406 11.8596 25.6 12.3002 25.6C12.7408 25.6 13.1002 25.2406 13.1002 24.8C13.1002 24.3594 12.7408 24 12.3002 24ZM17.1002 24C16.6596 24 16.3002 24.3594 16.3002 24.8C16.3002 25.2406 16.6596 25.6 17.1002 25.6C17.5408 25.6 17.9002 25.2406 17.9002 24.8C17.9002 24.3594 17.5408 24 17.1002 24ZM21.9002 24C21.4596 24 21.1002 24.3594 21.1002 24.8C21.1002 25.2406 21.4596 25.6 21.9002 25.6C22.3408 25.6 22.7002 25.2406 22.7002 24.8C22.7002 24.3594 22.3408 24 21.9002 24ZM5.1002 26.4C4.65957 26.4 4.3002 26.7594 4.3002 27.2C4.3002 27.6406 4.65957 28 5.1002 28C5.54082 28 5.9002 27.6406 5.9002 27.2C5.9002 26.7594 5.54082 26.4 5.1002 26.4ZM9.9002 26.4C9.45957 26.4 9.1002 26.7594 9.1002 27.2C9.1002 27.6406 9.45957 28 9.9002 28C10.3408 28 10.7002 27.6406 10.7002 27.2C10.7002 26.7594 10.3408 26.4 9.9002 26.4ZM14.7002 26.4C14.2596 26.4 13.9002 26.7594 13.9002 27.2C13.9002 27.6406 14.2596 28 14.7002 28C15.1408 28 15.5002 27.6406 15.5002 27.2C15.5002 26.7594 15.1408 26.4 14.7002 26.4ZM19.5002 26.4C19.0596 26.4 18.7002 26.7594 18.7002 27.2C18.7002 27.6406 19.0596 28 19.5002 28C19.9408 28 20.3002 27.6406 20.3002 27.2C20.3002 26.7594 19.9408 26.4 19.5002 26.4ZM24.3002 26.4C23.8596 26.4 23.5002 26.7594 23.5002 27.2C23.5002 27.6406 23.8596 28 24.3002 28C24.7408 28 25.1002 27.6406 25.1002 27.2C25.1002 26.7594 24.7408 26.4 24.3002 26.4ZM7.5002 28.8C7.05957 28.8 6.7002 29.1594 6.7002 29.6C6.7002 30.0406 7.05957 30.4 7.5002 30.4C7.94082 30.4 8.3002 30.0406 8.3002 29.6C8.3002 29.1594 7.94082 28.8 7.5002 28.8ZM12.3002 28.8C11.8596 28.8 11.5002 29.1594 11.5002 29.6C11.5002 30.0406 11.8596 30.4 12.3002 30.4C12.7408 30.4 13.1002 30.0406 13.1002 29.6C13.1002 29.1594 12.7408 28.8 12.3002 28.8ZM17.1002 28.8C16.6596 28.8 16.3002 29.1594 16.3002 29.6C16.3002 30.0406 16.6596 30.4 17.1002 30.4C17.5408 30.4 17.9002 30.0406 17.9002 29.6C17.9002 29.1594 17.5408 28.8 17.1002 28.8ZM21.9002 28.8C21.4596 28.8 21.1002 29.1594 21.1002 29.6C21.1002 30.0406 21.4596 30.4 21.9002 30.4C22.3408 30.4 22.7002 30.0406 22.7002 29.6C22.7002 29.1594 22.3408 28.8 21.9002 28.8ZM5.1002 31.2C4.65957 31.2 4.3002 31.5594 4.3002 32C4.3002 32.4406 4.65957 32.8 5.1002 32.8C5.54082 32.8 5.9002 32.4406 5.9002 32C5.9002 31.5594 5.54082 31.2 5.1002 31.2ZM9.9002 31.2C9.45957 31.2 9.1002 31.5594 9.1002 32C9.1002 32.4406 9.45957 32.8 9.9002 32.8C10.3408 32.8 10.7002 32.4406 10.7002 32C10.7002 31.5594 10.3408 31.2 9.9002 31.2ZM14.7002 31.2C14.2596 31.2 13.9002 31.5594 13.9002 32C13.9002 32.4406 14.2596 32.8 14.7002 32.8C15.1408 32.8 15.5002 32.4406 15.5002 32C15.5002 31.5594 15.1408 31.2 14.7002 31.2ZM19.5002 31.2C19.0596 31.2 18.7002 31.5594 18.7002 32C18.7002 32.4406 19.0596 32.8 19.5002 32.8C19.9408 32.8 20.3002 32.4406 20.3002 32C20.3002 31.5594 19.9408 31.2 19.5002 31.2ZM7.5002 33.6C7.05957 33.6 6.7002 33.9594 6.7002 34.4C6.7002 34.8406 7.05957 35.2 7.5002 35.2C7.94082 35.2 8.3002 34.8406 8.3002 34.4C8.3002 33.9594 7.94082 33.6 7.5002 33.6ZM12.3002 33.6C11.8596 33.6 11.5002 33.9594 11.5002 34.4C11.5002 34.8406 11.8596 35.2 12.3002 35.2C12.7408 35.2 13.1002 34.8406 13.1002 34.4C13.1002 33.9594 12.7408 33.6 12.3002 33.6ZM17.1002 33.6C16.6596 33.6 16.3002 33.9594 16.3002 34.4C16.3002 34.8406 16.6596 35.2 17.1002 35.2C17.5408 35.2 17.9002 34.8406 17.9002 34.4C17.9002 33.9594 17.5408 33.6 17.1002 33.6Z" fill="black"/>
</svg>
