<svg width="70" height="69" viewBox="0 0 70 69" fill="none" xmlns="http://www.w3.org/2000/svg">
<path d="M36.4 0.400024C30.2313 0.400024 25.2 5.43127 25.2 11.6C25.2 14.1977 26.5125 16.7297 28.3063 19.2125C30.1 21.6953 32.4188 24.1125 34.7375 26.2563C39.375 30.5383 44.0125 33.7375 44.0125 33.7375L44.8 34.3063L45.5875 33.7375C45.5875 33.7375 50.2305 30.5438 54.8625 26.2563C57.1813 24.1125 59.5 21.6899 61.2938 19.2125C63.0875 16.7352 64.4 14.1867 64.4 11.6C64.4 5.43127 59.3688 0.400024 53.2 0.400024C49.8094 0.400024 46.8508 1.99143 44.8 4.38127C42.7492 1.99143 39.7906 0.400024 36.4 0.400024ZM36.4 3.20002C39.468 3.20002 42.1477 4.86252 43.6188 7.31252L44.8 9.28127L45.9813 7.31252C47.4523 4.86252 50.132 3.20002 53.2 3.20002C57.8539 3.20002 61.6 6.94612 61.6 11.6C61.6 13.1641 60.6375 15.3078 59.0187 17.55C57.4 19.7922 55.1688 22.1328 52.9375 24.2C48.8688 27.968 45.4945 30.3141 44.8 30.8063C44.1055 30.3141 40.7313 27.9571 36.6625 24.2C34.4313 22.1383 32.2 19.836 30.5813 17.5938C28.9625 15.3516 28 13.186 28 11.6C28 6.94612 31.7461 3.20002 36.4 3.20002ZM64.4 35.4438C63.0438 35.5258 61.6875 36.1438 60.6813 37.15L46.9875 50.8H34.2125L33.6437 50.2313L41.825 48.6125C43.9141 48.1969 45.7078 46.611 46.1125 44.4125C46.7086 41.1477 44.1547 38.2 40.95 38.2H21.4375C18.0961 38.2 14.875 39.5125 12.5125 41.875L0.393752 53.9938L-0.568748 55L0.393752 56.0063L12.9938 68.6063L14 69.5688L15.0063 68.6063L19.775 63.7938C20.0375 63.5313 20.3656 63.4 20.7375 63.4H46.6813C48.5352 63.4 50.3125 62.6563 51.625 61.3438L68.425 44.5438C70.5742 42.3946 70.4867 38.8071 68.2063 36.7563C67.1125 35.7719 65.7562 35.3617 64.4 35.4438ZM64.5312 38.2438C65.1984 38.1946 65.8711 38.4078 66.3688 38.8563C67.4898 39.8625 67.5008 41.5305 66.4563 42.575L49.6562 59.375C48.8688 60.1625 47.7969 60.6 46.6813 60.6H20.7375C19.6219 60.6 18.5938 61.0375 17.8063 61.825L14 65.5875L3.4125 55L14.525 43.8875C16.3625 42.05 18.8398 41 21.4375 41H40.95C42.4703 41 43.6516 42.3071 43.3563 43.9313C43.1813 44.8828 42.3063 45.6485 41.2563 45.8563L30.5375 48.0438L27.9563 48.525L29.7938 50.4063L32.5938 53.2063L33.0312 53.6H48.1688L48.6063 53.2063L62.65 39.1188C63.1586 38.6102 63.8641 38.293 64.5312 38.2438Z" fill="black"/>
</svg>
