<svg width="40" height="40" viewBox="0 0 40 40" fill="none" xmlns="http://www.w3.org/2000/svg">
<path d="M19.9088 0C15.2729 0 11.6144 0.326087 8.77718 0.842391C8.70252 0.842391 8.63125 0.852582 8.55998 0.869565C8.54301 0.876359 8.52265 0.886549 8.50568 0.896739C8.48871 0.903533 8.46835 0.913723 8.45138 0.923913C5.17298 1.65761 3.07223 2.73437 1.77241 3.96739C0.465798 5.2072 0.00763619 6.58288 0.00763619 7.69022V20.163C0.00763619 20.1902 0.00763619 20.2174 0.00763619 20.2446C-0.0025454 20.3159 -0.0025454 20.3906 0.00763619 20.462C0.00763619 20.4721 0.00763619 20.4789 0.00763619 20.4891C0.0246049 20.5639 0.0517552 20.6386 0.0890871 20.7065C0.0890871 20.7167 0.0890871 20.7235 0.0890871 20.7337C0.0958751 20.7507 0.106056 20.7711 0.116237 20.788C0.116237 20.7982 0.116237 20.805 0.116237 20.8152C0.133206 20.8356 0.150176 20.8526 0.170538 20.8696C0.170538 20.8798 0.170538 20.8865 0.170538 20.8967C0.187507 20.9069 0.20787 20.9171 0.224839 20.9239C0.224839 20.9341 0.224839 20.9409 0.224839 20.9511C0.241807 20.9715 0.258777 20.9885 0.279139 21.0054C0.428466 21.1753 6.02482 27.534 8.80433 32.4728C10.2603 35.0577 10.9458 36.25 11.5465 37.0109C12.0556 37.6529 12.5307 37.928 13.0941 38.2609C13.1416 38.2948 13.1823 38.3356 13.2298 38.3696C13.2841 38.4035 13.335 38.4171 13.3927 38.4511C13.4572 38.5054 13.5319 38.553 13.6099 38.587C13.7118 38.6447 13.8068 38.7228 13.9086 38.7772C15.7514 39.7554 17.8624 40 19.9903 40C22.1148 40 24.1952 39.7826 26.0176 38.8043C26.1636 38.7262 26.3095 38.6209 26.452 38.5326C26.4995 38.5088 26.5437 38.4817 26.5878 38.4511C27.3073 38.0095 27.8333 37.7717 28.434 37.0109C29.0347 36.25 29.7202 35.0577 31.1762 32.4728C33.9184 27.6019 39.3552 21.3927 39.6471 21.0598C39.7082 21.0122 39.7625 20.9579 39.81 20.8967C39.81 20.8865 39.81 20.8798 39.81 20.8696C39.8643 20.805 39.9118 20.7303 39.9457 20.6522C40.0068 20.4857 40.017 20.3057 39.9729 20.1359V7.69022C39.9729 6.59986 39.5554 5.21399 38.2624 3.96739C36.9694 2.72079 34.8618 1.62704 31.4748 0.896739C29.6592 0.499321 24.694 0 19.9088 0ZM19.9088 1.73913C24.2087 1.73913 28.6003 2.1841 30.416 2.5C30.4058 22.1264 30.0766 27.962 28.5426 32.8261C27.8842 34.9151 26.9102 36.1379 25.719 36.9293C25.6918 36.9463 25.6952 36.9667 25.6647 36.9837C25.5153 37.0822 25.3592 37.1705 25.2031 37.2554C23.7709 38.0231 21.9858 38.2609 19.9903 38.2609C17.9981 38.2609 16.1824 38.0299 14.7231 37.2554C14.6586 37.2215 14.5941 37.1807 14.533 37.1467C14.5229 37.1365 14.5161 37.1298 14.5059 37.1196C14.472 37.089 14.4346 37.0618 14.3973 37.038C14.3701 37.0177 14.343 37.0007 14.3158 36.9837C14.1224 36.8648 14.0409 36.8173 13.9086 36.7391C12.826 35.9375 11.947 34.7384 11.3022 32.8261C10.4232 30.2174 10.0023 28.6583 9.78174 24.5924C9.56794 20.6624 9.56454 13.9844 9.56454 2.5C12.2185 2.04823 15.5715 1.73913 19.9088 1.73913ZM7.82692 2.82609C7.82692 8.53261 7.82692 13.1556 7.85407 16.6304C6.28275 16.8342 4.77591 17.0958 3.48287 17.5272C2.84484 17.7412 2.27129 18.0231 1.74526 18.3424V7.69022C1.74526 7.04823 1.96925 6.16508 2.96702 5.21739C3.84601 4.38179 5.35285 3.49185 7.82692 2.82609ZM32.1536 2.82609C34.6854 3.49185 36.1786 4.38519 37.0406 5.21739C38.0147 6.15829 38.2353 7.01427 38.2353 7.69022V18.3424C37.7126 18.0231 37.1594 17.7378 36.5248 17.5272C35.2012 17.0856 33.6536 16.8071 32.0178 16.6033C32.0959 12.9416 32.1502 8.48166 32.1536 2.82609ZM7.88122 18.3696C7.91177 20.9069 7.95589 23.0503 8.04413 24.6739C8.12897 26.2772 8.25454 27.5408 8.42423 28.6413C5.79744 24.7758 2.81091 21.267 1.96246 20.2989C2.36293 19.8845 3.05865 19.5075 4.02588 19.1848C5.09153 18.8315 6.43547 18.5666 7.88122 18.3696ZM31.9907 18.3696C33.4941 18.5598 34.8992 18.7976 35.9818 19.1576C36.9422 19.4769 37.621 19.8709 38.0181 20.2989C37.1289 21.3111 33.8607 25.1291 31.1762 29.1848C31.6072 26.5897 31.8515 23.2541 31.9907 18.3696Z" fill="black"/>
</svg>
