<svg width="37" height="38" viewBox="0 0 37 38" fill="none" xmlns="http://www.w3.org/2000/svg">
<path d="M7.64981 0.600006C6.80918 0.600006 6.10293 1.20938 5.92481 1.97501V2.00001C5.92481 2.00001 1.22481 23.5719 0.299806 27.875V27.9C0.162306 28.5875 0.299806 29.2531 0.699806 29.675C1.09981 30.0969 1.60606 30.2 2.02481 30.2H8.87481C8.65918 31.175 8.41856 32.2469 8.24981 33.025C8.09668 33.7281 7.96543 34.3 7.8748 34.725C7.78418 35.15 7.7498 35.3438 7.72481 35.475C7.65918 35.8219 7.67481 36.2188 7.94981 36.65C8.22481 37.0813 8.82793 37.4 9.4998 37.4H16.6498C17.5092 37.4 18.1967 36.8 18.3748 36C18.3748 36 18.8029 34.0719 19.2248 32.125C19.4342 31.15 19.6342 30.1844 19.7998 29.425C19.9654 28.6656 20.0998 28.075 20.0998 28.075C20.1404 27.9031 20.1748 27.8281 20.1748 27.825C20.1748 27.8219 20.0967 27.8 20.3248 27.8H24.4248C30.3311 27.8 35.2998 24.2438 36.6248 18.05C37.3717 14.5469 36.4779 11.8813 34.7748 10.2C33.2717 8.71563 31.2061 8.00938 29.2248 7.85001C28.9873 5.47188 27.8561 3.61563 26.3248 2.42501C24.7154 1.17501 22.7217 0.600006 20.8248 0.600006H7.64981ZM7.64981 2.20001H20.8248C22.3873 2.20001 24.0654 2.70001 25.3498 3.70001C26.5217 4.61251 27.3092 5.96876 27.5498 7.80001H15.2498C15.0404 7.80001 14.8092 7.77501 14.4498 7.87501C14.0904 7.97501 13.6498 8.39376 13.5498 8.82501L10.9498 20.525V20.575L9.14981 28.6H2.02481C1.90293 28.6 1.84356 28.5688 1.84981 28.575C1.85606 28.5813 1.82481 28.5188 1.87481 28.225C1.87793 28.2031 1.86856 28.225 1.87481 28.2C2.80293 23.8875 7.49043 2.39063 7.49981 2.35001V2.32501C7.52481 2.24376 7.57168 2.20001 7.64981 2.20001ZM15.0498 9.40001C15.1186 9.39688 15.1154 9.40001 15.2498 9.40001H27.6248C27.5904 9.92188 27.5186 10.475 27.3748 11.15C26.7811 13.9313 25.5779 15.8313 23.8248 17.1C22.0717 18.3688 19.7154 19 16.8498 19H13.3248C13.2029 19 13.0529 19.0344 12.8998 19.05L15.0498 9.40001ZM29.1498 9.52501C30.8029 9.67188 32.4936 10.2094 33.6498 11.35C34.9717 12.6563 35.7123 14.6188 35.0498 17.725C33.8654 23.2563 29.7123 26.2 24.4248 26.2H20.3248C19.7279 26.2 19.2061 26.4656 18.9248 26.825C18.6436 27.1844 18.5811 27.5656 18.5498 27.7C18.5123 27.8531 18.4154 28.3156 18.2498 29.075C18.0842 29.8344 17.8592 30.825 17.6498 31.8C17.2279 33.7469 16.8248 35.65 16.8248 35.65C16.8092 35.7156 16.6779 35.8 16.6498 35.8H9.4998C9.36543 35.8 9.31856 35.7813 9.2998 35.775C9.2873 35.8375 9.35918 35.5 9.44981 35.075C9.54043 34.65 9.67168 34.0531 9.82481 33.35C10.1279 31.9406 10.5248 30.0938 10.9248 28.25C11.7248 24.5625 12.5248 20.9 12.5248 20.9C12.5623 20.7844 12.5904 20.7563 12.7248 20.7C12.8748 20.6375 13.1311 20.6 13.3248 20.6H16.8498C19.9529 20.6 22.6529 19.9156 24.7498 18.4C26.8467 16.8844 28.2904 14.5563 28.9498 11.475C29.0998 10.7719 29.1092 10.1563 29.1498 9.52501Z" fill="black"/>
</svg>
