<svg width="36" height="36" viewBox="0 0 36 36" fill="none" xmlns="http://www.w3.org/2000/svg">
<path d="M7.47125 0.390617C6.85563 0.340617 6.17125 0.518742 5.54 0.962492C4.98375 1.34999 3.78375 2.30312 2.66188 3.38124C2.1025 3.91874 1.56813 4.47812 1.15563 5.02812C0.740004 5.57812 0.377504 6.08124 0.399379 6.81249C0.421254 7.46874 0.486879 9.40937 1.88375 12.3844C3.28063 15.3562 5.99 19.4344 11.2744 24.7219C16.5619 30.0094 20.64 32.7187 23.6119 34.1156C26.5838 35.5125 28.5275 35.5781 29.1838 35.6C29.9119 35.6219 30.415 35.2594 30.965 34.8437C31.515 34.4281 32.0744 33.8969 32.6119 33.3375C33.6869 32.2156 34.64 31.0156 35.0275 30.4594C35.9119 29.2 35.765 27.7125 34.7806 27.0219C34.1619 26.5875 28.4713 22.8 27.615 22.275C26.7463 21.7437 25.7463 21.9844 24.8525 22.4562C24.1494 22.8281 22.2463 23.9187 21.7025 24.2312C21.2931 23.9719 19.74 22.9375 16.3994 19.5969C13.0556 16.2562 12.0244 14.7031 11.765 14.2937C12.0775 13.75 13.165 11.8562 13.54 11.1406C14.0088 10.25 14.2713 9.24062 13.7119 8.36562C13.4775 7.99374 12.4119 6.37187 11.3369 4.74374C10.2588 3.11562 9.23688 1.57187 8.97125 1.20312V1.19999C8.62438 0.721867 8.08375 0.440617 7.47125 0.390617ZM7.32438 2.02499C7.54313 2.05312 7.67438 2.14062 7.67438 2.14062C7.8025 2.31874 8.92438 3.99999 9.99938 5.62499C11.0744 7.25312 12.1713 8.92187 12.3619 9.22499C12.3931 9.27187 12.4369 9.80312 12.1244 10.3937V10.3969C11.7713 11.0687 10.1244 13.9469 10.1244 13.9469L9.89625 14.35L10.1306 14.75C10.1306 14.75 11.3588 16.8219 15.265 20.7281C19.1744 24.6344 21.2463 25.8656 21.2463 25.8656L21.6463 26.1L22.0494 25.8719C22.0494 25.8719 24.9213 24.2281 25.5994 23.8719C26.19 23.5625 26.7213 23.6031 26.7838 23.6406C27.3369 23.9812 33.4838 28.0656 33.8619 28.3312C33.8744 28.3406 34.2088 28.8469 33.7213 29.5406H33.7181C33.4244 29.9625 32.4619 31.1844 31.4588 32.2281C30.9556 32.75 30.44 33.2375 30.0025 33.5656C29.565 33.8937 29.1744 33.9969 29.2369 34C28.5556 33.9781 27.0525 33.9625 24.2931 32.6656C21.5338 31.3719 17.5963 28.7812 12.4056 23.5875C7.21813 18.4 4.6275 14.4625 3.33063 11.7C2.03688 8.94062 2.02125 7.43749 1.99938 6.75937C2.0025 6.82187 2.10563 6.42812 2.43375 5.99062C2.76188 5.55312 3.24625 5.03437 3.76813 4.53124C4.815 3.52812 6.03375 2.56562 6.45563 2.27187V2.27499C6.8025 2.03124 7.10563 1.99999 7.32438 2.02499Z" fill="black"/>
</svg>
