<svg width="16" height="40" viewBox="0 0 16 40" fill="none" xmlns="http://www.w3.org/2000/svg">
<path d="M4 0.799988C3.78783 0.800009 3.58436 0.884301 3.43434 1.03433C3.28431 1.18435 3.20002 1.38782 3.2 1.59999V9.66249L3.11563 9.71405C1.25267 10.8315 0 12.873 0 15.2V16.8V33.6V37.6C0 38.4744 0.72555 39.2 1.6 39.2H14.4C15.2745 39.2 16 38.4744 16 37.6V33.6V16.8V15.2C16 12.873 14.7473 10.8315 12.8844 9.71405L12.8 9.66249V1.59999C12.8 1.38782 12.7157 1.18435 12.5657 1.03433C12.4156 0.884301 12.2122 0.800009 12 0.799988H4ZM4.8 2.39999H11.2V4.79999H10.0734C9.86322 4.55725 9.56104 4.35558 9.19715 4.21518C8.83327 4.07478 8.42044 4.00057 8 3.99999C7.57903 4.00021 7.16556 4.07425 6.80108 4.21466C6.43659 4.35508 6.13392 4.55694 5.92344 4.79999H4.8V2.39999ZM4.8 6.39999H5.92656C6.13678 6.64273 6.43896 6.84439 6.80285 6.98479C7.16674 7.12519 7.57957 7.1994 8 7.19999C8.42097 7.19977 8.83444 7.12573 9.19893 6.98531C9.56341 6.84489 9.86608 6.64303 10.0766 6.39999H11.2V9.59999H4.8V6.39999ZM3.825 11.2H4H12H12.175C13.4978 12.0547 14.4 13.5037 14.4 15.2V16H1.6V15.2C1.6 13.5037 2.50221 12.0547 3.825 11.2ZM1.6 17.6H14.4V32.8H1.6V17.6ZM1.6 34.4H14.4V37.6H1.6V34.4Z" fill="black"/>
</svg>
