<svg width="36" height="34" viewBox="0 0 36 34" fill="none" xmlns="http://www.w3.org/2000/svg">
<path d="M13.9972 0.200022C13.7856 0.200869 13.5829 0.285526 13.4336 0.435461C13.2842 0.585396 13.2004 0.788395 13.2003 1.00002C13.2003 6.14237 10.1864 9.92336 7.09096 12.4735C3.99547 15.0236 0.90502 16.2563 0.90502 16.2563C0.753112 16.3164 0.623254 16.4216 0.532902 16.5577C0.442549 16.6938 0.396033 16.8544 0.399605 17.0177C0.403178 17.181 0.45667 17.3394 0.552888 17.4714C0.649107 17.6034 0.783441 17.7028 0.937832 17.7563L19.3378 24.1563C19.341 24.1573 19.3441 24.1584 19.3472 24.1594C19.3617 24.164 19.3763 24.1681 19.391 24.1719C19.4018 24.1747 19.4128 24.1773 19.4238 24.1797C19.4321 24.1814 19.4404 24.183 19.4488 24.1844C19.4705 24.189 19.4924 24.1926 19.5144 24.1953C19.5393 24.1981 19.5643 24.1996 19.5894 24.2C19.591 24.2 19.5925 24.2 19.5941 24.2C19.6009 24.1996 19.6076 24.1991 19.6144 24.1985C19.6274 24.1988 19.6404 24.1988 19.6535 24.1985C19.6602 24.198 19.667 24.1975 19.6738 24.1969C19.6931 24.195 19.7124 24.1924 19.7316 24.1891C19.7321 24.1891 19.7326 24.1891 19.7331 24.1891C19.7589 24.1846 19.7845 24.1789 19.8097 24.1719C19.8356 24.1649 19.8612 24.1565 19.8863 24.1469C19.9032 24.1407 19.9198 24.1339 19.9363 24.1266C19.9363 24.1266 19.9425 24.1235 19.9425 24.1235L19.9441 24.1219L35.1425 16.9235C35.1441 16.9224 35.1456 16.9214 35.1472 16.9203C35.2178 16.8868 35.283 16.8431 35.341 16.7906C35.4249 16.7139 35.4914 16.6201 35.5363 16.5156C35.5443 16.4972 35.5516 16.4784 35.5581 16.4594C35.5603 16.4532 35.5624 16.4469 35.5644 16.4406C35.5655 16.437 35.5665 16.4334 35.5675 16.4297C35.5819 16.3823 35.5918 16.3337 35.5972 16.2844C35.5972 16.2834 35.5972 16.2823 35.5972 16.2813C35.6151 16.1075 35.5756 15.9326 35.4847 15.7833C35.3939 15.6341 35.2567 15.5187 35.0941 15.4547C35.0837 15.4508 35.0733 15.4472 35.0628 15.4438L31.1831 14.0938C32.387 11.9481 33.1881 9.46749 33.1988 6.65627C33.1988 6.65522 33.1988 6.6542 33.1988 6.65315C33.2001 6.63234 33.2006 6.61149 33.2003 6.59065C33.2002 6.57605 33.1997 6.56146 33.1988 6.5469C33.1976 6.53227 33.196 6.51768 33.1941 6.50315C33.1941 6.50002 33.1941 6.4969 33.1941 6.49377C33.1936 6.49064 33.1931 6.48752 33.1925 6.4844C33.1696 6.31209 33.0911 6.15194 32.9691 6.02817C32.847 5.90441 32.6879 5.82378 32.516 5.79846L14.2331 0.234397C14.1567 0.211218 14.0771 0.199632 13.9972 0.200022ZM14.6519 2.0344L31.5785 7.18596C31.1507 16.4242 20.911 21.8468 19.5394 22.5328L3.28939 16.8797C4.56173 16.2247 6.2386 15.2508 8.10971 13.7094C11.2025 11.1615 14.2591 7.24727 14.6519 2.0344ZM30.3128 15.4875L32.691 16.3141L27.5566 18.7469C28.5346 17.7849 29.4812 16.7022 30.3128 15.4875ZM34.8206 18.5953C34.6951 18.5936 34.5709 18.6214 34.4581 18.6766L19.5535 25.7375L1.46283 19.4438C1.36352 19.4093 1.25838 19.3947 1.15343 19.4008C1.04847 19.407 0.945758 19.4338 0.851147 19.4796C0.756537 19.5254 0.671884 19.5895 0.602022 19.668C0.532161 19.7466 0.478459 19.8382 0.443985 19.9375C0.40951 20.0368 0.394937 20.1419 0.401098 20.2469C0.407259 20.3519 0.434033 20.4546 0.479892 20.5492C0.525751 20.6438 0.589796 20.7284 0.66837 20.7983C0.746944 20.8681 0.838508 20.9218 0.937832 20.9563L19.3378 27.3563C19.5359 27.425 19.753 27.4132 19.9425 27.3235L35.1425 20.1235C35.308 20.0481 35.4429 19.9185 35.525 19.7562C35.607 19.5939 35.6313 19.4084 35.5938 19.2304C35.5563 19.0525 35.4593 18.8926 35.3187 18.7771C35.1782 18.6617 35.0025 18.5976 34.8206 18.5953ZM34.8206 21.7953C34.6951 21.7936 34.5709 21.8214 34.4581 21.8766L19.5535 28.9375L1.46283 22.6438C1.36352 22.6093 1.25838 22.5947 1.15343 22.6008C1.04847 22.607 0.945758 22.6338 0.851147 22.6796C0.756537 22.7254 0.671884 22.7895 0.602022 22.868C0.532161 22.9466 0.478459 23.0382 0.443985 23.1375C0.40951 23.2368 0.394937 23.3419 0.401098 23.4469C0.407259 23.5519 0.434033 23.6546 0.479892 23.7492C0.525751 23.8438 0.589796 23.9284 0.66837 23.9983C0.746944 24.0681 0.838508 24.1218 0.937832 24.1563L19.3378 30.5563C19.5359 30.625 19.753 30.6132 19.9425 30.5235L35.1425 23.3235C35.308 23.2481 35.4429 23.1185 35.525 22.9562C35.607 22.7939 35.6313 22.6084 35.5938 22.4305C35.5563 22.2525 35.4593 22.0926 35.3187 21.9771C35.1782 21.8617 35.0025 21.7976 34.8206 21.7953ZM34.8206 24.9953C34.6951 24.9936 34.5709 25.0214 34.4581 25.0766L19.5535 32.1375L1.46283 25.8438C1.36352 25.8093 1.25838 25.7947 1.15343 25.8008C1.04847 25.807 0.945758 25.8338 0.851147 25.8796C0.756537 25.9254 0.671884 25.9895 0.602022 26.068C0.532161 26.1466 0.478459 26.2382 0.443985 26.3375C0.40951 26.4368 0.394937 26.5419 0.401098 26.6469C0.407259 26.7519 0.434033 26.8546 0.479892 26.9492C0.525751 27.0438 0.589796 27.1284 0.66837 27.1983C0.746944 27.2681 0.838508 27.3218 0.937832 27.3563L19.3378 33.7563C19.5359 33.825 19.753 33.8132 19.9425 33.7235L35.1425 26.5235C35.308 26.4481 35.4429 26.3185 35.525 26.1562C35.607 25.9939 35.6313 25.8084 35.5938 25.6305C35.5563 25.4525 35.4593 25.2926 35.3187 25.1771C35.1782 25.0617 35.0025 24.9976 34.8206 24.9953Z" fill="black"/>
</svg>
