<svg width="38" height="38" viewBox="0 0 38 38" fill="none" xmlns="http://www.w3.org/2000/svg">
<path d="M19.0001 0.600006C13.1699 0.600006 7.97195 3.32168 4.6001 7.55938V2.20001C4.60156 2.09297 4.58154 1.98674 4.5412 1.88758C4.50087 1.78843 4.44105 1.69838 4.36529 1.62276C4.28953 1.54715 4.19936 1.4875 4.10013 1.44736C4.0009 1.40722 3.89463 1.3874 3.7876 1.38907C3.5757 1.39238 3.37377 1.47963 3.22613 1.63166C3.07849 1.7837 2.9972 1.9881 3.0001 2.20001V10.2H11.0001C11.1061 10.2015 11.2114 10.1819 11.3097 10.1424C11.4081 10.1029 11.4976 10.0442 11.5731 9.96973C11.6486 9.8953 11.7086 9.8066 11.7495 9.7088C11.7904 9.61099 11.8115 9.50603 11.8115 9.40001C11.8115 9.29399 11.7904 9.18902 11.7495 9.09122C11.7086 8.99341 11.6486 8.90471 11.5731 8.83028C11.4976 8.75584 11.4081 8.69715 11.3097 8.65762C11.2114 8.61809 11.1061 8.59851 11.0001 8.60001H5.81572C8.89194 4.70458 13.6459 2.20001 19.0001 2.20001C28.2877 2.20001 35.8001 9.71238 35.8001 19C35.8001 28.2876 28.2877 35.8 19.0001 35.8H18.9923H18.1923V36.5328C18.1886 36.577 18.1886 36.6214 18.1923 36.6656V37.4H18.9923C18.9949 37.4 18.9975 37.4 19.0001 37.4H19.8001V37.3797C29.5816 36.9593 37.4001 28.8839 37.4001 19C37.4001 8.84763 29.1525 0.600006 19.0001 0.600006ZM18.2001 7.80001V10.2422C16.8145 10.3766 15.6892 10.8669 14.8532 11.7125C13.3924 13.1901 13.3993 15.192 13.4001 15.2672C13.4001 18.7088 16.4091 19.378 18.8267 19.9156C21.4147 20.4892 23.0001 20.9464 23.0001 23C23.0001 26.144 19.1617 26.1992 19.0001 26.2C15.1529 26.2 15.0041 23.3218 15.0001 22.9938L14.2001 23H13.4001C13.4001 24.5552 14.4273 27.4081 18.2001 27.7625V30.2H19.8001V27.7484C21.7985 27.5036 24.6001 26.3208 24.6001 23C24.6001 19.5584 21.5911 18.8892 19.1735 18.3516C16.5855 17.778 15.0001 17.3201 15.0001 15.2609C15.0001 15.2521 15.0047 14.3446 15.5079 13.475C16.1503 12.3638 17.3257 11.8 19.0001 11.8C22.0441 11.8 22.1929 14.6838 22.2001 15.0094L23.8001 14.9891C23.7809 13.4579 22.8945 10.6699 19.8001 10.2563V7.80001H18.2001ZM0.600098 18.2V19V19.0094V19.8094H2.2001V19.0094V19V18.2H0.600098ZM2.27822 21.0984L0.71416 21.4375L0.88291 22.2188L0.886035 22.2344L1.05479 23.0156L2.61885 22.6781L2.4501 21.8953L2.44697 21.8813L2.27822 21.0984ZM2.90791 23.9719L1.42197 24.5656L1.71729 25.3078L1.72354 25.3234L2.02041 26.0656L3.50635 25.4734L3.20947 24.7297L3.20322 24.7156L2.90791 23.9719ZM4.03291 26.6906L2.6626 27.5172L3.07666 28.2031L3.08447 28.2156L3.49854 28.9L4.86729 28.0734L4.45479 27.3891L4.44697 27.375L4.03291 26.6906ZM5.61416 29.1703L4.39541 30.2063L4.9126 30.8156L4.92354 30.8281L5.44072 31.4375L6.66104 30.4016L6.14229 29.7922L6.13291 29.7797L5.61416 29.1703ZM7.6001 31.3391L6.56104 32.5563L7.17041 33.075L7.18135 33.0859L7.79072 33.6047L8.82979 32.3875L8.22041 31.8688L8.20947 31.8578L7.6001 31.3391ZM9.92822 33.1328L9.09854 34.5L9.78291 34.9156L9.79541 34.9234L10.4798 35.3375L11.3095 33.9703L10.6251 33.5547L10.6126 33.5469L9.92822 33.1328ZM12.5282 34.4938L11.9329 35.9797L12.6751 36.2766L12.6892 36.2828L13.4313 36.5813L14.0267 35.0953L13.2845 34.7984L13.2704 34.7922L12.5282 34.4938ZM15.3235 35.3813L14.9813 36.9438L15.7626 37.1156L15.7782 37.1188L16.5595 37.2891L16.9017 35.7266L16.1204 35.5547L16.1048 35.5516L15.3235 35.3813Z" fill="black"/>
</svg>
