<?xml version="1.0" encoding="UTF-8"?>
<svg width="179px" height="180px" viewBox="0 0 179 180" version="1.1" xmlns="http://www.w3.org/2000/svg" xmlns:xlink="http://www.w3.org/1999/xlink">
    <title>whatsapp-seeklogo.com</title>
    <defs>
        <polygon id="path-1" points="0 0.261 178.348 0.261 178.348 179.94 0 179.94"></polygon>
    </defs>
    <g id="Page-1" stroke="none" stroke-width="1" fill="none" fill-rule="evenodd">
        <g id="small" transform="translate(-150.000000, -150.000000)">
            <g id="whatsapp-seeklogo.com" transform="translate(150.000000, 150.000000)">
                <mask id="mask-2" fill="white">
                    <use xlink:href="#path-1"></use>
                </mask>
                <g id="Clip-2"></g>
                <path d="M131.844,107.71 C129.649,106.508 118.869,100.69 116.846,99.868 C114.825,99.047 113.35,98.619 111.774,100.801 C110.2,102.977 105.727,107.851 104.372,109.294 C103.01,110.738 101.701,110.872 99.504,109.667 C97.315,108.469 90.2,105.837 81.949,97.906 C75.528,91.733 71.317,84.248 70.096,81.964 C68.873,79.677 70.087,78.512 71.248,77.442 C72.29,76.476 73.581,74.912 74.748,73.651 C75.911,72.389 76.322,71.472 77.122,70.008 C77.922,68.544 77.6,67.225 77.081,66.086 C76.563,64.951 72.506,53.783 70.812,49.24 C69.117,44.697 67.229,45.372 65.924,45.321 C64.621,45.276 63.138,45.031 61.647,44.976 C60.157,44.919 57.713,45.389 55.583,47.547 C53.451,49.706 47.475,54.896 47.063,65.896 C46.651,76.889 54.26,87.817 55.321,89.347 C56.383,90.881 69.851,114.718 92.233,124.521 C114.62,134.321 114.737,131.333 118.844,131.113 C122.954,130.897 132.269,126.199 134.329,121.054 C136.387,115.907 136.552,111.433 136.029,110.48 C135.504,109.528 134.038,108.909 131.844,107.71 Z M90.791,160.702 C75.99,160.702 62.204,156.262 50.693,148.652 L22.684,157.618 L31.788,130.552 C23.062,118.533 17.908,103.77 17.908,87.817 C17.908,47.624 50.605,14.926 90.791,14.926 C130.985,14.926 163.68,47.624 163.68,87.817 C163.68,128.006 130.985,160.702 90.791,160.702 Z M90.791,0.261 C42.439,0.261 3.24,39.459 3.24,87.817 C3.24,104.358 7.831,119.829 15.803,133.027 L0,180 L48.474,164.482 C61.019,171.416 75.443,175.372 90.791,175.372 C139.151,175.372 178.348,136.169 178.348,87.817 C178.348,39.459 139.151,0.261 90.791,0.261 L90.791,0.261 Z" id="Fill-1" fill="#1B1A19" mask="url(#mask-2)"></path>
            </g>
        </g>
    </g>
</svg>